%
M48
M72
T01C0.0240
T02C0.0320
T03C0.0400
%
T01
X4084Y5202
X3784Y6102
X4284Y6802
X4284Y7602
X4084Y8602
X3684Y9002
X4684Y9402
X6184Y9502
X6784Y9602
X7184Y10402
X7784Y10502
X8684Y12502
X6784Y12902
X6184Y12902
X5284Y12102
X4884Y12602
X3684Y10902
X2784Y11702
X2284Y11302
X2084Y8202
X2884Y8002
X3284Y7602
X2084Y7002
X5384Y6902
X6784Y7202
X7684Y7202
X8284Y6902
X8384Y7702
X8684Y5902
X7484Y4702
X6684Y5302
X5584Y5302
X8284Y3902
X9684Y3802
X10384Y3302
X10584Y7002
X10084Y9402
X12084Y11102
X12984Y12902
X14184Y12502
X14984Y10802
X13784Y9002
X15184Y8002
X14484Y7002
X14984Y5202
X16284Y3002
X19884Y5202
X22984Y8802
X23684Y9402
X24084Y8402
X24484Y7402
X24784Y6202
X25884Y8002
X28184Y10802
X29084Y9402
X28984Y8502
X29084Y7402
X29884Y6202
X29084Y5802
X28884Y5202
X30184Y5202
X30884Y4102
X30584Y3002
X29984Y3002
X31484Y2602
X31884Y2202
X33484Y5202
X33984Y6402
X32684Y6402
X31784Y6602
X33884Y8102
X35784Y6402
X38384Y3802
X41684Y5102
X43284Y3802
X43284Y3202
X46184Y5502
X45584Y7102
X44984Y7102
X44484Y7602
X43084Y7102
X44384Y10802
X42184Y12102
X44084Y14602
X43884Y16102
X43284Y16002
X45484Y13302
X46384Y14202
X48284Y16002
X45784Y16202
X46684Y18002
X46484Y18602
X45684Y18402
X47484Y20202
X47484Y20802
X47584Y21502
X48384Y19802
X49384Y20202
X49584Y22302
X52284Y22302
X52984Y21602
X50584Y25202
X51784Y25702
X52984Y27002
X50284Y27402
X50284Y28402
X50384Y29202
X50084Y31002
X50784Y31402
X48784Y33002
X47684Y32802
X46984Y32302
X47684Y31102
X47884Y29602
X47884Y27902
X49284Y27002
X44984Y28402
X44184Y29202
X43284Y31002
X42684Y32302
X42384Y33302
X39484Y32402
X35784Y28302
X34784Y28102
X34584Y27002
X34184Y25602
X37084Y27002
X39484Y27002
X44384Y25602
X44384Y21602
X39484Y21602
X34584Y21602
X31184Y17002
X29784Y16002
X27684Y16202
X27284Y16602
X26884Y14302
X26884Y12902
X25484Y13302
X24784Y14002
X24384Y14502
X24784Y16002
X23584Y17002
X22384Y17202
X22184Y16602
X21584Y16602
X21784Y15602
X21784Y14902
X21184Y14902
X20484Y13302
X19284Y13802
X18684Y13802
X18784Y14602
X19684Y12002
X19384Y11502
X21184Y10902
X21984Y10402
X22284Y10902
X22884Y10702
X23684Y10902
X24784Y12602
X23184Y13302
X19884Y9402
X14684Y14602
X13884Y14602
X14484Y16402
X15984Y17702
X15184Y19502
X14584Y19402
X14984Y20202
X13884Y21602
X14284Y22202
X12584Y22602
X11984Y22602
X11984Y24002
X11984Y24802
X10384Y23502
X10384Y22202
X11284Y20902
X11384Y20202
X11984Y20202
X12584Y20202
X9984Y20202
X9384Y19802
X9684Y17202
X8984Y16002
X11084Y16202
X12084Y16202
X6884Y14902
X6184Y14502
X5184Y14502
X4084Y16002
X3184Y14702
X6784Y17702
X5784Y19402
X5184Y20202
X3884Y20202
X2684Y21602
X5784Y25102
X6884Y25102
X7184Y24602
X7984Y24402
X7984Y23802
X7584Y23402
X7984Y23002
X6584Y23102
X9484Y25702
X9884Y27002
X9484Y28302
X7784Y28402
X5684Y28802
X5184Y27002
X4284Y27002
X8984Y31002
X10984Y29202
X11784Y27202
X13884Y27002
X14984Y25202
X17984Y27102
X19584Y28402
X19284Y29202
X19584Y29702
X18484Y30502
X18784Y31002
X18784Y32402
X19584Y32402
X20484Y31802
X20784Y33102
X20684Y34602
X21984Y36102
X20484Y37002
X20884Y38602
X23684Y37702
X23384Y40402
X23884Y41902
X22984Y42302
X21984Y43902
X20884Y44302
X21984Y45602
X21984Y46202
X21884Y47002
X22984Y47802
X24684Y48702
X25984Y48002
X26284Y48602
X25984Y50102
X26384Y50802
X28084Y50602
X28984Y50102
X29084Y51002
X30184Y51902
X28784Y52602
X28184Y54102
X30284Y55302
X32784Y55302
X32984Y54102
X38684Y54102
X44384Y54102
X45084Y52002
X45984Y50302
X44584Y49002
X45384Y48202
X44884Y47402
X45784Y46902
X46884Y47302
X47584Y48002
X47884Y47302
X48184Y46102
X48784Y46102
X48784Y45302
X50484Y46102
X50884Y45702
X51684Y45202
X51784Y43702
X50884Y43002
X50384Y41602
X50984Y41002
X51384Y39902
X51384Y39302
X49484Y38502
X48684Y37702
X49984Y37002
X47384Y37702
X45884Y39302
X48084Y40602
X49284Y41202
X48284Y42002
X48784Y43302
X46884Y43302
X46484Y45702
X44984Y45302
X43984Y43402
X42584Y42702
X38584Y40602
X37284Y41902
X37684Y42702
X35784Y43702
X34684Y41502
X32784Y42702
X30384Y42702
X28084Y44102
X28484Y45902
X27884Y46002
X25984Y46502
X23784Y45402
X24384Y44402
X25384Y42702
X25984Y42002
X29184Y37602
X31084Y36302
X32784Y37002
X34584Y32402
X33484Y30702
X31584Y28702
X30284Y28702
X29284Y29702
X29584Y30702
X30284Y31102
X29784Y32402
X27184Y31202
X24784Y31002
X23584Y30502
X22384Y31902
X21284Y28502
X19984Y27102
X20484Y26602
X18784Y25602
X21784Y22802
X23684Y21602
X22384Y19802
X21384Y18002
X20584Y17702
X19284Y17702
X19284Y18502
X17984Y18502
X18784Y21602
X23884Y24402
X24484Y23602
X23684Y27002
X22884Y26902
X27984Y25702
X28684Y27002
X28684Y21602
X34584Y16002
X34684Y12902
X33484Y10802
X30684Y12902
X29484Y11702
X30284Y10902
X24784Y3802
X38384Y10802
X39484Y16002
X46684Y9502
X47184Y9802
X48384Y9402
X49384Y9402
X49484Y8602
X48084Y7702
X48084Y7102
X49184Y6602
X49184Y6002
X47884Y5202
X52384Y8602
X52784Y7102
X54684Y4702
X54084Y10802
X52984Y16002
X48784Y11602
X48384Y10802
X52984Y32402
X52684Y35702
X53984Y36302
X54084Y37702
X53484Y37802
X53784Y38602
X55384Y38202
X55584Y38902
X55384Y40402
X53784Y40302
X53884Y42002
X52984Y42002
X54084Y43402
X50384Y47702
X49984Y48102
X50384Y48502
X51784Y49102
X52784Y49102
X53484Y50302
X54684Y48002
X50884Y50702
X50184Y50602
X49884Y51102
X49284Y51102
X48384Y51502
X47384Y52002
X47384Y52602
X49384Y54102
X51284Y53102
X53484Y54002
X48984Y49002
X42584Y48002
X38584Y46502
X38184Y46102
X37684Y48002
X32784Y48002
X29184Y48602
X28084Y48602
X27984Y48002
X24584Y50402
X23584Y52602
X23184Y54102
X22984Y55302
X23784Y56102
X25584Y54902
X25784Y52602
X20684Y51602
X20684Y50902
X19684Y52602
X18984Y52602
X20384Y54002
X16984Y53002
X16184Y54402
X13884Y52702
X12784Y52802
X10684Y53402
X9684Y54702
X7784Y52902
X6384Y52802
X5884Y52502
X6884Y50902
X6384Y50602
X7484Y50902
X6984Y49002
X8284Y47502
X9284Y46802
X10284Y45602
X10984Y46002
X12284Y45102
X13084Y46402
X14984Y48702
X13884Y49002
X10584Y49802
X15684Y44502
X16484Y44302
X16884Y43502
X17384Y45302
X20384Y46602
X19884Y48702
X20484Y42702
X15684Y38402
X16284Y37802
X17084Y37002
X17084Y36402
X17284Y34802
X15984Y34002
X15684Y32802
X14384Y30902
X13184Y31702
X12284Y31202
X11484Y32302
X11484Y34102
X11484Y34902
X12084Y34902
X10884Y34902
X10484Y34102
X9884Y34302
X9384Y34702
X6984Y35202
X6484Y34702
X5084Y35302
X4984Y34202
X5984Y33102
X4884Y32602
X3984Y32402
X5784Y37002
X7984Y38402
X9484Y41002
X8384Y42602
X7384Y41402
X10584Y43902
X11684Y40402
X12584Y40402
X14784Y42002
X15284Y40402
X15584Y37002
X10684Y37002
X16884Y30102
X15884Y29702
X3384Y42302
X2284Y46302
X3784Y46702
X4584Y47402
X37684Y37002
X43784Y37602
T02
X9384Y50302
X9384Y51302
T03
X9084Y55302
X10084Y55302
X8084Y55302
X7084Y55302
X6084Y55302
X6184Y46602
X7184Y46602
X7184Y45602
X6184Y45602
X6184Y44602
X7184Y44602
X7184Y43602
X7184Y42602
X6184Y42602
X6184Y43602
M30
