G75*
G70*
%OFA0B0*%
%FSLAX24Y24*%
%IPPOS*%
%LPD*%
%AMOC8*
5,1,8,0,0,1.08239X$1,22.5*
%
%ADD10R,0.0395X0.0552*%
%ADD11R,0.0395X0.0395*%
%ADD12R,0.0261X0.0580*%
%ADD13R,0.0580X0.0261*%
%ADD14R,0.0552X0.0395*%
%ADD15OC8,0.0820*%
%ADD16C,0.0820*%
%ADD17R,0.0320X0.0950*%
%ADD18R,0.2180X0.0840*%
%ADD19C,0.0640*%
%ADD20R,0.1640X0.1640*%
%ADD21R,0.1330X0.1330*%
%ADD22R,0.0340X0.0880*%
%ADD23R,0.0592X0.0867*%
%ADD24R,0.0867X0.0867*%
%ADD25R,0.0880X0.0340*%
%ADD26R,0.0946X0.0631*%
%ADD27R,0.1080X0.2080*%
%ADD28R,0.0580X0.1080*%
%ADD29R,0.2521X0.2206*%
%ADD30R,0.0710X0.0474*%
%ADD31R,0.1080X0.0580*%
%ADD32R,0.0631X0.0710*%
%ADD33C,0.0520*%
D10*
X003329Y004502D03*
X004038Y004502D03*
X008229Y004502D03*
X008938Y004502D03*
X010029Y010102D03*
X010738Y010102D03*
X014929Y010102D03*
X015638Y010102D03*
X019829Y010102D03*
X020538Y010102D03*
X022929Y010102D03*
X023638Y010102D03*
X027929Y010102D03*
X028638Y010102D03*
X032729Y010102D03*
X033438Y010102D03*
X037629Y010102D03*
X038338Y010102D03*
X039429Y015302D03*
X040138Y015302D03*
X042529Y015302D03*
X043238Y015302D03*
X047529Y015302D03*
X048238Y015302D03*
X052229Y015302D03*
X052938Y015302D03*
X054029Y010102D03*
X054738Y010102D03*
X050038Y010102D03*
X049329Y010102D03*
X045038Y010102D03*
X044329Y010102D03*
X043238Y004502D03*
X042529Y004502D03*
X046529Y003302D03*
X046529Y002702D03*
X047238Y002702D03*
X047238Y003302D03*
X047129Y004502D03*
X047838Y004502D03*
X038338Y004502D03*
X037629Y004502D03*
X033438Y004502D03*
X032729Y004502D03*
X030438Y004502D03*
X029729Y004502D03*
X025438Y004502D03*
X024729Y004502D03*
X020538Y004502D03*
X019829Y004502D03*
X015638Y004502D03*
X014929Y004502D03*
X013838Y015302D03*
X013129Y015302D03*
X008938Y015302D03*
X008229Y015302D03*
X004038Y015302D03*
X003329Y015302D03*
X003538Y010102D03*
X002829Y010102D03*
X005129Y020902D03*
X005838Y020902D03*
X005138Y022002D03*
X004429Y022002D03*
X005129Y026302D03*
X005838Y026302D03*
X010029Y026302D03*
X010738Y026302D03*
X010429Y027002D03*
X011138Y027002D03*
X013129Y026302D03*
X013838Y026302D03*
X018029Y026302D03*
X018738Y026302D03*
X022929Y026302D03*
X023638Y026302D03*
X027929Y026302D03*
X028638Y026302D03*
X028638Y020902D03*
X027929Y020902D03*
X023638Y020902D03*
X022929Y020902D03*
X023038Y018702D03*
X023038Y018002D03*
X022329Y018002D03*
X022329Y018702D03*
X024729Y015302D03*
X025438Y015302D03*
X029729Y015302D03*
X030438Y015302D03*
X034529Y015302D03*
X035238Y015302D03*
X035238Y020902D03*
X034529Y020902D03*
X039429Y020902D03*
X040138Y020902D03*
X044329Y020902D03*
X045038Y020902D03*
X049329Y020902D03*
X050038Y020902D03*
X052229Y020902D03*
X052938Y020902D03*
X052938Y026302D03*
X052229Y026302D03*
X050038Y026302D03*
X049329Y026302D03*
X045038Y026302D03*
X044329Y026302D03*
X040138Y026302D03*
X039429Y026302D03*
X035238Y026302D03*
X034529Y026302D03*
X034529Y031702D03*
X035238Y031702D03*
X039429Y031702D03*
X040138Y031702D03*
X042529Y031702D03*
X043238Y031702D03*
X047529Y031702D03*
X048238Y031702D03*
X052229Y031702D03*
X052938Y031702D03*
X053329Y037002D03*
X054038Y037002D03*
X049338Y037002D03*
X048629Y037002D03*
X044338Y037002D03*
X043629Y037002D03*
X039038Y037002D03*
X038329Y037002D03*
X034138Y037002D03*
X033429Y037002D03*
X029338Y037002D03*
X028629Y037002D03*
X024338Y037002D03*
X023629Y037002D03*
X019838Y037002D03*
X019129Y037002D03*
X014938Y037002D03*
X014229Y037002D03*
X010038Y037002D03*
X009329Y037002D03*
X006438Y035902D03*
X005729Y035902D03*
X004938Y035902D03*
X004229Y035902D03*
X004429Y037002D03*
X005138Y037002D03*
X004138Y041702D03*
X003429Y041702D03*
X006129Y041802D03*
X006838Y041802D03*
X009029Y042602D03*
X009738Y042602D03*
X014029Y042602D03*
X014738Y042602D03*
X016129Y046102D03*
X016838Y046102D03*
X015638Y048002D03*
X014929Y048002D03*
X019129Y048002D03*
X019838Y048002D03*
X024029Y048002D03*
X024738Y048002D03*
X028629Y048002D03*
X029338Y048002D03*
X033429Y048002D03*
X034138Y048002D03*
X038329Y048002D03*
X039038Y048002D03*
X043329Y048002D03*
X044038Y048002D03*
X048229Y048002D03*
X048938Y048002D03*
X053329Y048002D03*
X054038Y048002D03*
X054038Y042702D03*
X053329Y042702D03*
X048938Y042702D03*
X048229Y042702D03*
X043938Y042702D03*
X043229Y042702D03*
X039038Y042702D03*
X038329Y042702D03*
X034138Y042702D03*
X033429Y042702D03*
X029738Y042702D03*
X029029Y042702D03*
X024738Y042702D03*
X024029Y042702D03*
X019838Y042702D03*
X019129Y042702D03*
X020429Y053402D03*
X021138Y053402D03*
X016438Y055002D03*
X015729Y055002D03*
X012138Y055202D03*
X011429Y055202D03*
X006438Y054202D03*
X005729Y054202D03*
X005729Y053402D03*
X006438Y053402D03*
X006238Y048402D03*
X005529Y048402D03*
X004738Y031702D03*
X004029Y031702D03*
X004229Y030502D03*
X004938Y030502D03*
X005729Y030502D03*
X006438Y030502D03*
X008929Y031702D03*
X009638Y031702D03*
X011029Y031402D03*
X011738Y031402D03*
X013829Y031702D03*
X014538Y031702D03*
X018029Y031702D03*
X018738Y031702D03*
X024729Y031702D03*
X025438Y031702D03*
X029729Y031702D03*
X030438Y031702D03*
X018738Y020902D03*
X018029Y020902D03*
X013838Y020902D03*
X013129Y020902D03*
X010738Y020902D03*
X010029Y020902D03*
X018029Y015302D03*
X018738Y015302D03*
X052729Y054602D03*
X053438Y054602D03*
D11*
X005179Y054202D03*
X004589Y054202D03*
D12*
X012281Y047192D03*
X012596Y047192D03*
X012911Y047192D03*
X013226Y047192D03*
X013541Y047192D03*
X013856Y047192D03*
X014171Y047192D03*
X014486Y047192D03*
X014486Y043812D03*
X014171Y043812D03*
X013856Y043812D03*
X013541Y043812D03*
X013226Y043812D03*
X012911Y043812D03*
X012596Y043812D03*
X012281Y043812D03*
D13*
X011694Y044399D03*
X011694Y044714D03*
X011694Y045029D03*
X011694Y045344D03*
X011694Y045659D03*
X011694Y045974D03*
X011694Y046289D03*
X011694Y046604D03*
X015074Y046604D03*
X015074Y046289D03*
X015074Y045974D03*
X015074Y045659D03*
X015074Y045344D03*
X015074Y045029D03*
X015074Y044714D03*
X015074Y044399D03*
D14*
X010184Y041956D03*
X010184Y041247D03*
X013784Y034756D03*
X013784Y034047D03*
X015384Y034047D03*
X015384Y034756D03*
X009184Y029556D03*
X009184Y028847D03*
X015784Y020156D03*
X015784Y019447D03*
X017284Y018456D03*
X017284Y017747D03*
X015884Y016956D03*
X015884Y016247D03*
X019384Y013256D03*
X019384Y012547D03*
X022984Y016647D03*
X022984Y017356D03*
X022984Y019347D03*
X022984Y020056D03*
X023684Y031047D03*
X023684Y031756D03*
X010384Y018556D03*
X010384Y017847D03*
X008984Y011056D03*
X008984Y010347D03*
X008984Y007656D03*
X008984Y006947D03*
X028184Y005056D03*
X028184Y004347D03*
X048784Y007147D03*
X048784Y007856D03*
X055284Y005456D03*
X055284Y004747D03*
X048684Y017847D03*
X048684Y018556D03*
X048684Y026047D03*
X048684Y026756D03*
X052184Y036847D03*
X052184Y037556D03*
X047584Y045347D03*
X047584Y046056D03*
X047584Y050747D03*
X047584Y051456D03*
X049384Y054647D03*
X049384Y055356D03*
X044384Y055356D03*
X044384Y054647D03*
X038284Y054547D03*
X038284Y055256D03*
X033384Y055256D03*
X033384Y054547D03*
X028584Y054547D03*
X028584Y055256D03*
X025184Y050956D03*
X025184Y050247D03*
X025484Y048356D03*
X025484Y047647D03*
X023584Y054547D03*
X023584Y055256D03*
X017684Y055256D03*
X017684Y054547D03*
X012984Y054056D03*
X012984Y053347D03*
X010084Y053447D03*
X010084Y054156D03*
X008284Y051156D03*
X008284Y050447D03*
X008284Y048756D03*
X008284Y048047D03*
D15*
X007184Y046602D03*
X006184Y046602D03*
X006184Y045602D03*
X007184Y045602D03*
X007184Y044602D03*
X006184Y044602D03*
X006184Y043602D03*
X006184Y042602D03*
X007184Y042602D03*
X007184Y043602D03*
D16*
X007084Y055302D03*
X008084Y055302D03*
X009084Y055302D03*
X010084Y055302D03*
X006084Y055302D03*
D17*
X006234Y051832D03*
X006734Y051832D03*
X007234Y051832D03*
X007734Y051832D03*
X007734Y049772D03*
X007234Y049772D03*
X006734Y049772D03*
X006234Y049772D03*
D18*
X018184Y040102D03*
X021984Y040102D03*
D19*
X009384Y050302D03*
X009384Y051302D03*
D20*
X002284Y050602D03*
D21*
X002284Y047502D03*
X002284Y053702D03*
D22*
X009984Y035712D03*
X010484Y035712D03*
X010984Y035712D03*
X011484Y035712D03*
X011984Y035712D03*
X012484Y035712D03*
X012984Y035712D03*
X012984Y033292D03*
X012484Y033292D03*
X011984Y033292D03*
X011484Y033292D03*
X010984Y033292D03*
X010484Y033292D03*
X009984Y033292D03*
X009984Y030412D03*
X010484Y030412D03*
X010984Y030412D03*
X011484Y030412D03*
X011984Y030412D03*
X012484Y030412D03*
X012984Y030412D03*
X012984Y027992D03*
X012484Y027992D03*
X011984Y027992D03*
X011484Y027992D03*
X010984Y027992D03*
X010484Y027992D03*
X009984Y027992D03*
X016134Y033192D03*
X016634Y033192D03*
X017134Y033192D03*
X017634Y033192D03*
X018134Y033192D03*
X018634Y033192D03*
X019134Y033192D03*
X019634Y033192D03*
X019634Y035612D03*
X019134Y035612D03*
X018634Y035612D03*
X018134Y035612D03*
X017634Y035612D03*
X017134Y035612D03*
X016634Y035612D03*
X016134Y035612D03*
X025734Y049392D03*
X026234Y049392D03*
X026734Y049392D03*
X027234Y049392D03*
X027734Y049392D03*
X028234Y049392D03*
X028734Y049392D03*
X029234Y049392D03*
X029234Y051812D03*
X028734Y051812D03*
X028234Y051812D03*
X027734Y051812D03*
X027234Y051812D03*
X026734Y051812D03*
X026234Y051812D03*
X025734Y051812D03*
X048434Y052312D03*
X048934Y052312D03*
X049434Y052312D03*
X049934Y052312D03*
X050434Y052312D03*
X050934Y052312D03*
X051434Y052312D03*
X051934Y052312D03*
X051934Y049892D03*
X051434Y049892D03*
X050934Y049892D03*
X050434Y049892D03*
X049934Y049892D03*
X049434Y049892D03*
X048934Y049892D03*
X048434Y049892D03*
X048434Y046912D03*
X048934Y046912D03*
X049434Y046912D03*
X049934Y046912D03*
X050434Y046912D03*
X050934Y046912D03*
X051434Y046912D03*
X051934Y046912D03*
X051934Y044492D03*
X051434Y044492D03*
X050934Y044492D03*
X050434Y044492D03*
X049934Y044492D03*
X049434Y044492D03*
X048934Y044492D03*
X048434Y044492D03*
X047934Y019412D03*
X047434Y019412D03*
X046934Y019412D03*
X046434Y019412D03*
X045934Y019412D03*
X045434Y019412D03*
X044934Y019412D03*
X044434Y019412D03*
X044434Y016992D03*
X044934Y016992D03*
X045434Y016992D03*
X045934Y016992D03*
X046434Y016992D03*
X046934Y016992D03*
X047434Y016992D03*
X047934Y016992D03*
X048034Y008712D03*
X047534Y008712D03*
X047034Y008712D03*
X046534Y008712D03*
X046034Y008712D03*
X045534Y008712D03*
X045034Y008712D03*
X044534Y008712D03*
X044534Y006292D03*
X045034Y006292D03*
X045534Y006292D03*
X046034Y006292D03*
X046534Y006292D03*
X047034Y006292D03*
X047534Y006292D03*
X048034Y006292D03*
X023634Y011692D03*
X023134Y011692D03*
X022634Y011692D03*
X022134Y011692D03*
X021634Y011692D03*
X021134Y011692D03*
X020634Y011692D03*
X020134Y011692D03*
X020134Y014112D03*
X020634Y014112D03*
X021134Y014112D03*
X021634Y014112D03*
X022134Y014112D03*
X022634Y014112D03*
X023134Y014112D03*
X023634Y014112D03*
X020984Y016892D03*
X020484Y016892D03*
X019984Y016892D03*
X019484Y016892D03*
X018984Y016892D03*
X018484Y016892D03*
X017984Y016892D03*
X017984Y019312D03*
X018484Y019312D03*
X018984Y019312D03*
X019484Y019312D03*
X019984Y019312D03*
X020484Y019312D03*
X020984Y019312D03*
X014084Y019412D03*
X013584Y019412D03*
X013084Y019412D03*
X012584Y019412D03*
X012084Y019412D03*
X011584Y019412D03*
X011084Y019412D03*
X011084Y016992D03*
X011584Y016992D03*
X012084Y016992D03*
X012584Y016992D03*
X013084Y016992D03*
X013584Y016992D03*
X014084Y016992D03*
X008234Y013712D03*
X007734Y013712D03*
X007234Y013712D03*
X006734Y013712D03*
X006234Y013712D03*
X005734Y013712D03*
X005234Y013712D03*
X004734Y013712D03*
X004734Y011292D03*
X005234Y011292D03*
X005734Y011292D03*
X006234Y011292D03*
X006734Y011292D03*
X007234Y011292D03*
X007734Y011292D03*
X008234Y011292D03*
X008234Y008512D03*
X007734Y008512D03*
X007234Y008512D03*
X006734Y008512D03*
X006234Y008512D03*
X005734Y008512D03*
X005234Y008512D03*
X004734Y008512D03*
X004734Y006092D03*
X005234Y006092D03*
X005734Y006092D03*
X006234Y006092D03*
X006734Y006092D03*
X007234Y006092D03*
X007734Y006092D03*
X008234Y006092D03*
D23*
X007675Y017714D03*
X009092Y017714D03*
X005692Y017614D03*
X004275Y017614D03*
X004275Y029589D03*
X005692Y029589D03*
X005692Y034989D03*
X004275Y034989D03*
D24*
X004984Y033414D03*
X004984Y028014D03*
X004984Y019189D03*
X008384Y019289D03*
D25*
X008774Y021952D03*
X008774Y022452D03*
X008774Y022952D03*
X008774Y023452D03*
X008774Y023952D03*
X008774Y024452D03*
X008774Y024952D03*
X008774Y025452D03*
X011194Y025452D03*
X011194Y024952D03*
X011194Y024452D03*
X011194Y023952D03*
X011194Y023452D03*
X011194Y022952D03*
X011194Y022452D03*
X011194Y021952D03*
X020374Y027552D03*
X020374Y028052D03*
X020374Y028552D03*
X020374Y029052D03*
X020374Y029552D03*
X020374Y030052D03*
X020374Y030552D03*
X020374Y031052D03*
X022794Y031052D03*
X022794Y030552D03*
X022794Y030052D03*
X022794Y029552D03*
X022794Y029052D03*
X022794Y028552D03*
X022794Y028052D03*
X022794Y027552D03*
X022774Y043452D03*
X022774Y043952D03*
X022774Y044452D03*
X022774Y044952D03*
X022774Y045452D03*
X022774Y045952D03*
X022774Y046452D03*
X022774Y046952D03*
X025194Y046952D03*
X025194Y046452D03*
X025194Y045952D03*
X025194Y045452D03*
X025194Y044952D03*
X025194Y044452D03*
X025194Y043952D03*
X025194Y043452D03*
X048674Y030952D03*
X048674Y030452D03*
X048674Y029952D03*
X048674Y029452D03*
X048674Y028952D03*
X048674Y028452D03*
X048674Y027952D03*
X048674Y027452D03*
X051094Y027452D03*
X051094Y027952D03*
X051094Y028452D03*
X051094Y028952D03*
X051094Y029452D03*
X051094Y029952D03*
X051094Y030452D03*
X051094Y030952D03*
X052174Y038252D03*
X052174Y038752D03*
X052174Y039252D03*
X052174Y039752D03*
X052174Y040252D03*
X052174Y040752D03*
X052174Y041252D03*
X052174Y041752D03*
X054594Y041752D03*
X054594Y041252D03*
X054594Y040752D03*
X054594Y040252D03*
X054594Y039752D03*
X054594Y039252D03*
X054594Y038752D03*
X054594Y038252D03*
X030694Y009252D03*
X030694Y008752D03*
X030694Y008252D03*
X030694Y007752D03*
X030694Y007252D03*
X030694Y006752D03*
X030694Y006252D03*
X030694Y005752D03*
X028274Y005752D03*
X028274Y006252D03*
X028274Y006752D03*
X028274Y007252D03*
X028274Y007752D03*
X028274Y008252D03*
X028274Y008752D03*
X028274Y009252D03*
D26*
X053254Y007802D03*
X054514Y007802D03*
D27*
X048284Y002602D03*
X045284Y002602D03*
D28*
X010984Y002902D03*
X009284Y002802D03*
X008384Y002802D03*
X007484Y002802D03*
X006584Y002802D03*
X012984Y055202D03*
X014384Y055202D03*
D29*
X051400Y004602D03*
D30*
X054274Y005499D03*
X054274Y003704D03*
D31*
X003084Y018502D03*
X003084Y022302D03*
X003084Y023402D03*
X003084Y024402D03*
X002684Y028702D03*
X002684Y030602D03*
X002684Y032502D03*
X002684Y034402D03*
X002784Y044602D03*
X002784Y045502D03*
D32*
X050133Y012502D03*
X051235Y012502D03*
D33*
X048784Y011602D03*
X048384Y010802D03*
X048384Y009402D03*
X049384Y009402D03*
X049484Y008602D03*
X048084Y007702D03*
X048084Y007102D03*
X049184Y006602D03*
X049184Y006002D03*
X047884Y005202D03*
X046184Y005502D03*
X045584Y007102D03*
X044984Y007102D03*
X044484Y007602D03*
X043084Y007102D03*
X041684Y005102D03*
X043284Y003802D03*
X043284Y003202D03*
X038384Y003802D03*
X035784Y006402D03*
X033984Y006402D03*
X032684Y006402D03*
X031784Y006602D03*
X030184Y005202D03*
X029884Y006202D03*
X029084Y005802D03*
X028884Y005202D03*
X029084Y007402D03*
X028984Y008502D03*
X029084Y009402D03*
X028184Y010802D03*
X029484Y011702D03*
X030284Y010902D03*
X030684Y012902D03*
X033484Y010802D03*
X034684Y012902D03*
X034584Y016002D03*
X031184Y017002D03*
X029784Y016002D03*
X027684Y016202D03*
X027284Y016602D03*
X026884Y014302D03*
X026884Y012902D03*
X025484Y013302D03*
X024784Y014002D03*
X024384Y014502D03*
X024784Y016002D03*
X023584Y017002D03*
X022384Y017202D03*
X022184Y016602D03*
X021584Y016602D03*
X021784Y015602D03*
X021784Y014902D03*
X021184Y014902D03*
X020484Y013302D03*
X019284Y013802D03*
X018684Y013802D03*
X018784Y014602D03*
X019684Y012002D03*
X019384Y011502D03*
X021184Y010902D03*
X021984Y010402D03*
X022284Y010902D03*
X022884Y010702D03*
X023684Y010902D03*
X023684Y009402D03*
X022984Y008802D03*
X024084Y008402D03*
X024484Y007402D03*
X024784Y006202D03*
X025884Y008002D03*
X024784Y003802D03*
X019884Y005202D03*
X016284Y003002D03*
X014984Y005202D03*
X014484Y007002D03*
X015184Y008002D03*
X013784Y009002D03*
X014984Y010802D03*
X014184Y012502D03*
X012984Y012902D03*
X013884Y014602D03*
X014684Y014602D03*
X014484Y016402D03*
X015984Y017702D03*
X015184Y019502D03*
X014584Y019402D03*
X014984Y020202D03*
X013884Y021602D03*
X014284Y022202D03*
X012584Y022602D03*
X011984Y022602D03*
X011984Y024002D03*
X011984Y024802D03*
X010384Y023502D03*
X010384Y022202D03*
X011284Y020902D03*
X011384Y020202D03*
X011984Y020202D03*
X012584Y020202D03*
X009984Y020202D03*
X009384Y019802D03*
X009684Y017202D03*
X008984Y016002D03*
X011084Y016202D03*
X012084Y016202D03*
X008684Y012502D03*
X007784Y010502D03*
X007184Y010402D03*
X006784Y009602D03*
X006184Y009502D03*
X004684Y009402D03*
X004084Y008602D03*
X003684Y009002D03*
X002884Y008002D03*
X003284Y007602D03*
X004284Y007602D03*
X004284Y006802D03*
X003784Y006102D03*
X004084Y005202D03*
X005584Y005302D03*
X006684Y005302D03*
X007484Y004702D03*
X008284Y003902D03*
X009684Y003802D03*
X010384Y003302D03*
X008684Y005902D03*
X008284Y006902D03*
X007684Y007202D03*
X008384Y007702D03*
X006784Y007202D03*
X005384Y006902D03*
X002084Y007002D03*
X002084Y008202D03*
X003684Y010902D03*
X002784Y011702D03*
X002284Y011302D03*
X004884Y012602D03*
X005284Y012102D03*
X006184Y012902D03*
X006784Y012902D03*
X006184Y014502D03*
X006884Y014902D03*
X005184Y014502D03*
X004084Y016002D03*
X003184Y014702D03*
X006784Y017702D03*
X005784Y019402D03*
X005184Y020202D03*
X003884Y020202D03*
X002684Y021602D03*
X005784Y025102D03*
X006884Y025102D03*
X007184Y024602D03*
X007984Y024402D03*
X007984Y023802D03*
X007584Y023402D03*
X007984Y023002D03*
X006584Y023102D03*
X009484Y025702D03*
X009884Y027002D03*
X009484Y028302D03*
X007784Y028402D03*
X005684Y028802D03*
X005184Y027002D03*
X004284Y027002D03*
X008984Y031002D03*
X010984Y029202D03*
X011784Y027202D03*
X013884Y027002D03*
X014984Y025202D03*
X017984Y027102D03*
X019584Y028402D03*
X019284Y029202D03*
X019584Y029702D03*
X018484Y030502D03*
X018784Y031002D03*
X018784Y032402D03*
X019584Y032402D03*
X020484Y031802D03*
X020784Y033102D03*
X020684Y034602D03*
X021984Y036102D03*
X020484Y037002D03*
X020884Y038602D03*
X023684Y037702D03*
X023384Y040402D03*
X023884Y041902D03*
X022984Y042302D03*
X021984Y043902D03*
X020884Y044302D03*
X021984Y045602D03*
X021984Y046202D03*
X021884Y047002D03*
X022984Y047802D03*
X024684Y048702D03*
X025984Y048002D03*
X026284Y048602D03*
X025984Y050102D03*
X026384Y050802D03*
X028084Y050602D03*
X028984Y050102D03*
X029084Y051002D03*
X030184Y051902D03*
X028784Y052602D03*
X028184Y054102D03*
X030284Y055302D03*
X032784Y055302D03*
X032984Y054102D03*
X038684Y054102D03*
X044384Y054102D03*
X045084Y052002D03*
X045984Y050302D03*
X044584Y049002D03*
X045384Y048202D03*
X044884Y047402D03*
X045784Y046902D03*
X046884Y047302D03*
X047584Y048002D03*
X047884Y047302D03*
X048184Y046102D03*
X048784Y046102D03*
X048784Y045302D03*
X050484Y046102D03*
X050884Y045702D03*
X051684Y045202D03*
X051784Y043702D03*
X050884Y043002D03*
X050384Y041602D03*
X050984Y041002D03*
X051384Y039902D03*
X051384Y039302D03*
X049484Y038502D03*
X048684Y037702D03*
X049984Y037002D03*
X047384Y037702D03*
X045884Y039302D03*
X048084Y040602D03*
X049284Y041202D03*
X048284Y042002D03*
X048784Y043302D03*
X046884Y043302D03*
X046484Y045702D03*
X044984Y045302D03*
X043984Y043402D03*
X042584Y042702D03*
X038584Y040602D03*
X037284Y041902D03*
X037684Y042702D03*
X035784Y043702D03*
X034684Y041502D03*
X032784Y042702D03*
X030384Y042702D03*
X028084Y044102D03*
X028484Y045902D03*
X027884Y046002D03*
X025984Y046502D03*
X023784Y045402D03*
X024384Y044402D03*
X025384Y042702D03*
X025984Y042002D03*
X029184Y037602D03*
X031084Y036302D03*
X032784Y037002D03*
X034584Y032402D03*
X033484Y030702D03*
X031584Y028702D03*
X030284Y028702D03*
X029284Y029702D03*
X029584Y030702D03*
X030284Y031102D03*
X029784Y032402D03*
X027184Y031202D03*
X024784Y031002D03*
X023584Y030502D03*
X022384Y031902D03*
X021284Y028502D03*
X019984Y027102D03*
X020484Y026602D03*
X018784Y025602D03*
X021784Y022802D03*
X023684Y021602D03*
X022384Y019802D03*
X021384Y018002D03*
X020584Y017702D03*
X019284Y017702D03*
X019284Y018502D03*
X017984Y018502D03*
X018784Y021602D03*
X023884Y024402D03*
X024484Y023602D03*
X023684Y027002D03*
X022884Y026902D03*
X027984Y025702D03*
X028684Y027002D03*
X028684Y021602D03*
X034584Y021602D03*
X034184Y025602D03*
X034584Y027002D03*
X034784Y028102D03*
X035784Y028302D03*
X037084Y027002D03*
X039484Y027002D03*
X043284Y031002D03*
X042684Y032302D03*
X042384Y033302D03*
X039484Y032402D03*
X037684Y037002D03*
X043784Y037602D03*
X047684Y032802D03*
X046984Y032302D03*
X047684Y031102D03*
X047884Y029602D03*
X047884Y027902D03*
X049284Y027002D03*
X050284Y027402D03*
X050284Y028402D03*
X050384Y029202D03*
X050084Y031002D03*
X050784Y031402D03*
X048784Y033002D03*
X052984Y032402D03*
X052684Y035702D03*
X053984Y036302D03*
X054084Y037702D03*
X053484Y037802D03*
X053784Y038602D03*
X055384Y038202D03*
X055584Y038902D03*
X055384Y040402D03*
X053784Y040302D03*
X053884Y042002D03*
X052984Y042002D03*
X054084Y043402D03*
X050384Y047702D03*
X049984Y048102D03*
X050384Y048502D03*
X051784Y049102D03*
X052784Y049102D03*
X053484Y050302D03*
X054684Y048002D03*
X050884Y050702D03*
X050184Y050602D03*
X049884Y051102D03*
X049284Y051102D03*
X048384Y051502D03*
X047384Y052002D03*
X047384Y052602D03*
X049384Y054102D03*
X051284Y053102D03*
X053484Y054002D03*
X048984Y049002D03*
X042584Y048002D03*
X038584Y046502D03*
X038184Y046102D03*
X037684Y048002D03*
X032784Y048002D03*
X029184Y048602D03*
X028084Y048602D03*
X027984Y048002D03*
X024584Y050402D03*
X023584Y052602D03*
X023184Y054102D03*
X022984Y055302D03*
X023784Y056102D03*
X025584Y054902D03*
X025784Y052602D03*
X020684Y051602D03*
X020684Y050902D03*
X019684Y052602D03*
X018984Y052602D03*
X020384Y054002D03*
X016984Y053002D03*
X016184Y054402D03*
X013884Y052702D03*
X012784Y052802D03*
X010684Y053402D03*
X009684Y054702D03*
X007784Y052902D03*
X006384Y052802D03*
X005884Y052502D03*
X006884Y050902D03*
X006384Y050602D03*
X007484Y050902D03*
X006984Y049002D03*
X008284Y047502D03*
X009284Y046802D03*
X010284Y045602D03*
X010984Y046002D03*
X012284Y045102D03*
X013084Y046402D03*
X014984Y048702D03*
X013884Y049002D03*
X010584Y049802D03*
X015684Y044502D03*
X016484Y044302D03*
X016884Y043502D03*
X017384Y045302D03*
X020384Y046602D03*
X019884Y048702D03*
X020484Y042702D03*
X015684Y038402D03*
X016284Y037802D03*
X017084Y037002D03*
X017084Y036402D03*
X017284Y034802D03*
X015984Y034002D03*
X015684Y032802D03*
X014384Y030902D03*
X013184Y031702D03*
X012284Y031202D03*
X011484Y032302D03*
X011484Y034102D03*
X011484Y034902D03*
X012084Y034902D03*
X010884Y034902D03*
X010484Y034102D03*
X009884Y034302D03*
X009384Y034702D03*
X006984Y035202D03*
X006484Y034702D03*
X005084Y035302D03*
X004984Y034202D03*
X005984Y033102D03*
X004884Y032602D03*
X003984Y032402D03*
X005784Y037002D03*
X007984Y038402D03*
X009484Y041002D03*
X008384Y042602D03*
X007384Y041402D03*
X010584Y043902D03*
X011684Y040402D03*
X012584Y040402D03*
X014784Y042002D03*
X015284Y040402D03*
X015584Y037002D03*
X010684Y037002D03*
X016884Y030102D03*
X015884Y029702D03*
X003384Y042302D03*
X002284Y046302D03*
X003784Y046702D03*
X004584Y047402D03*
X023184Y013302D03*
X024784Y012602D03*
X019884Y009402D03*
X012084Y011102D03*
X010084Y009402D03*
X010584Y007002D03*
X029984Y003002D03*
X030584Y003002D03*
X031484Y002602D03*
X031884Y002202D03*
X030884Y004102D03*
X033484Y005202D03*
X033884Y008102D03*
X038384Y010802D03*
X042184Y012102D03*
X044384Y010802D03*
X046684Y009502D03*
X047184Y009802D03*
X045484Y013302D03*
X046384Y014202D03*
X048284Y016002D03*
X045784Y016202D03*
X046684Y018002D03*
X046484Y018602D03*
X045684Y018402D03*
X047484Y020202D03*
X047484Y020802D03*
X047584Y021502D03*
X048384Y019802D03*
X049384Y020202D03*
X049584Y022302D03*
X052284Y022302D03*
X052984Y021602D03*
X050584Y025202D03*
X051784Y025702D03*
X052984Y027002D03*
X044984Y028402D03*
X044184Y029202D03*
X044384Y025602D03*
X044384Y021602D03*
X039484Y021602D03*
X039484Y016002D03*
X043284Y016002D03*
X043884Y016102D03*
X044084Y014602D03*
X052384Y008602D03*
X052784Y007102D03*
X054684Y004702D03*
X054084Y010802D03*
X052984Y016002D03*
M02*
