G75*
G70*
%OFA0B0*%
%FSLAX24Y24*%
%IPPOS*%
%LPD*%
%AMOC8*
5,1,8,0,0,1.08239X$1,22.5*
%
%ADD10C,0.0140*%
%ADD11OC8,0.0740*%
%ADD12C,0.0740*%
%ADD13C,0.0560*%
%ADD14R,0.0630X0.0710*%
%ADD15C,0.0200*%
%ADD16C,0.0440*%
%ADD17C,0.0100*%
D10*
X003144Y002472D02*
X003051Y002565D01*
X003144Y002472D02*
X003331Y002472D01*
X003425Y002565D01*
X003425Y002939D01*
X003331Y003032D01*
X003144Y003032D01*
X003051Y002939D01*
X003696Y002939D02*
X003789Y003032D01*
X003976Y003032D01*
X004069Y002939D01*
X004069Y002565D01*
X003976Y002472D01*
X003789Y002472D01*
X003696Y002565D01*
X004340Y002658D02*
X004340Y003032D01*
X004340Y002658D02*
X004527Y002472D01*
X004714Y002658D01*
X004714Y003032D01*
D11*
X006184Y042602D03*
X006184Y043602D03*
X006184Y044602D03*
X006184Y045602D03*
X006184Y046602D03*
X007184Y046602D03*
X007184Y045602D03*
X007184Y044602D03*
X007184Y043602D03*
X007184Y042602D03*
D12*
X007084Y055302D03*
X008084Y055302D03*
X009084Y055302D03*
X010084Y055302D03*
X006084Y055302D03*
D13*
X009384Y051302D03*
X009384Y050302D03*
D14*
X008924Y048002D03*
X010044Y048002D03*
X013824Y048002D03*
X014944Y048002D03*
X018724Y048002D03*
X019844Y048002D03*
X023624Y048002D03*
X024744Y048002D03*
X028624Y048002D03*
X029744Y048002D03*
X033424Y048002D03*
X034544Y048002D03*
X038324Y048002D03*
X039444Y048002D03*
X043224Y048002D03*
X044344Y048002D03*
X048224Y048002D03*
X049344Y048002D03*
X052924Y048002D03*
X054044Y048002D03*
X054044Y042702D03*
X052924Y042702D03*
X049344Y042702D03*
X048224Y042702D03*
X044344Y042702D03*
X043224Y042702D03*
X039444Y042702D03*
X038324Y042702D03*
X034544Y042702D03*
X033424Y042702D03*
X029744Y042702D03*
X028624Y042702D03*
X024744Y042702D03*
X023624Y042702D03*
X019844Y042702D03*
X018724Y042702D03*
X014944Y042702D03*
X013824Y042702D03*
X010144Y042602D03*
X009024Y042602D03*
X005144Y042702D03*
X004024Y042702D03*
X004024Y048002D03*
X005144Y048002D03*
X005144Y053402D03*
X004024Y053402D03*
X008924Y053402D03*
X010044Y053402D03*
X013824Y053402D03*
X014944Y053402D03*
X018724Y053402D03*
X019844Y053402D03*
X023624Y053402D03*
X024744Y053402D03*
X028624Y053402D03*
X029744Y053402D03*
X033424Y053402D03*
X034544Y053402D03*
X038324Y053402D03*
X039444Y053402D03*
X043224Y053402D03*
X044344Y053402D03*
X048224Y053402D03*
X049344Y053402D03*
X052924Y053402D03*
X054044Y053402D03*
X054044Y037002D03*
X052924Y037002D03*
X049344Y037002D03*
X048224Y037002D03*
X044344Y037002D03*
X043224Y037002D03*
X039444Y037002D03*
X038324Y037002D03*
X034544Y037002D03*
X033424Y037002D03*
X029744Y037002D03*
X028624Y037002D03*
X024744Y037002D03*
X023624Y037002D03*
X019844Y037002D03*
X018724Y037002D03*
X014944Y037002D03*
X013824Y037002D03*
X010044Y037002D03*
X008924Y037002D03*
X005144Y037002D03*
X004024Y037002D03*
X004024Y031702D03*
X005144Y031702D03*
X008924Y031702D03*
X010044Y031702D03*
X013824Y031702D03*
X014944Y031702D03*
X018724Y031702D03*
X019844Y031702D03*
X023624Y031702D03*
X024744Y031702D03*
X028624Y031702D03*
X029744Y031702D03*
X033424Y031702D03*
X034544Y031702D03*
X038324Y031702D03*
X039444Y031702D03*
X043224Y031702D03*
X044344Y031702D03*
X048224Y031702D03*
X049344Y031702D03*
X052924Y031702D03*
X054044Y031702D03*
X054044Y026302D03*
X052924Y026302D03*
X049344Y026302D03*
X048224Y026302D03*
X044344Y026302D03*
X043224Y026302D03*
X039444Y026302D03*
X038324Y026302D03*
X034544Y026302D03*
X033424Y026302D03*
X029744Y026302D03*
X028624Y026302D03*
X024744Y026302D03*
X023624Y026302D03*
X019844Y026302D03*
X018724Y026302D03*
X014944Y026302D03*
X013824Y026302D03*
X010044Y026302D03*
X008924Y026302D03*
X005144Y026302D03*
X004024Y026302D03*
X004024Y020902D03*
X005144Y020902D03*
X008924Y020902D03*
X010044Y020902D03*
X013824Y020902D03*
X014944Y020902D03*
X018724Y020902D03*
X019844Y020902D03*
X023624Y020902D03*
X024744Y020902D03*
X028624Y020902D03*
X029744Y020902D03*
X033424Y020902D03*
X034544Y020902D03*
X038324Y020902D03*
X039444Y020902D03*
X043224Y020902D03*
X044344Y020902D03*
X048224Y020902D03*
X049344Y020902D03*
X052924Y020902D03*
X054044Y020902D03*
X054044Y015302D03*
X052924Y015302D03*
X049344Y015302D03*
X048224Y015302D03*
X044344Y015302D03*
X043224Y015302D03*
X039444Y015302D03*
X038324Y015302D03*
X034544Y015302D03*
X033424Y015302D03*
X029744Y015302D03*
X028624Y015302D03*
X024744Y015302D03*
X023624Y015302D03*
X019844Y015302D03*
X018724Y015302D03*
X014944Y015302D03*
X013824Y015302D03*
X010044Y015302D03*
X008924Y015302D03*
X005144Y015302D03*
X004024Y015302D03*
X004024Y010102D03*
X005144Y010102D03*
X008924Y010102D03*
X010044Y010102D03*
X013824Y010102D03*
X014944Y010102D03*
X018724Y010102D03*
X019844Y010102D03*
X023624Y010102D03*
X024744Y010102D03*
X028624Y010102D03*
X029744Y010102D03*
X033424Y010102D03*
X034544Y010102D03*
X038324Y010102D03*
X039444Y010102D03*
X043224Y010102D03*
X044344Y010102D03*
X048224Y010102D03*
X049344Y010102D03*
X052924Y010102D03*
X054044Y010102D03*
X054044Y004502D03*
X052924Y004502D03*
X049344Y004502D03*
X048224Y004502D03*
X044344Y004502D03*
X043224Y004502D03*
X039444Y004502D03*
X038324Y004502D03*
X034544Y004502D03*
X033424Y004502D03*
X029744Y004502D03*
X028624Y004502D03*
X024744Y004502D03*
X023624Y004502D03*
X019844Y004502D03*
X018724Y004502D03*
X014944Y004502D03*
X013824Y004502D03*
X010044Y004502D03*
X008924Y004502D03*
X005144Y004502D03*
X004024Y004502D03*
D15*
X000984Y000702D02*
X000984Y056772D01*
X057076Y056772D01*
X057076Y000702D01*
X000984Y000702D01*
X000984Y000797D02*
X057076Y000797D01*
X057076Y000996D02*
X000984Y000996D01*
X000984Y001194D02*
X057076Y001194D01*
X057076Y001393D02*
X000984Y001393D01*
X000984Y001591D02*
X057076Y001591D01*
X057076Y001790D02*
X032040Y001790D01*
X031971Y001762D02*
X032133Y001829D01*
X032257Y001952D01*
X032324Y002114D01*
X032324Y002289D01*
X032257Y002451D01*
X032133Y002575D01*
X031971Y002642D01*
X031924Y002642D01*
X031924Y002689D01*
X031857Y002851D01*
X031776Y002932D01*
X042931Y002932D01*
X043035Y002829D01*
X043196Y002762D01*
X043371Y002762D01*
X043533Y002829D01*
X043657Y002952D01*
X043724Y003114D01*
X043724Y003289D01*
X043657Y003451D01*
X043606Y003502D01*
X043657Y003552D01*
X043724Y003714D01*
X043724Y003889D01*
X043685Y003982D01*
X043759Y004056D01*
X043759Y004948D01*
X043630Y005076D01*
X042818Y005076D01*
X042689Y004948D01*
X042689Y004056D01*
X042818Y003927D01*
X042859Y003927D01*
X042844Y003889D01*
X042844Y003714D01*
X042911Y003552D01*
X042962Y003502D01*
X042931Y003472D01*
X038676Y003472D01*
X038757Y003552D01*
X038824Y003714D01*
X038824Y003889D01*
X038785Y003982D01*
X038859Y004056D01*
X038859Y004948D01*
X038730Y005076D01*
X037918Y005076D01*
X037789Y004948D01*
X037789Y004056D01*
X037918Y003927D01*
X037959Y003927D01*
X037944Y003889D01*
X037944Y003714D01*
X038011Y003552D01*
X038092Y003472D01*
X030730Y003472D01*
X030658Y003442D01*
X030496Y003442D01*
X030335Y003375D01*
X030284Y003324D01*
X030233Y003375D01*
X030071Y003442D01*
X029896Y003442D01*
X029735Y003375D01*
X029631Y003272D01*
X020396Y003272D01*
X019740Y003927D01*
X020250Y003927D01*
X020379Y004056D01*
X020379Y004948D01*
X020291Y005035D01*
X020324Y005114D01*
X020324Y005289D01*
X020257Y005451D01*
X020133Y005575D01*
X019971Y005642D01*
X019796Y005642D01*
X019635Y005575D01*
X019511Y005451D01*
X019444Y005289D01*
X019444Y005114D01*
X019459Y005076D01*
X019438Y005076D01*
X019309Y004948D01*
X019309Y004358D01*
X019259Y004408D01*
X019259Y004948D01*
X019130Y005076D01*
X018740Y005076D01*
X019596Y005932D01*
X024431Y005932D01*
X024535Y005829D01*
X024601Y005801D01*
X023877Y005076D01*
X023218Y005076D01*
X023089Y004948D01*
X023089Y004056D01*
X023218Y003927D01*
X024030Y003927D01*
X024159Y004056D01*
X024159Y004595D01*
X024209Y004645D01*
X024209Y004056D01*
X024338Y003927D01*
X024359Y003927D01*
X024344Y003889D01*
X024344Y003714D01*
X024411Y003552D01*
X024535Y003429D01*
X024696Y003362D01*
X024871Y003362D01*
X025033Y003429D01*
X025157Y003552D01*
X025224Y003714D01*
X025224Y003889D01*
X025191Y003968D01*
X025279Y004056D01*
X025279Y004948D01*
X025150Y005076D01*
X024640Y005076D01*
X025496Y005932D01*
X028245Y005932D01*
X028214Y005855D01*
X028214Y005748D01*
X028214Y005072D01*
X028089Y004948D01*
X028089Y004056D01*
X028218Y003927D01*
X029030Y003927D01*
X029159Y004056D01*
X029159Y004948D01*
X029030Y005076D01*
X028791Y005076D01*
X028754Y005113D01*
X028754Y005509D01*
X028835Y005429D01*
X028996Y005362D01*
X029171Y005362D01*
X029333Y005429D01*
X029457Y005552D01*
X029524Y005714D01*
X029524Y005889D01*
X029506Y005932D01*
X029531Y005932D01*
X029635Y005829D01*
X029796Y005762D01*
X029971Y005762D01*
X030133Y005829D01*
X030257Y005952D01*
X030324Y006114D01*
X030324Y006289D01*
X030306Y006332D01*
X031431Y006332D01*
X031535Y006229D01*
X031696Y006162D01*
X031871Y006162D01*
X032033Y006229D01*
X032157Y006352D01*
X032224Y006514D01*
X032224Y006689D01*
X032206Y006732D01*
X032392Y006732D01*
X032311Y006651D01*
X032244Y006489D01*
X032244Y006314D01*
X032311Y006152D01*
X032435Y006029D01*
X032596Y005962D01*
X032771Y005962D01*
X032933Y006029D01*
X032986Y006082D01*
X033682Y006082D01*
X033735Y006029D01*
X033896Y005962D01*
X034071Y005962D01*
X034233Y006029D01*
X034286Y006082D01*
X035481Y006082D01*
X035535Y006029D01*
X035672Y005972D01*
X034777Y005076D01*
X034138Y005076D01*
X034009Y004948D01*
X034009Y004056D01*
X034138Y003927D01*
X034950Y003927D01*
X035079Y004056D01*
X035079Y004615D01*
X037796Y007332D01*
X044131Y007332D01*
X044235Y007229D01*
X044396Y007162D01*
X044571Y007162D01*
X044733Y007229D01*
X044857Y007352D01*
X044884Y007419D01*
X045144Y007160D01*
X045144Y007014D01*
X045211Y006852D01*
X045335Y006729D01*
X045496Y006662D01*
X045671Y006662D01*
X045833Y006729D01*
X045957Y006852D01*
X046024Y007014D01*
X046024Y007189D01*
X045957Y007351D01*
X045876Y007432D01*
X047731Y007432D01*
X047835Y007329D01*
X047996Y007262D01*
X048171Y007262D01*
X048333Y007329D01*
X048457Y007452D01*
X048524Y007614D01*
X048524Y007789D01*
X048465Y007932D01*
X052914Y007932D01*
X052914Y007013D01*
X052872Y006972D01*
X051530Y006972D01*
X051431Y006930D01*
X051355Y006854D01*
X049577Y005076D01*
X048938Y005076D01*
X048809Y004948D01*
X048809Y004056D01*
X048938Y003927D01*
X049750Y003927D01*
X049879Y004056D01*
X049879Y004615D01*
X051696Y006432D01*
X052714Y006432D01*
X052714Y005076D01*
X052518Y005076D01*
X052389Y004948D01*
X052389Y004056D01*
X052518Y003927D01*
X053330Y003927D01*
X053459Y004056D01*
X053459Y004948D01*
X053330Y005076D01*
X053254Y005076D01*
X053254Y006290D01*
X053537Y006573D01*
X053613Y006649D01*
X053654Y006748D01*
X053654Y008948D01*
X053654Y009055D01*
X053613Y009154D01*
X053537Y009230D01*
X053437Y009272D01*
X049806Y009272D01*
X049824Y009314D01*
X049824Y009489D01*
X049791Y009568D01*
X049879Y009656D01*
X049879Y010532D01*
X052072Y010532D01*
X052389Y010215D01*
X052389Y009656D01*
X052518Y009527D01*
X053330Y009527D01*
X053459Y009656D01*
X053459Y010548D01*
X053330Y010676D01*
X052691Y010676D01*
X052413Y010954D01*
X052337Y011030D01*
X052237Y011072D01*
X048736Y011072D01*
X048633Y011175D01*
X048471Y011242D01*
X048296Y011242D01*
X048135Y011175D01*
X048011Y011051D01*
X047944Y010889D01*
X047944Y010714D01*
X047959Y010676D01*
X047818Y010676D01*
X047689Y010548D01*
X047689Y009678D01*
X047624Y009743D01*
X047624Y009889D01*
X047557Y010051D01*
X047433Y010175D01*
X047271Y010242D01*
X047096Y010242D01*
X046935Y010175D01*
X046811Y010051D01*
X046766Y009942D01*
X046596Y009942D01*
X046435Y009875D01*
X046311Y009751D01*
X046244Y009589D01*
X046244Y009414D01*
X046311Y009252D01*
X046435Y009129D01*
X046596Y009062D01*
X046742Y009062D01*
X047782Y008022D01*
X047731Y007972D01*
X045796Y007972D01*
X044240Y009527D01*
X044750Y009527D01*
X044879Y009656D01*
X044879Y010548D01*
X044791Y010635D01*
X044824Y010714D01*
X044824Y010889D01*
X044757Y011051D01*
X044633Y011175D01*
X044471Y011242D01*
X044296Y011242D01*
X044135Y011175D01*
X044011Y011051D01*
X043944Y010889D01*
X043944Y010714D01*
X043959Y010676D01*
X043938Y010676D01*
X043809Y010548D01*
X043809Y009958D01*
X043759Y010008D01*
X043759Y010548D01*
X043630Y010676D01*
X043240Y010676D01*
X045426Y012862D01*
X045571Y012862D01*
X045733Y012929D01*
X045857Y013052D01*
X045924Y013214D01*
X045924Y013389D01*
X045857Y013551D01*
X045733Y013675D01*
X045571Y013742D01*
X045396Y013742D01*
X045235Y013675D01*
X045111Y013551D01*
X045044Y013389D01*
X045044Y013243D01*
X043854Y012053D01*
X043854Y012448D01*
X043854Y012555D01*
X043813Y012654D01*
X043737Y012730D01*
X043637Y012772D01*
X038837Y012772D01*
X038730Y012772D01*
X038631Y012730D01*
X038472Y012572D01*
X034976Y012572D01*
X035036Y012632D01*
X035937Y012632D01*
X036037Y012673D01*
X036113Y012749D01*
X038091Y014727D01*
X038730Y014727D01*
X038859Y014856D01*
X038859Y015748D01*
X038730Y015876D01*
X037918Y015876D01*
X037789Y015748D01*
X037789Y015189D01*
X035772Y013172D01*
X035036Y013172D01*
X034933Y013275D01*
X034771Y013342D01*
X034596Y013342D01*
X034435Y013275D01*
X034311Y013151D01*
X034244Y012989D01*
X034244Y012814D01*
X034311Y012652D01*
X034392Y012572D01*
X030976Y012572D01*
X031036Y012632D01*
X031037Y012632D01*
X031137Y012673D01*
X031213Y012749D01*
X033191Y014727D01*
X033830Y014727D01*
X033959Y014856D01*
X033959Y015748D01*
X033830Y015876D01*
X033018Y015876D01*
X032889Y015748D01*
X032889Y015189D01*
X030954Y013254D01*
X030933Y013275D01*
X030771Y013342D01*
X030596Y013342D01*
X030435Y013275D01*
X030311Y013151D01*
X030244Y012989D01*
X030244Y012814D01*
X030311Y012652D01*
X030392Y012572D01*
X029596Y012572D01*
X028313Y013854D01*
X028237Y013930D01*
X028137Y013972D01*
X027176Y013972D01*
X027236Y014032D01*
X027637Y014032D01*
X027737Y014073D01*
X027813Y014149D01*
X028391Y014727D01*
X029030Y014727D01*
X029159Y014856D01*
X029159Y015748D01*
X029030Y015876D01*
X028218Y015876D01*
X028089Y015748D01*
X028089Y015189D01*
X027472Y014572D01*
X027236Y014572D01*
X027133Y014675D01*
X026971Y014742D01*
X026796Y014742D01*
X026635Y014675D01*
X026511Y014551D01*
X026444Y014389D01*
X026444Y014214D01*
X026511Y014052D01*
X026592Y013972D01*
X025224Y013972D01*
X025224Y014089D01*
X025165Y014232D01*
X025837Y014232D01*
X025937Y014273D01*
X026013Y014349D01*
X027476Y015812D01*
X027596Y015762D01*
X027771Y015762D01*
X027933Y015829D01*
X028057Y015952D01*
X028124Y016114D01*
X028124Y016132D01*
X029361Y016132D01*
X029344Y016089D01*
X029344Y015914D01*
X029359Y015876D01*
X029338Y015876D01*
X029209Y015748D01*
X029209Y014856D01*
X029338Y014727D01*
X030150Y014727D01*
X030279Y014856D01*
X030279Y015748D01*
X030191Y015835D01*
X030224Y015914D01*
X030224Y016089D01*
X030206Y016132D01*
X034161Y016132D01*
X034144Y016089D01*
X034144Y015914D01*
X034159Y015876D01*
X034138Y015876D01*
X034009Y015748D01*
X034009Y014856D01*
X034138Y014727D01*
X034950Y014727D01*
X035079Y014856D01*
X035079Y015748D01*
X034991Y015835D01*
X035024Y015914D01*
X035024Y016089D01*
X035006Y016132D01*
X039061Y016132D01*
X039044Y016089D01*
X039044Y015914D01*
X039059Y015876D01*
X039038Y015876D01*
X038909Y015748D01*
X038909Y014856D01*
X039038Y014727D01*
X039850Y014727D01*
X039979Y014856D01*
X039979Y015725D01*
X041731Y013973D01*
X041830Y013932D01*
X041937Y013932D01*
X046032Y013932D01*
X046135Y013829D01*
X046204Y013800D01*
X048344Y011660D01*
X048344Y011514D01*
X048411Y011352D01*
X048535Y011229D01*
X048696Y011162D01*
X048871Y011162D01*
X049033Y011229D01*
X049157Y011352D01*
X049224Y011514D01*
X049224Y011689D01*
X049157Y011851D01*
X049033Y011975D01*
X048871Y012042D01*
X048726Y012042D01*
X046774Y013993D01*
X046824Y014114D01*
X046824Y014289D01*
X046806Y014332D01*
X048637Y014332D01*
X048737Y014373D01*
X048813Y014449D01*
X049091Y014727D01*
X049750Y014727D01*
X049879Y014856D01*
X049879Y015325D01*
X050731Y014473D01*
X050830Y014432D01*
X050937Y014432D01*
X054637Y014432D01*
X054737Y014473D01*
X054813Y014549D01*
X054854Y014648D01*
X054854Y014755D01*
X054854Y032732D01*
X056037Y032732D01*
X056137Y032773D01*
X056213Y032849D01*
X056254Y032948D01*
X056254Y033055D01*
X056254Y042455D01*
X056213Y042554D01*
X056137Y042630D01*
X052936Y045832D01*
X053537Y045832D01*
X053637Y045873D01*
X053713Y045949D01*
X053754Y046048D01*
X053754Y046155D01*
X053754Y047427D01*
X054450Y047427D01*
X054579Y047556D01*
X054579Y047569D01*
X054596Y047562D01*
X054771Y047562D01*
X054933Y047629D01*
X055057Y047752D01*
X055124Y047914D01*
X055124Y048089D01*
X055057Y048251D01*
X054933Y048375D01*
X054771Y048442D01*
X054596Y048442D01*
X054579Y048434D01*
X054579Y048448D01*
X057076Y048448D01*
X057076Y048646D02*
X053621Y048646D01*
X053637Y048630D02*
X053224Y049043D01*
X057076Y049043D01*
X057076Y048845D02*
X053422Y048845D01*
X053224Y049043D02*
X053224Y049189D01*
X053157Y049351D01*
X053036Y049472D01*
X053426Y049862D01*
X053571Y049862D01*
X053733Y049929D01*
X053857Y050052D01*
X053924Y050214D01*
X053924Y050389D01*
X053857Y050551D01*
X053733Y050675D01*
X053571Y050742D01*
X053396Y050742D01*
X053235Y050675D01*
X053111Y050551D01*
X053044Y050389D01*
X053044Y050243D01*
X052572Y049772D01*
X050336Y049772D01*
X050826Y050262D01*
X050971Y050262D01*
X051133Y050329D01*
X051257Y050452D01*
X051324Y050614D01*
X051324Y050789D01*
X051257Y050951D01*
X051133Y051075D01*
X050995Y051131D01*
X052691Y052827D01*
X053330Y052827D01*
X053459Y052956D01*
X053459Y053562D01*
X053509Y053562D01*
X053509Y052956D01*
X053638Y052827D01*
X054450Y052827D01*
X054579Y052956D01*
X054579Y053848D01*
X054450Y053976D01*
X053924Y053976D01*
X053924Y054089D01*
X053857Y054251D01*
X053733Y054375D01*
X053571Y054442D01*
X053396Y054442D01*
X053235Y054375D01*
X053111Y054251D01*
X053044Y054089D01*
X053044Y053976D01*
X052518Y053976D01*
X052389Y053848D01*
X052389Y053289D01*
X050472Y051372D01*
X050236Y051372D01*
X050133Y051475D01*
X049971Y051542D01*
X049796Y051542D01*
X049635Y051475D01*
X049584Y051424D01*
X049533Y051475D01*
X049371Y051542D01*
X049196Y051542D01*
X049035Y051475D01*
X048931Y051372D01*
X048806Y051372D01*
X048824Y051414D01*
X048824Y051589D01*
X048757Y051751D01*
X048633Y051875D01*
X048471Y051942D01*
X048296Y051942D01*
X048135Y051875D01*
X048031Y051772D01*
X044954Y051772D01*
X044954Y052055D01*
X044913Y052154D01*
X044837Y052230D01*
X044240Y052827D01*
X044750Y052827D01*
X044879Y052956D01*
X044879Y053848D01*
X044791Y053935D01*
X044824Y054014D01*
X044824Y054189D01*
X044757Y054351D01*
X044633Y054475D01*
X044471Y054542D01*
X044296Y054542D01*
X044135Y054475D01*
X044011Y054351D01*
X043944Y054189D01*
X043944Y054014D01*
X043959Y053976D01*
X043938Y053976D01*
X043809Y053848D01*
X043809Y053258D01*
X043759Y053308D01*
X043759Y053848D01*
X043630Y053976D01*
X042818Y053976D01*
X042689Y053848D01*
X042689Y053378D01*
X041337Y054730D01*
X041237Y054772D01*
X041130Y054772D01*
X032730Y054772D01*
X032631Y054730D01*
X032555Y054654D01*
X030242Y052342D01*
X030096Y052342D01*
X029954Y052283D01*
X029954Y052827D01*
X030150Y052827D01*
X030279Y052956D01*
X030279Y053848D01*
X030150Y053976D01*
X029391Y053976D01*
X029337Y054030D01*
X028637Y054730D01*
X028537Y054772D01*
X028430Y054772D01*
X026006Y054772D01*
X026024Y054814D01*
X026024Y054989D01*
X025985Y055082D01*
X029899Y055082D01*
X029911Y055052D01*
X030035Y054929D01*
X030196Y054862D01*
X030371Y054862D01*
X030533Y054929D01*
X030586Y054982D01*
X032482Y054982D01*
X032535Y054929D01*
X032696Y054862D01*
X032871Y054862D01*
X033033Y054929D01*
X033157Y055052D01*
X033224Y055214D01*
X033224Y055389D01*
X033157Y055551D01*
X033033Y055675D01*
X032871Y055742D01*
X032696Y055742D01*
X032535Y055675D01*
X032482Y055622D01*
X030586Y055622D01*
X030533Y055675D01*
X030371Y055742D01*
X030196Y055742D01*
X030148Y055722D01*
X030120Y055722D01*
X024016Y055722D01*
X024033Y055729D01*
X024157Y055852D01*
X024224Y056014D01*
X024224Y056189D01*
X024157Y056351D01*
X024033Y056475D01*
X023871Y056542D01*
X023696Y056542D01*
X023535Y056475D01*
X023433Y056373D01*
X004138Y056471D01*
X004137Y056472D01*
X004086Y056472D01*
X004031Y056472D01*
X004031Y056472D01*
X004030Y056472D01*
X003983Y056452D01*
X003932Y056431D01*
X003931Y056431D01*
X003931Y056430D01*
X003896Y056395D01*
X003856Y056356D01*
X003855Y056355D01*
X003855Y056354D01*
X003835Y056306D01*
X003814Y056257D01*
X003814Y056256D01*
X003814Y056255D01*
X003814Y056203D01*
X003814Y056149D01*
X003814Y053976D01*
X003618Y053976D01*
X003489Y053848D01*
X003489Y052956D01*
X003618Y052827D01*
X004430Y052827D01*
X004559Y052956D01*
X004559Y053848D01*
X004430Y053976D01*
X004354Y053976D01*
X004354Y055930D01*
X006250Y055921D01*
X006215Y055886D01*
X006201Y055892D01*
X005966Y055892D01*
X005750Y055802D01*
X005584Y055636D01*
X005494Y055419D01*
X005494Y055184D01*
X005584Y054967D01*
X005750Y054801D01*
X005751Y054801D02*
X004354Y054801D01*
X004354Y055000D02*
X005570Y055000D01*
X005494Y055198D02*
X004354Y055198D01*
X004354Y055397D02*
X005494Y055397D01*
X005567Y055595D02*
X004354Y055595D01*
X004354Y055794D02*
X005742Y055794D01*
X006084Y055302D02*
X006684Y055902D01*
X009484Y055902D01*
X010084Y055302D01*
X010601Y055595D02*
X022655Y055595D01*
X022611Y055551D02*
X022544Y055389D01*
X022544Y055214D01*
X022561Y055172D01*
X018830Y055172D01*
X018731Y055130D01*
X018655Y055054D01*
X017042Y053442D01*
X016896Y053442D01*
X016735Y053375D01*
X016611Y053251D01*
X016544Y053089D01*
X016544Y052914D01*
X016561Y052872D01*
X015395Y052872D01*
X015479Y052956D01*
X015479Y053315D01*
X016126Y053962D01*
X016271Y053962D01*
X016433Y054029D01*
X016557Y054152D01*
X016624Y054314D01*
X016624Y054489D01*
X016557Y054651D01*
X016433Y054775D01*
X016271Y054842D01*
X016096Y054842D01*
X015935Y054775D01*
X015811Y054651D01*
X015744Y054489D01*
X015744Y054343D01*
X015363Y053963D01*
X015350Y053976D01*
X014538Y053976D01*
X014409Y053848D01*
X014409Y053258D01*
X014359Y053308D01*
X014359Y053848D01*
X014230Y053976D01*
X013418Y053976D01*
X013289Y053848D01*
X013289Y052956D01*
X013418Y052827D01*
X014077Y052827D01*
X014455Y052449D01*
X014531Y052373D01*
X014630Y052332D01*
X018632Y052332D01*
X018735Y052229D01*
X018896Y052162D01*
X019071Y052162D01*
X019233Y052229D01*
X019334Y052329D01*
X019435Y052229D01*
X019596Y052162D01*
X019771Y052162D01*
X019933Y052229D01*
X020057Y052352D01*
X020124Y052514D01*
X020124Y052689D01*
X020067Y052827D01*
X020250Y052827D01*
X020379Y052956D01*
X020379Y053562D01*
X020471Y053562D01*
X020633Y053629D01*
X020757Y053752D01*
X020824Y053914D01*
X020824Y054089D01*
X020757Y054251D01*
X020633Y054375D01*
X020471Y054442D01*
X020296Y054442D01*
X020135Y054375D01*
X020011Y054251D01*
X019944Y054089D01*
X019944Y053976D01*
X019438Y053976D01*
X019309Y053848D01*
X019309Y053258D01*
X019259Y053308D01*
X019259Y053848D01*
X019130Y053976D01*
X018340Y053976D01*
X018996Y054632D01*
X025231Y054632D01*
X025335Y054529D01*
X025472Y054472D01*
X024977Y053976D01*
X024338Y053976D01*
X024209Y053848D01*
X024209Y052956D01*
X024338Y052827D01*
X025150Y052827D01*
X025279Y052956D01*
X025279Y053515D01*
X025996Y054232D01*
X027761Y054232D01*
X027744Y054189D01*
X027744Y054014D01*
X027811Y053852D01*
X027914Y053749D01*
X027914Y053455D01*
X027914Y053348D01*
X027955Y053249D01*
X028031Y053173D01*
X028089Y053149D01*
X028089Y052956D01*
X028218Y052827D01*
X028914Y052827D01*
X028914Y051672D01*
X028830Y051672D01*
X028731Y051630D01*
X028142Y051042D01*
X027996Y051042D01*
X027835Y050975D01*
X027711Y050851D01*
X027644Y050689D01*
X027644Y050514D01*
X027682Y050422D01*
X026616Y050422D01*
X026633Y050429D01*
X026757Y050552D01*
X026824Y050714D01*
X026824Y050889D01*
X026757Y051051D01*
X026633Y051175D01*
X026471Y051242D01*
X026296Y051242D01*
X026135Y051175D01*
X026031Y051072D01*
X021596Y051072D01*
X021124Y051543D01*
X021124Y051689D01*
X021057Y051851D01*
X020933Y051975D01*
X020771Y052042D01*
X020596Y052042D01*
X020435Y051975D01*
X020311Y051851D01*
X020244Y051689D01*
X020244Y051514D01*
X020311Y051352D01*
X020412Y051252D01*
X020311Y051151D01*
X020244Y050989D01*
X020244Y050814D01*
X020311Y050652D01*
X020435Y050529D01*
X020596Y050462D01*
X020742Y050462D01*
X022331Y048873D01*
X022430Y048832D01*
X022537Y048832D01*
X024261Y048832D01*
X024244Y048789D01*
X024244Y048614D01*
X024282Y048521D01*
X024209Y048448D01*
X024159Y048448D01*
X024030Y048576D01*
X023218Y048576D01*
X023089Y048448D01*
X022120Y048448D01*
X022318Y048249D02*
X023089Y048249D01*
X023089Y048234D02*
X023071Y048242D01*
X022896Y048242D01*
X022735Y048175D01*
X022611Y048051D01*
X022583Y047984D01*
X021237Y049330D01*
X021137Y049372D01*
X021030Y049372D01*
X017196Y049372D01*
X014337Y052230D01*
X014237Y052272D01*
X014130Y052272D01*
X010496Y052272D01*
X009940Y052827D01*
X010450Y052827D01*
X010579Y052956D01*
X010579Y052969D01*
X010596Y052962D01*
X010771Y052962D01*
X010933Y053029D01*
X011057Y053152D01*
X011124Y053314D01*
X011124Y053489D01*
X011057Y053651D01*
X010933Y053775D01*
X010771Y053842D01*
X010596Y053842D01*
X010579Y053834D01*
X010579Y053848D01*
X010450Y053976D01*
X009638Y053976D01*
X009509Y053848D01*
X009509Y053258D01*
X009459Y053308D01*
X009459Y053848D01*
X009330Y053976D01*
X008518Y053976D01*
X008389Y053848D01*
X008389Y052956D01*
X008518Y052827D01*
X009177Y052827D01*
X009932Y052072D01*
X008996Y052072D01*
X008224Y052843D01*
X008224Y052989D01*
X008157Y053151D01*
X008033Y053275D01*
X007871Y053342D01*
X007696Y053342D01*
X007535Y053275D01*
X007411Y053151D01*
X007344Y052989D01*
X007344Y052814D01*
X007411Y052652D01*
X007535Y052529D01*
X007696Y052462D01*
X007842Y052462D01*
X008655Y051649D01*
X008731Y051573D01*
X008734Y051572D01*
X007230Y051572D01*
X007131Y051530D01*
X007055Y051454D01*
X006942Y051342D01*
X006796Y051342D01*
X006635Y051275D01*
X006511Y051151D01*
X006466Y051042D01*
X006296Y051042D01*
X006135Y050975D01*
X006011Y050851D01*
X005944Y050689D01*
X005944Y050514D01*
X006011Y050352D01*
X006135Y050229D01*
X006296Y050162D01*
X006442Y050162D01*
X006455Y050149D01*
X006531Y050073D01*
X006630Y050032D01*
X008954Y050032D01*
X008960Y050018D01*
X009101Y049878D01*
X009284Y049802D01*
X009483Y049802D01*
X009667Y049878D01*
X009808Y050018D01*
X009860Y050144D01*
X010144Y049860D01*
X010144Y049714D01*
X010211Y049552D01*
X010335Y049429D01*
X010496Y049362D01*
X010671Y049362D01*
X010833Y049429D01*
X010957Y049552D01*
X011024Y049714D01*
X011024Y049889D01*
X010957Y050051D01*
X010833Y050175D01*
X010671Y050242D01*
X010526Y050242D01*
X009778Y050989D01*
X009808Y051018D01*
X009884Y051202D01*
X009884Y051401D01*
X009830Y051532D01*
X010972Y051532D01*
X013444Y049060D01*
X013444Y048914D01*
X013461Y048872D01*
X007406Y048872D01*
X007424Y048914D01*
X007424Y049089D01*
X007357Y049251D01*
X007233Y049375D01*
X007071Y049442D01*
X006896Y049442D01*
X006735Y049375D01*
X006631Y049272D01*
X003237Y049272D01*
X003130Y049272D01*
X003031Y049230D01*
X002955Y049154D01*
X002914Y049055D01*
X002914Y046572D01*
X002636Y046572D01*
X002533Y046675D01*
X002371Y046742D01*
X002196Y046742D01*
X002035Y046675D01*
X001911Y046551D01*
X001844Y046389D01*
X001844Y046214D01*
X001911Y046052D01*
X002035Y045929D01*
X002196Y045862D01*
X002371Y045862D01*
X002533Y045929D01*
X002636Y046032D01*
X003237Y046032D01*
X003337Y046073D01*
X003413Y046149D01*
X003454Y046248D01*
X003454Y046355D01*
X003454Y046409D01*
X003535Y046329D01*
X003696Y046262D01*
X003871Y046262D01*
X004033Y046329D01*
X004086Y046382D01*
X005594Y046382D01*
X005594Y046357D01*
X005849Y046102D01*
X005594Y045846D01*
X005594Y045357D01*
X005849Y045102D01*
X005594Y044846D01*
X005594Y044357D01*
X005849Y044102D01*
X005594Y043846D01*
X005594Y043357D01*
X005864Y043087D01*
X005679Y042902D01*
X005679Y043148D01*
X005550Y043276D01*
X004738Y043276D01*
X004609Y043148D01*
X004609Y042256D01*
X004738Y042127D01*
X004914Y042127D01*
X004914Y040655D01*
X004914Y040548D01*
X004955Y040449D01*
X005031Y040373D01*
X005130Y040332D01*
X011230Y040332D01*
X011232Y040332D01*
X009572Y038672D01*
X008336Y038672D01*
X008233Y038775D01*
X008071Y038842D01*
X007896Y038842D01*
X007735Y038775D01*
X007611Y038651D01*
X007544Y038489D01*
X007544Y038314D01*
X007561Y038272D01*
X003837Y038272D01*
X003730Y038272D01*
X003631Y038230D01*
X003131Y037730D01*
X003055Y037654D01*
X003014Y037555D01*
X003014Y027055D01*
X003014Y026948D01*
X003055Y026849D01*
X003131Y026773D01*
X003230Y026732D01*
X003489Y026732D01*
X003489Y025856D01*
X003618Y025727D01*
X003814Y025727D01*
X003814Y023048D01*
X003845Y022972D01*
X003237Y022972D01*
X003130Y022972D01*
X003031Y022930D01*
X001531Y021430D01*
X001455Y021354D01*
X001414Y021255D01*
X001414Y008655D01*
X001414Y008548D01*
X001455Y008449D01*
X001531Y008373D01*
X001630Y008332D01*
X001661Y008332D01*
X001644Y008289D01*
X001644Y008114D01*
X001711Y007952D01*
X001835Y007829D01*
X001996Y007762D01*
X002142Y007762D01*
X002632Y007272D01*
X002436Y007272D01*
X002333Y007375D01*
X002171Y007442D01*
X001996Y007442D01*
X001835Y007375D01*
X001711Y007251D01*
X001644Y007089D01*
X001644Y006914D01*
X001711Y006752D01*
X001835Y006629D01*
X001996Y006562D01*
X002171Y006562D01*
X002333Y006629D01*
X002436Y006732D01*
X003844Y006732D01*
X003844Y006714D01*
X003911Y006552D01*
X003957Y006506D01*
X003871Y006542D01*
X003696Y006542D01*
X003535Y006475D01*
X003411Y006351D01*
X003344Y006189D01*
X003344Y006014D01*
X003411Y005852D01*
X003535Y005729D01*
X003696Y005662D01*
X003871Y005662D01*
X004033Y005729D01*
X004136Y005832D01*
X004672Y005832D01*
X005144Y005360D01*
X005144Y005214D01*
X005201Y005076D01*
X004738Y005076D01*
X004609Y004948D01*
X004609Y004056D01*
X004738Y003927D01*
X005550Y003927D01*
X005655Y004032D01*
X007730Y004032D01*
X007837Y004032D01*
X007866Y004044D01*
X007844Y003989D01*
X007844Y003814D01*
X007911Y003652D01*
X008035Y003529D01*
X008196Y003462D01*
X008371Y003462D01*
X008533Y003529D01*
X008657Y003652D01*
X008724Y003814D01*
X008724Y003927D01*
X009259Y003927D01*
X009244Y003889D01*
X009244Y003714D01*
X009311Y003552D01*
X009435Y003429D01*
X009596Y003362D01*
X009671Y003362D01*
X009912Y003120D01*
X010002Y003030D01*
X010054Y003009D01*
X010135Y002929D01*
X010296Y002862D01*
X010471Y002862D01*
X010633Y002929D01*
X010757Y003052D01*
X010824Y003214D01*
X010824Y003380D01*
X012155Y002049D01*
X012155Y002049D01*
X012231Y001973D01*
X012330Y001932D01*
X031531Y001932D01*
X031635Y001829D01*
X031796Y001762D01*
X031971Y001762D01*
X031728Y001790D02*
X000984Y001790D01*
X000984Y001988D02*
X012215Y001988D01*
X012017Y002187D02*
X004598Y002187D01*
X004585Y002182D02*
X004691Y002226D01*
X004773Y002307D01*
X004960Y002494D01*
X005004Y002601D01*
X005004Y002716D01*
X005004Y003090D01*
X004960Y003196D01*
X004878Y003278D01*
X004771Y003322D01*
X004656Y003322D01*
X004549Y003278D01*
X004527Y003255D01*
X004504Y003278D01*
X004398Y003322D01*
X004282Y003322D01*
X004176Y003278D01*
X004158Y003260D01*
X004143Y003275D01*
X004140Y003278D01*
X004097Y003296D01*
X004034Y003322D01*
X003918Y003322D01*
X003731Y003322D01*
X003670Y003296D01*
X003625Y003278D01*
X003560Y003213D01*
X003498Y003275D01*
X003496Y003278D01*
X003496Y003278D01*
X003452Y003296D01*
X003389Y003322D01*
X003274Y003322D01*
X003087Y003322D01*
X003087Y003322D01*
X003025Y003296D01*
X002980Y003278D01*
X002899Y003196D01*
X002805Y003103D01*
X002761Y002996D01*
X002761Y002881D01*
X002805Y002774D01*
X002828Y002752D01*
X002805Y002729D01*
X002761Y002623D01*
X002761Y002507D01*
X002805Y002401D01*
X002980Y002226D01*
X003087Y002182D01*
X003202Y002182D01*
X003389Y002182D01*
X003496Y002226D01*
X003560Y002290D01*
X003625Y002226D01*
X003731Y002182D01*
X003847Y002182D01*
X004034Y002182D01*
X004140Y002226D01*
X004222Y002307D01*
X004251Y002337D01*
X004363Y002226D01*
X004469Y002182D01*
X004585Y002182D01*
X004456Y002187D02*
X004047Y002187D01*
X003718Y002187D02*
X003402Y002187D01*
X003074Y002187D02*
X000984Y002187D01*
X000984Y002386D02*
X002820Y002386D01*
X002761Y002584D02*
X000984Y002584D01*
X000984Y002783D02*
X002802Y002783D01*
X002761Y002981D02*
X000984Y002981D01*
X000984Y003180D02*
X002882Y003180D01*
X002899Y003196D02*
X002899Y003196D01*
X003731Y003322D02*
X003731Y003322D01*
X004140Y003278D02*
X004140Y003278D01*
X004430Y003927D02*
X003618Y003927D01*
X003489Y004056D01*
X003489Y004948D01*
X003618Y005076D01*
X003659Y005076D01*
X003644Y005114D01*
X003644Y005289D01*
X003711Y005451D01*
X003835Y005575D01*
X003996Y005642D01*
X004171Y005642D01*
X004333Y005575D01*
X004457Y005451D01*
X004524Y005289D01*
X004524Y005114D01*
X004485Y005021D01*
X004559Y004948D01*
X004559Y004056D01*
X004430Y003927D01*
X004477Y003974D02*
X004690Y003974D01*
X004609Y004172D02*
X004559Y004172D01*
X004559Y004371D02*
X004609Y004371D01*
X004609Y004570D02*
X004559Y004570D01*
X004559Y004768D02*
X004609Y004768D01*
X004628Y004967D02*
X004540Y004967D01*
X004524Y005165D02*
X005164Y005165D01*
X005140Y005364D02*
X004493Y005364D01*
X004345Y005562D02*
X004941Y005562D01*
X004743Y005761D02*
X004065Y005761D01*
X003822Y005562D02*
X000984Y005562D01*
X000984Y005364D02*
X003675Y005364D01*
X003644Y005165D02*
X000984Y005165D01*
X000984Y004967D02*
X003508Y004967D01*
X003489Y004768D02*
X000984Y004768D01*
X000984Y004570D02*
X003489Y004570D01*
X003489Y004371D02*
X000984Y004371D01*
X000984Y004172D02*
X003489Y004172D01*
X003571Y003974D02*
X000984Y003974D01*
X000984Y003775D02*
X007860Y003775D01*
X007844Y003974D02*
X005597Y003974D01*
X005679Y004572D02*
X005679Y004865D01*
X005833Y004929D01*
X005957Y005052D01*
X006024Y005214D01*
X006024Y005389D01*
X005957Y005551D01*
X005833Y005675D01*
X005671Y005742D01*
X005526Y005742D01*
X005013Y006254D01*
X004937Y006330D01*
X004837Y006372D01*
X004395Y006372D01*
X004533Y006429D01*
X004657Y006552D01*
X004724Y006714D01*
X004724Y006889D01*
X004674Y007010D01*
X004696Y007032D01*
X006378Y007032D01*
X006411Y006952D01*
X004698Y006952D01*
X004724Y006754D02*
X009554Y006754D01*
X009555Y006754D02*
X009472Y006672D01*
X007730Y006672D01*
X007631Y006630D01*
X007555Y006554D01*
X006742Y005742D01*
X006596Y005742D01*
X006435Y005675D01*
X006311Y005551D01*
X006244Y005389D01*
X006244Y005214D01*
X006311Y005052D01*
X006435Y004929D01*
X006596Y004862D01*
X006771Y004862D01*
X006933Y004929D01*
X007057Y005052D01*
X007124Y005214D01*
X007124Y005360D01*
X007896Y006132D01*
X008303Y006132D01*
X008244Y005989D01*
X008244Y005843D01*
X007542Y005142D01*
X007396Y005142D01*
X007235Y005075D01*
X007111Y004951D01*
X007044Y004789D01*
X007044Y004614D01*
X007061Y004572D01*
X005679Y004572D01*
X005679Y004768D02*
X007044Y004768D01*
X006971Y004967D02*
X007127Y004967D01*
X007104Y005165D02*
X007566Y005165D01*
X007764Y005364D02*
X007128Y005364D01*
X007326Y005562D02*
X007963Y005562D01*
X008161Y005761D02*
X007525Y005761D01*
X007723Y005959D02*
X008244Y005959D01*
X008084Y006702D02*
X008284Y006902D01*
X008384Y007002D01*
X010584Y007002D01*
X010714Y006952D02*
X008056Y006952D01*
X008057Y006952D02*
X008090Y007032D01*
X008530Y007032D01*
X008637Y007032D01*
X008737Y007073D01*
X008937Y007273D01*
X009013Y007349D01*
X010714Y007349D01*
X010714Y007348D02*
X010714Y006913D01*
X010672Y006872D01*
X009730Y006872D01*
X009631Y006830D01*
X009555Y006754D01*
X009555Y006754D01*
X009013Y007349D02*
X009054Y007448D01*
X009054Y007932D01*
X010714Y007932D01*
X010714Y007455D01*
X010714Y007348D01*
X010714Y007151D02*
X008815Y007151D01*
X009054Y007548D02*
X010714Y007548D01*
X010714Y007746D02*
X009054Y007746D01*
X008384Y007702D02*
X004384Y007702D01*
X004284Y007602D01*
X003284Y007602D01*
X002554Y007349D02*
X002358Y007349D01*
X002356Y007548D02*
X000984Y007548D01*
X000984Y007746D02*
X002157Y007746D01*
X001718Y007945D02*
X000984Y007945D01*
X000984Y008143D02*
X001644Y008143D01*
X001605Y008342D02*
X000984Y008342D01*
X000984Y008540D02*
X001417Y008540D01*
X001414Y008739D02*
X000984Y008739D01*
X000984Y008937D02*
X001414Y008937D01*
X001414Y009136D02*
X000984Y009136D01*
X000984Y009335D02*
X001414Y009335D01*
X001414Y009533D02*
X000984Y009533D01*
X000984Y009732D02*
X001414Y009732D01*
X001414Y009930D02*
X000984Y009930D01*
X000984Y010129D02*
X001414Y010129D01*
X001414Y010327D02*
X000984Y010327D01*
X000984Y010526D02*
X001414Y010526D01*
X001414Y010724D02*
X000984Y010724D01*
X000984Y010923D02*
X001414Y010923D01*
X001414Y011121D02*
X000984Y011121D01*
X000984Y011320D02*
X001414Y011320D01*
X001414Y011519D02*
X000984Y011519D01*
X000984Y011717D02*
X001414Y011717D01*
X001414Y011916D02*
X000984Y011916D01*
X000984Y012114D02*
X001414Y012114D01*
X001414Y012313D02*
X000984Y012313D01*
X000984Y012511D02*
X001414Y012511D01*
X001414Y012710D02*
X000984Y012710D01*
X000984Y012908D02*
X001414Y012908D01*
X001414Y013107D02*
X000984Y013107D01*
X000984Y013305D02*
X001414Y013305D01*
X001414Y013504D02*
X000984Y013504D01*
X000984Y013703D02*
X001414Y013703D01*
X001414Y013901D02*
X000984Y013901D01*
X000984Y014100D02*
X001414Y014100D01*
X001414Y014298D02*
X000984Y014298D01*
X000984Y014497D02*
X001414Y014497D01*
X001414Y014695D02*
X000984Y014695D01*
X000984Y014894D02*
X001414Y014894D01*
X001414Y015092D02*
X000984Y015092D01*
X000984Y015291D02*
X001414Y015291D01*
X001414Y015489D02*
X000984Y015489D01*
X000984Y015688D02*
X001414Y015688D01*
X001414Y015886D02*
X000984Y015886D01*
X000984Y016085D02*
X001414Y016085D01*
X001414Y016284D02*
X000984Y016284D01*
X000984Y016482D02*
X001414Y016482D01*
X001414Y016681D02*
X000984Y016681D01*
X000984Y016879D02*
X001414Y016879D01*
X001414Y017078D02*
X000984Y017078D01*
X000984Y017276D02*
X001414Y017276D01*
X001414Y017475D02*
X000984Y017475D01*
X000984Y017673D02*
X001414Y017673D01*
X001414Y017872D02*
X000984Y017872D01*
X000984Y018070D02*
X001414Y018070D01*
X001414Y018269D02*
X000984Y018269D01*
X000984Y018468D02*
X001414Y018468D01*
X001414Y018666D02*
X000984Y018666D01*
X000984Y018865D02*
X001414Y018865D01*
X001414Y019063D02*
X000984Y019063D01*
X000984Y019262D02*
X001414Y019262D01*
X001414Y019460D02*
X000984Y019460D01*
X000984Y019659D02*
X001414Y019659D01*
X001414Y019857D02*
X000984Y019857D01*
X000984Y020056D02*
X001414Y020056D01*
X001414Y020254D02*
X000984Y020254D01*
X000984Y020453D02*
X001414Y020453D01*
X001414Y020652D02*
X000984Y020652D01*
X000984Y020850D02*
X001414Y020850D01*
X001414Y021049D02*
X000984Y021049D01*
X000984Y021247D02*
X001414Y021247D01*
X001546Y021446D02*
X000984Y021446D01*
X000984Y021644D02*
X001745Y021644D01*
X001943Y021843D02*
X000984Y021843D01*
X000984Y022041D02*
X002142Y022041D01*
X002340Y022240D02*
X000984Y022240D01*
X000984Y022438D02*
X002539Y022438D01*
X002737Y022637D02*
X000984Y022637D01*
X000984Y022836D02*
X002936Y022836D01*
X003819Y023034D02*
X000984Y023034D01*
X000984Y023233D02*
X003814Y023233D01*
X003814Y023431D02*
X000984Y023431D01*
X000984Y023630D02*
X003814Y023630D01*
X003814Y023828D02*
X000984Y023828D01*
X000984Y024027D02*
X003814Y024027D01*
X003814Y024225D02*
X000984Y024225D01*
X000984Y024424D02*
X003814Y024424D01*
X003814Y024622D02*
X000984Y024622D01*
X000984Y024821D02*
X003814Y024821D01*
X003814Y025019D02*
X000984Y025019D01*
X000984Y025218D02*
X003814Y025218D01*
X003814Y025417D02*
X000984Y025417D01*
X000984Y025615D02*
X003814Y025615D01*
X003531Y025814D02*
X000984Y025814D01*
X000984Y026012D02*
X003489Y026012D01*
X003489Y026211D02*
X000984Y026211D01*
X000984Y026409D02*
X003489Y026409D01*
X003489Y026608D02*
X000984Y026608D01*
X000984Y026806D02*
X003097Y026806D01*
X003014Y027005D02*
X000984Y027005D01*
X000984Y027203D02*
X003014Y027203D01*
X003014Y027402D02*
X000984Y027402D01*
X000984Y027601D02*
X003014Y027601D01*
X003014Y027799D02*
X000984Y027799D01*
X000984Y027998D02*
X003014Y027998D01*
X003014Y028196D02*
X000984Y028196D01*
X000984Y028395D02*
X003014Y028395D01*
X003014Y028593D02*
X000984Y028593D01*
X000984Y028792D02*
X003014Y028792D01*
X003014Y028990D02*
X000984Y028990D01*
X000984Y029189D02*
X003014Y029189D01*
X003014Y029387D02*
X000984Y029387D01*
X000984Y029586D02*
X003014Y029586D01*
X003014Y029785D02*
X000984Y029785D01*
X000984Y029983D02*
X003014Y029983D01*
X003014Y030182D02*
X000984Y030182D01*
X000984Y030380D02*
X003014Y030380D01*
X003014Y030579D02*
X000984Y030579D01*
X000984Y030777D02*
X003014Y030777D01*
X003014Y030976D02*
X000984Y030976D01*
X000984Y031174D02*
X003014Y031174D01*
X003014Y031373D02*
X000984Y031373D01*
X000984Y031571D02*
X003014Y031571D01*
X003014Y031770D02*
X000984Y031770D01*
X000984Y031969D02*
X003014Y031969D01*
X003014Y032167D02*
X000984Y032167D01*
X000984Y032366D02*
X003014Y032366D01*
X003014Y032564D02*
X000984Y032564D01*
X000984Y032763D02*
X003014Y032763D01*
X003014Y032961D02*
X000984Y032961D01*
X000984Y033160D02*
X003014Y033160D01*
X003014Y033358D02*
X000984Y033358D01*
X000984Y033557D02*
X003014Y033557D01*
X003014Y033755D02*
X000984Y033755D01*
X000984Y033954D02*
X003014Y033954D01*
X003014Y034152D02*
X000984Y034152D01*
X000984Y034351D02*
X003014Y034351D01*
X003014Y034550D02*
X000984Y034550D01*
X000984Y034748D02*
X003014Y034748D01*
X003014Y034947D02*
X000984Y034947D01*
X000984Y035145D02*
X003014Y035145D01*
X003014Y035344D02*
X000984Y035344D01*
X000984Y035542D02*
X003014Y035542D01*
X003014Y035741D02*
X000984Y035741D01*
X000984Y035939D02*
X003014Y035939D01*
X003014Y036138D02*
X000984Y036138D01*
X000984Y036336D02*
X003014Y036336D01*
X003014Y036535D02*
X000984Y036535D01*
X000984Y036734D02*
X003014Y036734D01*
X003014Y036932D02*
X000984Y036932D01*
X000984Y037131D02*
X003014Y037131D01*
X003014Y037329D02*
X000984Y037329D01*
X000984Y037528D02*
X003014Y037528D01*
X003127Y037726D02*
X000984Y037726D01*
X000984Y037925D02*
X003325Y037925D01*
X003524Y038123D02*
X000984Y038123D01*
X000984Y038322D02*
X007544Y038322D01*
X007557Y038520D02*
X000984Y038520D01*
X000984Y038719D02*
X007679Y038719D01*
X008289Y038719D02*
X009619Y038719D01*
X009818Y038918D02*
X000984Y038918D01*
X000984Y039116D02*
X010016Y039116D01*
X010215Y039315D02*
X000984Y039315D01*
X000984Y039513D02*
X010414Y039513D01*
X010612Y039712D02*
X000984Y039712D01*
X000984Y039910D02*
X010811Y039910D01*
X011009Y040109D02*
X000984Y040109D01*
X000984Y040307D02*
X011208Y040307D01*
X011172Y040872D02*
X005454Y040872D01*
X005454Y042127D01*
X005550Y042127D01*
X005679Y042256D01*
X005679Y042301D01*
X005948Y042032D01*
X006184Y042032D01*
X006420Y042032D01*
X006670Y042281D01*
X006939Y042012D01*
X007392Y042012D01*
X007631Y041773D01*
X007730Y041732D01*
X007837Y041732D01*
X010537Y041732D01*
X010637Y041773D01*
X010713Y041849D01*
X011896Y043032D01*
X013289Y043032D01*
X013289Y042256D01*
X013418Y042127D01*
X013614Y042127D01*
X013614Y041555D01*
X013614Y041448D01*
X013655Y041349D01*
X013731Y041273D01*
X013830Y041232D01*
X034331Y041232D01*
X034435Y041129D01*
X034596Y041062D01*
X034771Y041062D01*
X034933Y041129D01*
X035057Y041252D01*
X035124Y041414D01*
X035124Y041589D01*
X035106Y041632D01*
X036931Y041632D01*
X037035Y041529D01*
X037196Y041462D01*
X037371Y041462D01*
X037533Y041529D01*
X037657Y041652D01*
X037724Y041814D01*
X037724Y041980D01*
X038432Y041272D01*
X038130Y041272D01*
X038031Y041230D01*
X037955Y041154D01*
X037914Y041055D01*
X037914Y040948D01*
X037914Y040713D01*
X034777Y037576D01*
X034138Y037576D01*
X034009Y037448D01*
X034009Y036672D01*
X033959Y036672D01*
X033959Y037448D01*
X033830Y037576D01*
X033018Y037576D01*
X032889Y037448D01*
X032889Y037434D01*
X032871Y037442D01*
X032696Y037442D01*
X032535Y037375D01*
X032411Y037251D01*
X032344Y037089D01*
X032344Y036972D01*
X030279Y036972D01*
X030279Y037448D01*
X030150Y037576D01*
X029624Y037576D01*
X029624Y037689D01*
X029557Y037851D01*
X029433Y037975D01*
X029271Y038042D01*
X029096Y038042D01*
X028935Y037975D01*
X028811Y037851D01*
X028744Y037689D01*
X028744Y037576D01*
X028218Y037576D01*
X028089Y037448D01*
X028089Y036556D01*
X028218Y036427D01*
X029030Y036427D01*
X029159Y036556D01*
X029159Y037162D01*
X029209Y037162D01*
X029209Y036556D01*
X029338Y036427D01*
X030150Y036427D01*
X030155Y036432D01*
X030661Y036432D01*
X030644Y036389D01*
X030644Y036214D01*
X030661Y036172D01*
X025996Y036172D01*
X025279Y036889D01*
X025279Y037448D01*
X025150Y037576D01*
X024338Y037576D01*
X024209Y037448D01*
X024209Y036556D01*
X024338Y036427D01*
X024977Y036427D01*
X025432Y035972D01*
X022406Y035972D01*
X022424Y036014D01*
X022424Y036189D01*
X022357Y036351D01*
X022233Y036475D01*
X022071Y036542D01*
X021926Y036542D01*
X020713Y037754D01*
X020637Y037830D01*
X020537Y037872D01*
X016724Y037872D01*
X016724Y037889D01*
X016657Y038051D01*
X016533Y038175D01*
X016371Y038242D01*
X016196Y038242D01*
X016072Y038190D01*
X016124Y038314D01*
X016124Y038489D01*
X016057Y038651D01*
X015933Y038775D01*
X015771Y038842D01*
X015596Y038842D01*
X015435Y038775D01*
X015311Y038651D01*
X015244Y038489D01*
X015244Y038343D01*
X014972Y038072D01*
X010636Y038072D01*
X012526Y039962D01*
X012671Y039962D01*
X012833Y040029D01*
X012957Y040152D01*
X013024Y040314D01*
X013024Y040489D01*
X013006Y040532D01*
X014861Y040532D01*
X014844Y040489D01*
X014844Y040314D01*
X014911Y040152D01*
X015035Y040029D01*
X015196Y039962D01*
X015342Y039962D01*
X016855Y038449D01*
X016931Y038373D01*
X017030Y038332D01*
X020531Y038332D01*
X020635Y038229D01*
X020796Y038162D01*
X020971Y038162D01*
X021133Y038229D01*
X021257Y038352D01*
X021324Y038514D01*
X021324Y038689D01*
X021257Y038851D01*
X021133Y038975D01*
X020971Y039042D01*
X020796Y039042D01*
X020635Y038975D01*
X020531Y038872D01*
X017196Y038872D01*
X015724Y040343D01*
X015724Y040489D01*
X015706Y040532D01*
X022572Y040532D01*
X022855Y040249D01*
X022931Y040173D01*
X023030Y040132D01*
X023031Y040132D01*
X023135Y040029D01*
X023296Y039962D01*
X023471Y039962D01*
X023633Y040029D01*
X023757Y040152D01*
X023824Y040314D01*
X023824Y040489D01*
X023757Y040651D01*
X023633Y040775D01*
X023471Y040842D01*
X023296Y040842D01*
X023135Y040775D01*
X023114Y040754D01*
X022837Y041030D01*
X022737Y041072D01*
X022630Y041072D01*
X011430Y041072D01*
X011331Y041030D01*
X011255Y040954D01*
X011172Y040872D01*
X011203Y040903D02*
X005454Y040903D01*
X005454Y041101D02*
X034500Y041101D01*
X034868Y041101D02*
X037933Y041101D01*
X037914Y040903D02*
X022964Y040903D01*
X022598Y040506D02*
X015717Y040506D01*
X015760Y040307D02*
X022796Y040307D01*
X023054Y040109D02*
X015958Y040109D01*
X016157Y039910D02*
X037111Y039910D01*
X037309Y040109D02*
X023713Y040109D01*
X023821Y040307D02*
X037508Y040307D01*
X037706Y040506D02*
X023817Y040506D01*
X023703Y040704D02*
X037905Y040704D01*
X038404Y041300D02*
X035076Y041300D01*
X035124Y041499D02*
X037107Y041499D01*
X037461Y041499D02*
X038205Y041499D01*
X038006Y041697D02*
X037675Y041697D01*
X037724Y041896D02*
X037808Y041896D01*
X036912Y039712D02*
X016355Y039712D01*
X016554Y039513D02*
X036714Y039513D01*
X036515Y039315D02*
X016753Y039315D01*
X016951Y039116D02*
X036316Y039116D01*
X036118Y038918D02*
X021190Y038918D01*
X021311Y038719D02*
X035919Y038719D01*
X035721Y038520D02*
X021324Y038520D01*
X021226Y038322D02*
X035522Y038322D01*
X035324Y038123D02*
X023815Y038123D01*
X023771Y038142D02*
X023596Y038142D01*
X023435Y038075D01*
X023311Y037951D01*
X023244Y037789D01*
X023244Y037614D01*
X023259Y037576D01*
X023218Y037576D01*
X023089Y037448D01*
X023089Y036556D01*
X023218Y036427D01*
X024030Y036427D01*
X024159Y036556D01*
X024159Y037448D01*
X024085Y037521D01*
X024124Y037614D01*
X024124Y037789D01*
X024057Y037951D01*
X023933Y038075D01*
X023771Y038142D01*
X023552Y038123D02*
X016584Y038123D01*
X016709Y037925D02*
X023300Y037925D01*
X023244Y037726D02*
X020741Y037726D01*
X020939Y037528D02*
X023169Y037528D01*
X023089Y037329D02*
X021138Y037329D01*
X021336Y037131D02*
X023089Y037131D01*
X023089Y036932D02*
X021535Y036932D01*
X021734Y036734D02*
X023089Y036734D01*
X023109Y036535D02*
X022087Y036535D01*
X022363Y036336D02*
X025067Y036336D01*
X025266Y036138D02*
X022424Y036138D01*
X024138Y036535D02*
X024229Y036535D01*
X024209Y036734D02*
X024159Y036734D01*
X024159Y036932D02*
X024209Y036932D01*
X024209Y037131D02*
X024159Y037131D01*
X024159Y037329D02*
X024209Y037329D01*
X024289Y037528D02*
X024088Y037528D01*
X024124Y037726D02*
X028759Y037726D01*
X028885Y037925D02*
X024068Y037925D01*
X025198Y037528D02*
X028169Y037528D01*
X028089Y037329D02*
X025279Y037329D01*
X025279Y037131D02*
X028089Y037131D01*
X028089Y036932D02*
X025279Y036932D01*
X025434Y036734D02*
X028089Y036734D01*
X028109Y036535D02*
X025632Y036535D01*
X025831Y036336D02*
X030644Y036336D01*
X030279Y037131D02*
X032361Y037131D01*
X032489Y037329D02*
X030279Y037329D01*
X030198Y037528D02*
X032969Y037528D01*
X033879Y037528D02*
X034089Y037528D01*
X034009Y037329D02*
X033959Y037329D01*
X033959Y037131D02*
X034009Y037131D01*
X034009Y036932D02*
X033959Y036932D01*
X033959Y036734D02*
X034009Y036734D01*
X034927Y037726D02*
X029608Y037726D01*
X029483Y037925D02*
X035125Y037925D01*
X029209Y037131D02*
X029159Y037131D01*
X029159Y036932D02*
X029209Y036932D01*
X029209Y036734D02*
X029159Y036734D01*
X029138Y036535D02*
X029229Y036535D01*
X023884Y041902D02*
X023384Y041902D01*
X022984Y042302D01*
X020577Y038918D02*
X017150Y038918D01*
X016783Y038520D02*
X016111Y038520D01*
X016124Y038322D02*
X020541Y038322D01*
X016585Y038719D02*
X015989Y038719D01*
X016386Y038918D02*
X011481Y038918D01*
X011283Y038719D02*
X015379Y038719D01*
X015257Y038520D02*
X011084Y038520D01*
X010886Y038322D02*
X015222Y038322D01*
X015024Y038123D02*
X010687Y038123D01*
X011680Y039116D02*
X016187Y039116D01*
X015989Y039315D02*
X011879Y039315D01*
X012077Y039513D02*
X015790Y039513D01*
X015592Y039712D02*
X012276Y039712D01*
X012474Y039910D02*
X015393Y039910D01*
X014954Y040109D02*
X012913Y040109D01*
X013021Y040307D02*
X014847Y040307D01*
X014851Y040506D02*
X013017Y040506D01*
X013703Y041300D02*
X005454Y041300D01*
X005454Y041499D02*
X013614Y041499D01*
X013614Y041697D02*
X005454Y041697D01*
X005454Y041896D02*
X007508Y041896D01*
X007384Y041402D02*
X007784Y041002D01*
X009484Y041002D01*
X010760Y041896D02*
X013614Y041896D01*
X013614Y042094D02*
X010958Y042094D01*
X011157Y042293D02*
X013289Y042293D01*
X013289Y042491D02*
X011355Y042491D01*
X011554Y042690D02*
X013289Y042690D01*
X013289Y042888D02*
X011752Y042888D01*
X010884Y046502D02*
X010084Y047302D01*
X008684Y047302D01*
X008384Y047002D01*
X007684Y047002D01*
X007484Y047202D01*
X006784Y047202D01*
X006184Y046602D01*
X006184Y046702D01*
X003784Y046702D01*
X003876Y046264D02*
X005687Y046264D01*
X005813Y046065D02*
X003318Y046065D01*
X003454Y046264D02*
X003691Y046264D01*
X002914Y046661D02*
X002547Y046661D01*
X002914Y046859D02*
X000984Y046859D01*
X000984Y046661D02*
X002021Y046661D01*
X001874Y046462D02*
X000984Y046462D01*
X000984Y046264D02*
X001844Y046264D01*
X001905Y046065D02*
X000984Y046065D01*
X000984Y045867D02*
X002184Y045867D01*
X002383Y045867D02*
X005614Y045867D01*
X005594Y045668D02*
X000984Y045668D01*
X000984Y045469D02*
X005594Y045469D01*
X005680Y045271D02*
X000984Y045271D01*
X000984Y045072D02*
X005820Y045072D01*
X005622Y044874D02*
X000984Y044874D01*
X000984Y044675D02*
X005594Y044675D01*
X005594Y044477D02*
X000984Y044477D01*
X000984Y044278D02*
X005673Y044278D01*
X005828Y044080D02*
X000984Y044080D01*
X000984Y043881D02*
X005629Y043881D01*
X005594Y043683D02*
X000984Y043683D01*
X000984Y043484D02*
X005594Y043484D01*
X005666Y043285D02*
X000984Y043285D01*
X000984Y043087D02*
X003489Y043087D01*
X003489Y043148D02*
X003489Y042789D01*
X003442Y042742D01*
X003296Y042742D01*
X003135Y042675D01*
X003011Y042551D01*
X002944Y042389D01*
X002944Y042214D01*
X003011Y042052D01*
X003135Y041929D01*
X003296Y041862D01*
X003471Y041862D01*
X003633Y041929D01*
X003757Y042052D01*
X003788Y042127D01*
X004430Y042127D01*
X004559Y042256D01*
X004559Y043148D01*
X004430Y043276D01*
X003618Y043276D01*
X003489Y043148D01*
X003489Y042888D02*
X000984Y042888D01*
X000984Y042690D02*
X003171Y042690D01*
X002986Y042491D02*
X000984Y042491D01*
X000984Y042293D02*
X002944Y042293D01*
X002993Y042094D02*
X000984Y042094D01*
X000984Y041896D02*
X003214Y041896D01*
X003554Y041896D02*
X004914Y041896D01*
X004914Y042094D02*
X003774Y042094D01*
X004559Y042293D02*
X004609Y042293D01*
X004609Y042491D02*
X004559Y042491D01*
X004559Y042690D02*
X004609Y042690D01*
X004609Y042888D02*
X004559Y042888D01*
X004559Y043087D02*
X004609Y043087D01*
X005679Y043087D02*
X005863Y043087D01*
X006184Y042602D02*
X007384Y041402D01*
X006857Y042094D02*
X006482Y042094D01*
X006184Y042094D02*
X006184Y042094D01*
X006184Y042032D02*
X006184Y042601D01*
X006184Y042601D01*
X006184Y042032D01*
X006184Y042293D02*
X006184Y042293D01*
X006184Y042491D02*
X006184Y042491D01*
X005885Y042094D02*
X005454Y042094D01*
X005679Y042293D02*
X005686Y042293D01*
X004914Y041697D02*
X000984Y041697D01*
X000984Y041499D02*
X004914Y041499D01*
X004914Y041300D02*
X000984Y041300D01*
X000984Y041101D02*
X004914Y041101D01*
X004914Y040903D02*
X000984Y040903D01*
X000984Y040704D02*
X004914Y040704D01*
X004931Y040506D02*
X000984Y040506D01*
X006484Y034702D02*
X009384Y034702D01*
X011365Y029432D02*
X015531Y029432D01*
X015635Y029329D01*
X015796Y029262D01*
X015971Y029262D01*
X016133Y029329D01*
X016257Y029452D01*
X016324Y029614D01*
X016324Y029789D01*
X016306Y029832D01*
X016531Y029832D01*
X016635Y029729D01*
X016796Y029662D01*
X016971Y029662D01*
X017133Y029729D01*
X017257Y029852D01*
X017324Y030014D01*
X017324Y030189D01*
X017306Y030232D01*
X018131Y030232D01*
X018235Y030129D01*
X018396Y030062D01*
X018491Y030062D01*
X018402Y029973D01*
X018312Y029883D01*
X018264Y029765D01*
X018264Y027444D01*
X018233Y027475D01*
X018071Y027542D01*
X017896Y027542D01*
X017735Y027475D01*
X017611Y027351D01*
X017544Y027189D01*
X017544Y027014D01*
X017611Y026852D01*
X017735Y026729D01*
X017896Y026662D01*
X018071Y026662D01*
X018189Y026710D01*
X018189Y025978D01*
X016537Y027630D01*
X016437Y027672D01*
X016330Y027672D01*
X013630Y027672D01*
X013531Y027630D01*
X013455Y027554D01*
X011872Y025972D01*
X010579Y025972D01*
X010579Y026748D01*
X010450Y026876D01*
X010308Y026876D01*
X010324Y026914D01*
X010324Y027089D01*
X010257Y027251D01*
X010133Y027375D01*
X009971Y027442D01*
X009796Y027442D01*
X009635Y027375D01*
X009511Y027251D01*
X009444Y027089D01*
X009444Y026914D01*
X009511Y026752D01*
X009512Y026751D01*
X009509Y026748D01*
X009509Y026142D01*
X009459Y026142D01*
X009459Y026748D01*
X009330Y026876D01*
X008518Y026876D01*
X008389Y026748D01*
X008389Y026189D01*
X007242Y025042D01*
X007096Y025042D01*
X006935Y024975D01*
X006811Y024851D01*
X006744Y024689D01*
X006744Y024514D01*
X006811Y024352D01*
X006935Y024229D01*
X007096Y024162D01*
X007271Y024162D01*
X007433Y024229D01*
X007544Y024339D01*
X007544Y024314D01*
X007611Y024152D01*
X007662Y024102D01*
X007611Y024051D01*
X007544Y023889D01*
X007544Y023842D01*
X007496Y023842D01*
X007335Y023775D01*
X007211Y023651D01*
X007144Y023489D01*
X007144Y023343D01*
X007014Y023213D01*
X006957Y023351D01*
X006833Y023475D01*
X006671Y023542D01*
X006496Y023542D01*
X006335Y023475D01*
X006231Y023372D01*
X004354Y023372D01*
X004354Y025727D01*
X004430Y025727D01*
X004559Y025856D01*
X004559Y026654D01*
X004609Y026704D01*
X004609Y025856D01*
X004738Y025727D01*
X005550Y025727D01*
X005679Y025856D01*
X005679Y026748D01*
X005591Y026835D01*
X005624Y026914D01*
X005624Y027089D01*
X005557Y027251D01*
X005433Y027375D01*
X005271Y027442D01*
X005096Y027442D01*
X004935Y027375D01*
X004811Y027251D01*
X004744Y027089D01*
X004744Y026914D01*
X004759Y026876D01*
X004738Y026876D01*
X004687Y026826D01*
X004724Y026914D01*
X004724Y027089D01*
X004657Y027251D01*
X004533Y027375D01*
X004371Y027442D01*
X004196Y027442D01*
X004035Y027375D01*
X003931Y027272D01*
X003554Y027272D01*
X003554Y028932D01*
X005261Y028932D01*
X005244Y028889D01*
X005244Y028714D01*
X005311Y028552D01*
X005435Y028429D01*
X005596Y028362D01*
X005771Y028362D01*
X005933Y028429D01*
X006036Y028532D01*
X007361Y028532D01*
X007344Y028489D01*
X007344Y028314D01*
X007411Y028152D01*
X007535Y028029D01*
X007696Y027962D01*
X007871Y027962D01*
X008033Y028029D01*
X008036Y028032D01*
X009131Y028032D01*
X009235Y027929D01*
X009396Y027862D01*
X009571Y027862D01*
X009733Y027929D01*
X009857Y028052D01*
X009924Y028214D01*
X009924Y028389D01*
X009865Y028532D01*
X010072Y028532D01*
X011344Y027260D01*
X011344Y027114D01*
X011411Y026952D01*
X011535Y026829D01*
X011696Y026762D01*
X011871Y026762D01*
X012033Y026829D01*
X012157Y026952D01*
X012224Y027114D01*
X012224Y027289D01*
X012157Y027451D01*
X012033Y027575D01*
X011871Y027642D01*
X011726Y027642D01*
X010436Y028932D01*
X010631Y028932D01*
X010735Y028829D01*
X010896Y028762D01*
X011071Y028762D01*
X011233Y028829D01*
X011357Y028952D01*
X011424Y029114D01*
X011424Y029289D01*
X011365Y029432D01*
X011383Y029387D02*
X015576Y029387D01*
X016192Y029387D02*
X018264Y029387D01*
X018264Y029189D02*
X011424Y029189D01*
X011373Y028990D02*
X018264Y028990D01*
X018264Y028792D02*
X011144Y028792D01*
X010823Y028792D02*
X010575Y028792D01*
X010774Y028593D02*
X018264Y028593D01*
X018264Y028395D02*
X010972Y028395D01*
X011171Y028196D02*
X018264Y028196D01*
X018264Y027998D02*
X011369Y027998D01*
X011568Y027799D02*
X018264Y027799D01*
X018264Y027601D02*
X016567Y027601D01*
X016765Y027402D02*
X017662Y027402D01*
X017550Y027203D02*
X016964Y027203D01*
X017162Y027005D02*
X017548Y027005D01*
X017657Y026806D02*
X017361Y026806D01*
X017559Y026608D02*
X018189Y026608D01*
X018189Y026409D02*
X017758Y026409D01*
X017956Y026211D02*
X018189Y026211D01*
X018189Y026012D02*
X018155Y026012D01*
X017984Y027102D02*
X018584Y027102D01*
X018584Y029702D01*
X019284Y030402D01*
X019284Y032102D01*
X019584Y032402D01*
X019584Y032302D01*
X021984Y032302D01*
X022384Y031902D01*
X018413Y029983D02*
X017311Y029983D01*
X017324Y030182D02*
X018181Y030182D01*
X018272Y029785D02*
X017189Y029785D01*
X016579Y029785D02*
X016324Y029785D01*
X016312Y029586D02*
X018264Y029586D01*
X018584Y027102D02*
X019984Y027102D01*
X021784Y027102D01*
X023184Y025702D01*
X027984Y025702D01*
X028384Y025302D01*
X033884Y025302D01*
X036884Y022302D01*
X049584Y022302D01*
X052284Y022302D01*
X054854Y022240D02*
X057076Y022240D01*
X057076Y022438D02*
X054854Y022438D01*
X054854Y022637D02*
X057076Y022637D01*
X057076Y022836D02*
X054854Y022836D01*
X054854Y023034D02*
X057076Y023034D01*
X057076Y023233D02*
X054854Y023233D01*
X054854Y023431D02*
X057076Y023431D01*
X057076Y023630D02*
X054854Y023630D01*
X054854Y023828D02*
X057076Y023828D01*
X057076Y024027D02*
X054854Y024027D01*
X054854Y024225D02*
X057076Y024225D01*
X057076Y024424D02*
X054854Y024424D01*
X054854Y024622D02*
X057076Y024622D01*
X057076Y024821D02*
X054854Y024821D01*
X054854Y025019D02*
X057076Y025019D01*
X057076Y025218D02*
X054854Y025218D01*
X054854Y025417D02*
X057076Y025417D01*
X057076Y025615D02*
X054854Y025615D01*
X054854Y025814D02*
X057076Y025814D01*
X057076Y026012D02*
X054854Y026012D01*
X054854Y026211D02*
X057076Y026211D01*
X057076Y026409D02*
X054854Y026409D01*
X054854Y026608D02*
X057076Y026608D01*
X057076Y026806D02*
X054854Y026806D01*
X054854Y027005D02*
X057076Y027005D01*
X057076Y027203D02*
X054854Y027203D01*
X054854Y027402D02*
X057076Y027402D01*
X057076Y027601D02*
X054854Y027601D01*
X054854Y027799D02*
X057076Y027799D01*
X057076Y027998D02*
X054854Y027998D01*
X054854Y028196D02*
X057076Y028196D01*
X057076Y028395D02*
X054854Y028395D01*
X054854Y028593D02*
X057076Y028593D01*
X057076Y028792D02*
X054854Y028792D01*
X054854Y028990D02*
X057076Y028990D01*
X057076Y029189D02*
X054854Y029189D01*
X054854Y029387D02*
X057076Y029387D01*
X057076Y029586D02*
X054854Y029586D01*
X054854Y029785D02*
X057076Y029785D01*
X057076Y029983D02*
X054854Y029983D01*
X054854Y030182D02*
X057076Y030182D01*
X057076Y030380D02*
X054854Y030380D01*
X054854Y030579D02*
X057076Y030579D01*
X057076Y030777D02*
X054854Y030777D01*
X054854Y030976D02*
X057076Y030976D01*
X057076Y031174D02*
X054854Y031174D01*
X054854Y031373D02*
X057076Y031373D01*
X057076Y031571D02*
X054854Y031571D01*
X054854Y031770D02*
X057076Y031770D01*
X057076Y031969D02*
X054854Y031969D01*
X054854Y032167D02*
X057076Y032167D01*
X057076Y032366D02*
X054854Y032366D01*
X054854Y032564D02*
X057076Y032564D01*
X057076Y032763D02*
X056113Y032763D01*
X056254Y032961D02*
X057076Y032961D01*
X057076Y033160D02*
X056254Y033160D01*
X056254Y033358D02*
X057076Y033358D01*
X057076Y033557D02*
X056254Y033557D01*
X056254Y033755D02*
X057076Y033755D01*
X057076Y033954D02*
X056254Y033954D01*
X056254Y034152D02*
X057076Y034152D01*
X057076Y034351D02*
X056254Y034351D01*
X056254Y034550D02*
X057076Y034550D01*
X057076Y034748D02*
X056254Y034748D01*
X056254Y034947D02*
X057076Y034947D01*
X057076Y035145D02*
X056254Y035145D01*
X056254Y035344D02*
X057076Y035344D01*
X057076Y035542D02*
X056254Y035542D01*
X056254Y035741D02*
X057076Y035741D01*
X057076Y035939D02*
X056254Y035939D01*
X056254Y036138D02*
X057076Y036138D01*
X057076Y036336D02*
X056254Y036336D01*
X056254Y036535D02*
X057076Y036535D01*
X057076Y036734D02*
X056254Y036734D01*
X056254Y036932D02*
X057076Y036932D01*
X057076Y037131D02*
X056254Y037131D01*
X056254Y037329D02*
X057076Y037329D01*
X057076Y037528D02*
X056254Y037528D01*
X056254Y037726D02*
X057076Y037726D01*
X057076Y037925D02*
X056254Y037925D01*
X056254Y038123D02*
X057076Y038123D01*
X057076Y038322D02*
X056254Y038322D01*
X056254Y038520D02*
X057076Y038520D01*
X057076Y038719D02*
X056254Y038719D01*
X056254Y038918D02*
X057076Y038918D01*
X057076Y039116D02*
X056254Y039116D01*
X056254Y039315D02*
X057076Y039315D01*
X057076Y039513D02*
X056254Y039513D01*
X056254Y039712D02*
X057076Y039712D01*
X057076Y039910D02*
X056254Y039910D01*
X056254Y040109D02*
X057076Y040109D01*
X057076Y040307D02*
X056254Y040307D01*
X056254Y040506D02*
X057076Y040506D01*
X057076Y040704D02*
X056254Y040704D01*
X056254Y040903D02*
X057076Y040903D01*
X057076Y041101D02*
X056254Y041101D01*
X056254Y041300D02*
X057076Y041300D01*
X057076Y041499D02*
X056254Y041499D01*
X056254Y041697D02*
X057076Y041697D01*
X057076Y041896D02*
X056254Y041896D01*
X056254Y042094D02*
X057076Y042094D01*
X057076Y042293D02*
X056254Y042293D01*
X056239Y042491D02*
X057076Y042491D01*
X057076Y042690D02*
X056077Y042690D01*
X055879Y042888D02*
X057076Y042888D01*
X057076Y043087D02*
X055680Y043087D01*
X055482Y043285D02*
X057076Y043285D01*
X057076Y043484D02*
X055283Y043484D01*
X055085Y043683D02*
X057076Y043683D01*
X057076Y043881D02*
X054886Y043881D01*
X054687Y044080D02*
X057076Y044080D01*
X057076Y044278D02*
X054489Y044278D01*
X054290Y044477D02*
X057076Y044477D01*
X057076Y044675D02*
X054092Y044675D01*
X053893Y044874D02*
X057076Y044874D01*
X057076Y045072D02*
X053695Y045072D01*
X053496Y045271D02*
X057076Y045271D01*
X057076Y045469D02*
X053298Y045469D01*
X053099Y045668D02*
X057076Y045668D01*
X057076Y045867D02*
X053622Y045867D01*
X053754Y046065D02*
X057076Y046065D01*
X057076Y046264D02*
X053754Y046264D01*
X053754Y046462D02*
X057076Y046462D01*
X057076Y046661D02*
X053754Y046661D01*
X053754Y046859D02*
X057076Y046859D01*
X057076Y047058D02*
X053754Y047058D01*
X053754Y047256D02*
X057076Y047256D01*
X057076Y047455D02*
X054478Y047455D01*
X054958Y047653D02*
X057076Y047653D01*
X057076Y047852D02*
X055098Y047852D01*
X055124Y048051D02*
X057076Y048051D01*
X057076Y048249D02*
X055058Y048249D01*
X054579Y048448D02*
X054450Y048576D01*
X053691Y048576D01*
X053637Y048630D01*
X053202Y049242D02*
X057076Y049242D01*
X057076Y049440D02*
X053067Y049440D01*
X053203Y049639D02*
X057076Y049639D01*
X057076Y049837D02*
X053401Y049837D01*
X053840Y050036D02*
X057076Y050036D01*
X057076Y050234D02*
X053924Y050234D01*
X053906Y050433D02*
X057076Y050433D01*
X057076Y050632D02*
X053776Y050632D01*
X053192Y050632D02*
X051324Y050632D01*
X051307Y050830D02*
X057076Y050830D01*
X057076Y051029D02*
X051179Y051029D01*
X051091Y051227D02*
X057076Y051227D01*
X057076Y051426D02*
X051290Y051426D01*
X051488Y051624D02*
X057076Y051624D01*
X057076Y051823D02*
X051687Y051823D01*
X051885Y052021D02*
X057076Y052021D01*
X057076Y052220D02*
X052084Y052220D01*
X052282Y052418D02*
X057076Y052418D01*
X057076Y052617D02*
X052481Y052617D01*
X052680Y052816D02*
X057076Y052816D01*
X057076Y053014D02*
X054579Y053014D01*
X054579Y053213D02*
X057076Y053213D01*
X057076Y053411D02*
X054579Y053411D01*
X054579Y053610D02*
X057076Y053610D01*
X057076Y053808D02*
X054579Y053808D01*
X053924Y054007D02*
X057076Y054007D01*
X057076Y054205D02*
X053876Y054205D01*
X053662Y054404D02*
X057076Y054404D01*
X057076Y054602D02*
X041465Y054602D01*
X041663Y054404D02*
X044064Y054404D01*
X043951Y054205D02*
X041862Y054205D01*
X042060Y054007D02*
X043947Y054007D01*
X043809Y053808D02*
X043759Y053808D01*
X043759Y053610D02*
X043809Y053610D01*
X043809Y053411D02*
X043759Y053411D01*
X044252Y052816D02*
X046996Y052816D01*
X047011Y052851D02*
X046944Y052689D01*
X046944Y052514D01*
X047011Y052352D01*
X047135Y052229D01*
X047296Y052162D01*
X047471Y052162D01*
X047633Y052229D01*
X047757Y052352D01*
X047824Y052514D01*
X047824Y052660D01*
X047991Y052827D01*
X048630Y052827D01*
X048759Y052956D01*
X048759Y053848D01*
X048630Y053976D01*
X047818Y053976D01*
X047689Y053848D01*
X047689Y053289D01*
X047442Y053042D01*
X047296Y053042D01*
X047135Y052975D01*
X047011Y052851D01*
X046944Y052617D02*
X044450Y052617D01*
X044649Y052418D02*
X046983Y052418D01*
X047155Y052220D02*
X044847Y052220D01*
X044954Y052021D02*
X051122Y052021D01*
X050923Y051823D02*
X048685Y051823D01*
X048809Y051624D02*
X050725Y051624D01*
X050526Y051426D02*
X050182Y051426D01*
X050184Y052002D02*
X047384Y052002D01*
X045084Y052002D01*
X044954Y051823D02*
X048083Y051823D01*
X047612Y052220D02*
X051320Y052220D01*
X051519Y052418D02*
X047784Y052418D01*
X047824Y052617D02*
X051717Y052617D01*
X051916Y052816D02*
X047980Y052816D01*
X047613Y053213D02*
X044879Y053213D01*
X044879Y053411D02*
X047689Y053411D01*
X047689Y053610D02*
X044879Y053610D01*
X044879Y053808D02*
X047689Y053808D01*
X047230Y053014D02*
X044879Y053014D01*
X044821Y054007D02*
X048947Y054007D01*
X048944Y054014D02*
X048959Y053976D01*
X048938Y053976D01*
X048809Y053848D01*
X048809Y052956D01*
X048938Y052827D01*
X049750Y052827D01*
X049879Y052956D01*
X049879Y053848D01*
X049791Y053935D01*
X049824Y054014D01*
X049824Y054189D01*
X049757Y054351D01*
X049633Y054475D01*
X049471Y054542D01*
X049296Y054542D01*
X049135Y054475D01*
X049011Y054351D01*
X048944Y054189D01*
X048944Y054014D01*
X048951Y054205D02*
X044817Y054205D01*
X044704Y054404D02*
X049064Y054404D01*
X048809Y053808D02*
X048759Y053808D01*
X048759Y053610D02*
X048809Y053610D01*
X048809Y053411D02*
X048759Y053411D01*
X048759Y053213D02*
X048809Y053213D01*
X048809Y053014D02*
X048759Y053014D01*
X049879Y053014D02*
X052114Y053014D01*
X052313Y053213D02*
X049879Y053213D01*
X049879Y053411D02*
X052389Y053411D01*
X052389Y053610D02*
X049879Y053610D01*
X049879Y053808D02*
X052389Y053808D01*
X053044Y054007D02*
X049821Y054007D01*
X049817Y054205D02*
X053092Y054205D01*
X053305Y054404D02*
X049704Y054404D01*
X051284Y053102D02*
X050184Y052002D01*
X049586Y051426D02*
X049582Y051426D01*
X048986Y051426D02*
X048824Y051426D01*
X050401Y049837D02*
X052638Y049837D01*
X052836Y050036D02*
X050600Y050036D01*
X050798Y050234D02*
X053035Y050234D01*
X053062Y050433D02*
X051237Y050433D01*
X051784Y049102D02*
X051684Y049002D01*
X048984Y049002D01*
X044584Y049002D01*
X044144Y049043D02*
X038507Y049043D01*
X038696Y049232D02*
X044203Y049232D01*
X044144Y049089D01*
X044144Y048914D01*
X044161Y048872D01*
X040030Y048872D01*
X039931Y048830D01*
X039855Y048754D01*
X039677Y048576D01*
X039038Y048576D01*
X038909Y048448D01*
X038859Y048448D01*
X038730Y048576D01*
X038040Y048576D01*
X038696Y049232D01*
X038309Y048845D02*
X039965Y048845D01*
X039747Y048646D02*
X038110Y048646D01*
X037283Y047819D02*
X037311Y047752D01*
X037435Y047629D01*
X037596Y047562D01*
X037771Y047562D01*
X037789Y047569D01*
X037789Y047556D01*
X037918Y047427D01*
X038730Y047427D01*
X038859Y047556D01*
X038859Y048448D01*
X038909Y048448D02*
X038909Y047556D01*
X039038Y047427D01*
X039850Y047427D01*
X039979Y047556D01*
X039979Y048115D01*
X040196Y048332D01*
X042292Y048332D01*
X042211Y048251D01*
X042144Y048089D01*
X042144Y047914D01*
X042211Y047752D01*
X042335Y047629D01*
X042496Y047562D01*
X042671Y047562D01*
X042689Y047569D01*
X042689Y047556D01*
X042818Y047427D01*
X043630Y047427D01*
X043759Y047556D01*
X043759Y048332D01*
X043809Y048332D01*
X043809Y047556D01*
X043938Y047427D01*
X044750Y047427D01*
X044879Y047556D01*
X044879Y047932D01*
X045031Y047932D01*
X045135Y047829D01*
X045296Y047762D01*
X045471Y047762D01*
X045633Y047829D01*
X045757Y047952D01*
X045824Y048114D01*
X045824Y048289D01*
X045806Y048332D01*
X047292Y048332D01*
X047211Y048251D01*
X047144Y048089D01*
X047144Y047914D01*
X047211Y047752D01*
X047335Y047629D01*
X047496Y047562D01*
X047522Y047562D01*
X047511Y047551D01*
X047444Y047389D01*
X047444Y047243D01*
X047372Y047172D01*
X046136Y047172D01*
X046033Y047275D01*
X045871Y047342D01*
X045696Y047342D01*
X045535Y047275D01*
X045411Y047151D01*
X045344Y046989D01*
X045344Y046814D01*
X045361Y046772D01*
X038936Y046772D01*
X038833Y046875D01*
X038671Y046942D01*
X038496Y046942D01*
X038335Y046875D01*
X038211Y046751D01*
X038144Y046589D01*
X038144Y046542D01*
X038096Y046542D01*
X037935Y046475D01*
X037811Y046351D01*
X037744Y046189D01*
X037744Y046014D01*
X037761Y045972D01*
X028924Y045972D01*
X028924Y045989D01*
X028906Y046032D01*
X035330Y046032D01*
X035437Y046032D01*
X035537Y046073D01*
X037283Y047819D01*
X037410Y047653D02*
X037117Y047653D01*
X036919Y047455D02*
X037890Y047455D01*
X038319Y046859D02*
X036323Y046859D01*
X036125Y046661D02*
X038173Y046661D01*
X037922Y046462D02*
X035926Y046462D01*
X035728Y046264D02*
X037775Y046264D01*
X037744Y046065D02*
X035518Y046065D01*
X036522Y047058D02*
X045372Y047058D01*
X045344Y046859D02*
X038848Y046859D01*
X038758Y047455D02*
X039009Y047455D01*
X038909Y047653D02*
X038859Y047653D01*
X038859Y047852D02*
X038909Y047852D01*
X038909Y048051D02*
X038859Y048051D01*
X038859Y048249D02*
X038909Y048249D01*
X039979Y048051D02*
X042144Y048051D01*
X042169Y047852D02*
X039979Y047852D01*
X039979Y047653D02*
X042310Y047653D01*
X042790Y047455D02*
X039878Y047455D01*
X040113Y048249D02*
X042210Y048249D01*
X043759Y048249D02*
X043809Y048249D01*
X043809Y048051D02*
X043759Y048051D01*
X043759Y047852D02*
X043809Y047852D01*
X043809Y047653D02*
X043759Y047653D01*
X043658Y047455D02*
X043909Y047455D01*
X044778Y047455D02*
X047471Y047455D01*
X047444Y047256D02*
X046051Y047256D01*
X045516Y047256D02*
X036720Y047256D01*
X030914Y053014D02*
X030279Y053014D01*
X030279Y053213D02*
X031113Y053213D01*
X031312Y053411D02*
X030279Y053411D01*
X030279Y053610D02*
X031510Y053610D01*
X031709Y053808D02*
X030279Y053808D01*
X029360Y054007D02*
X031907Y054007D01*
X032106Y054205D02*
X029162Y054205D01*
X028963Y054404D02*
X032304Y054404D01*
X032503Y054602D02*
X028765Y054602D01*
X027751Y054205D02*
X025969Y054205D01*
X025771Y054007D02*
X027747Y054007D01*
X027855Y053808D02*
X025572Y053808D01*
X025374Y053610D02*
X027914Y053610D01*
X027914Y053411D02*
X025279Y053411D01*
X025279Y053213D02*
X027991Y053213D01*
X028089Y053014D02*
X025279Y053014D01*
X025784Y052602D02*
X023584Y052602D01*
X023084Y052102D01*
X014484Y052102D01*
X013884Y052702D01*
X013784Y052802D01*
X012784Y052802D01*
X010884Y054702D01*
X009684Y054702D01*
X008884Y054702D01*
X006484Y052302D01*
X006084Y052302D01*
X005884Y052502D01*
X006011Y052552D02*
X006135Y052429D01*
X006296Y052362D01*
X006471Y052362D01*
X006633Y052429D01*
X006757Y052552D01*
X006824Y052714D01*
X006824Y052889D01*
X006757Y053051D01*
X006633Y053175D01*
X006471Y053242D01*
X006326Y053242D01*
X006013Y053554D01*
X005937Y053630D01*
X005837Y053672D01*
X005679Y053672D01*
X005679Y053848D01*
X005550Y053976D01*
X004738Y053976D01*
X004609Y053848D01*
X004609Y052956D01*
X004738Y052827D01*
X005550Y052827D01*
X005679Y052956D01*
X005679Y053125D01*
X005944Y052860D01*
X005944Y052714D01*
X006011Y052552D01*
X005984Y052617D02*
X000984Y052617D01*
X000984Y052816D02*
X005944Y052816D01*
X005789Y053014D02*
X005679Y053014D01*
X006156Y053411D02*
X008389Y053411D01*
X008389Y053213D02*
X008095Y053213D01*
X008213Y053014D02*
X008389Y053014D01*
X008252Y052816D02*
X009188Y052816D01*
X009386Y052617D02*
X008450Y052617D01*
X008649Y052418D02*
X009585Y052418D01*
X009784Y052220D02*
X008847Y052220D01*
X008481Y051823D02*
X000984Y051823D01*
X000984Y052021D02*
X008282Y052021D01*
X008084Y052220D02*
X000984Y052220D01*
X000984Y052418D02*
X006159Y052418D01*
X006609Y052418D02*
X007885Y052418D01*
X007446Y052617D02*
X006784Y052617D01*
X006824Y052816D02*
X007344Y052816D01*
X007354Y053014D02*
X006772Y053014D01*
X006541Y053213D02*
X007473Y053213D01*
X008389Y053610D02*
X005957Y053610D01*
X005679Y053808D02*
X008389Y053808D01*
X008201Y054712D02*
X007966Y054712D01*
X007750Y054801D01*
X007751Y054801D02*
X007357Y054801D01*
X007383Y054814D02*
X007455Y054867D01*
X007519Y054930D01*
X007570Y055001D01*
X007584Y054967D01*
X007750Y054801D01*
X007684Y054702D02*
X007084Y055302D01*
X007084Y055301D02*
X007084Y054732D01*
X007129Y054732D01*
X007217Y054746D01*
X007303Y054773D01*
X007383Y054814D01*
X007569Y055000D02*
X007570Y055000D01*
X007684Y054702D02*
X008884Y054702D01*
X008966Y054712D02*
X009201Y054712D01*
X009418Y054801D01*
X009584Y054967D01*
X009750Y054801D01*
X009751Y054801D02*
X009417Y054801D01*
X009750Y054801D02*
X009966Y054712D01*
X010201Y054712D01*
X010418Y054801D01*
X010584Y054967D01*
X010674Y055184D01*
X010674Y055419D01*
X010584Y055636D01*
X010418Y055802D01*
X010201Y055892D01*
X009966Y055892D01*
X009952Y055886D01*
X009936Y055902D01*
X023430Y055833D01*
X023535Y055729D01*
X023552Y055722D01*
X023120Y055722D01*
X023071Y055742D01*
X022896Y055742D01*
X022735Y055675D01*
X022611Y055551D01*
X022547Y055397D02*
X010674Y055397D01*
X010674Y055198D02*
X022550Y055198D01*
X022984Y055302D02*
X023084Y055402D01*
X030184Y055402D01*
X030284Y055302D01*
X032784Y055302D01*
X033112Y055595D02*
X057076Y055595D01*
X057076Y055397D02*
X033221Y055397D01*
X033217Y055198D02*
X057076Y055198D01*
X057076Y055000D02*
X033104Y055000D01*
X030716Y052816D02*
X029954Y052816D01*
X029954Y052617D02*
X030517Y052617D01*
X030319Y052418D02*
X029954Y052418D01*
X028914Y052418D02*
X020084Y052418D01*
X020124Y052617D02*
X028914Y052617D01*
X028784Y052602D02*
X025784Y052602D01*
X026262Y051227D02*
X021440Y051227D01*
X021241Y051426D02*
X028526Y051426D01*
X028725Y051624D02*
X021124Y051624D01*
X021068Y051823D02*
X028914Y051823D01*
X028914Y052021D02*
X020820Y052021D01*
X020548Y052021D02*
X014546Y052021D01*
X014744Y051823D02*
X020299Y051823D01*
X020244Y051624D02*
X014943Y051624D01*
X015141Y051426D02*
X020280Y051426D01*
X020387Y051227D02*
X015340Y051227D01*
X015538Y051029D02*
X020260Y051029D01*
X020244Y050830D02*
X015737Y050830D01*
X015936Y050632D02*
X020331Y050632D01*
X020770Y050433D02*
X016134Y050433D01*
X016333Y050234D02*
X020969Y050234D01*
X021168Y050036D02*
X016531Y050036D01*
X016730Y049837D02*
X021366Y049837D01*
X021565Y049639D02*
X016928Y049639D01*
X017127Y049440D02*
X021763Y049440D01*
X021962Y049242D02*
X021325Y049242D01*
X021524Y049043D02*
X022160Y049043D01*
X022398Y048845D02*
X021722Y048845D01*
X021921Y048646D02*
X024244Y048646D01*
X024209Y048448D02*
X024209Y047672D01*
X024159Y047672D01*
X024159Y048448D01*
X024159Y048249D02*
X024209Y048249D01*
X024209Y048051D02*
X024159Y048051D01*
X024159Y047852D02*
X024209Y047852D01*
X023089Y048234D02*
X023089Y048448D01*
X022611Y048051D02*
X022517Y048051D01*
X025984Y050102D02*
X028984Y050102D01*
X028328Y051227D02*
X026506Y051227D01*
X026766Y051029D02*
X027965Y051029D01*
X027702Y050830D02*
X026824Y050830D01*
X026790Y050632D02*
X027644Y050632D01*
X027677Y050433D02*
X026637Y050433D01*
X028914Y052220D02*
X019912Y052220D01*
X019455Y052220D02*
X019212Y052220D01*
X018755Y052220D02*
X014347Y052220D01*
X014485Y052418D02*
X010349Y052418D01*
X010150Y052617D02*
X014286Y052617D01*
X014088Y052816D02*
X009952Y052816D01*
X009509Y053411D02*
X009459Y053411D01*
X009459Y053610D02*
X009509Y053610D01*
X009509Y053808D02*
X009459Y053808D01*
X008966Y054712D02*
X008750Y054801D01*
X008751Y054801D02*
X008417Y054801D01*
X008418Y054801D02*
X008584Y054967D01*
X008750Y054801D01*
X008418Y054801D02*
X008201Y054712D01*
X007084Y054732D02*
X007084Y055301D01*
X007084Y055301D01*
X007084Y055198D02*
X007084Y055198D01*
X007084Y055000D02*
X007084Y055000D01*
X007084Y054801D02*
X007084Y054801D01*
X007084Y054732D02*
X007039Y054732D01*
X006950Y054746D01*
X006865Y054773D01*
X006785Y054814D01*
X006712Y054867D01*
X006649Y054930D01*
X006598Y055001D01*
X006584Y054967D01*
X006418Y054801D01*
X006201Y054712D01*
X005966Y054712D01*
X005750Y054801D01*
X006417Y054801D02*
X006811Y054801D01*
X006599Y055000D02*
X006597Y055000D01*
X004354Y054602D02*
X015791Y054602D01*
X015744Y054404D02*
X004354Y054404D01*
X004354Y054205D02*
X015606Y054205D01*
X015407Y054007D02*
X004354Y054007D01*
X004559Y053808D02*
X004609Y053808D01*
X004609Y053610D02*
X004559Y053610D01*
X004559Y053411D02*
X004609Y053411D01*
X004609Y053213D02*
X004559Y053213D01*
X004559Y053014D02*
X004609Y053014D01*
X003489Y053014D02*
X000984Y053014D01*
X000984Y053213D02*
X003489Y053213D01*
X003489Y053411D02*
X000984Y053411D01*
X000984Y053610D02*
X003489Y053610D01*
X003489Y053808D02*
X000984Y053808D01*
X000984Y054007D02*
X003814Y054007D01*
X003814Y054205D02*
X000984Y054205D01*
X000984Y054404D02*
X003814Y054404D01*
X003814Y054602D02*
X000984Y054602D01*
X000984Y054801D02*
X003814Y054801D01*
X003814Y055000D02*
X000984Y055000D01*
X000984Y055198D02*
X003814Y055198D01*
X003814Y055397D02*
X000984Y055397D01*
X000984Y055595D02*
X003814Y055595D01*
X003814Y055794D02*
X000984Y055794D01*
X000984Y055992D02*
X003814Y055992D01*
X003814Y056149D02*
X003814Y056149D01*
X003814Y056191D02*
X000984Y056191D01*
X000984Y056389D02*
X003890Y056389D01*
X000984Y056588D02*
X057076Y056588D01*
X057076Y056389D02*
X024118Y056389D01*
X024223Y056191D02*
X057076Y056191D01*
X057076Y055992D02*
X024215Y055992D01*
X024098Y055794D02*
X057076Y055794D01*
X057076Y054801D02*
X026018Y054801D01*
X026019Y055000D02*
X029964Y055000D01*
X028914Y052816D02*
X020071Y052816D01*
X020379Y053014D02*
X023089Y053014D01*
X023089Y052956D02*
X023089Y053149D01*
X023031Y053173D01*
X022955Y053249D01*
X022914Y053348D01*
X022914Y053455D01*
X022914Y053749D01*
X022811Y053852D01*
X022744Y054014D01*
X022744Y054189D01*
X022811Y054351D01*
X022935Y054475D01*
X023096Y054542D01*
X023271Y054542D01*
X023433Y054475D01*
X023557Y054351D01*
X023624Y054189D01*
X023624Y054014D01*
X023608Y053976D01*
X024030Y053976D01*
X024159Y053848D01*
X024159Y052956D01*
X024030Y052827D01*
X023218Y052827D01*
X023089Y052956D01*
X022991Y053213D02*
X020379Y053213D01*
X020379Y053411D02*
X022914Y053411D01*
X022914Y053610D02*
X020588Y053610D01*
X020780Y053808D02*
X022855Y053808D01*
X022747Y054007D02*
X020824Y054007D01*
X020776Y054205D02*
X022751Y054205D01*
X022864Y054404D02*
X020562Y054404D01*
X020205Y054404D02*
X018768Y054404D01*
X018966Y054602D02*
X025261Y054602D01*
X025404Y054404D02*
X023504Y054404D01*
X023617Y054205D02*
X025206Y054205D01*
X025007Y054007D02*
X023621Y054007D01*
X024159Y053808D02*
X024209Y053808D01*
X024209Y053610D02*
X024159Y053610D01*
X024159Y053411D02*
X024209Y053411D01*
X024209Y053213D02*
X024159Y053213D01*
X024159Y053014D02*
X024209Y053014D01*
X023469Y055794D02*
X010426Y055794D01*
X010597Y055000D02*
X018600Y055000D01*
X018401Y054801D02*
X016369Y054801D01*
X016577Y054602D02*
X018203Y054602D01*
X018004Y054404D02*
X016624Y054404D01*
X016579Y054205D02*
X017806Y054205D01*
X017607Y054007D02*
X016381Y054007D01*
X015972Y053808D02*
X017409Y053808D01*
X017210Y053610D02*
X015774Y053610D01*
X015575Y053411D02*
X016823Y053411D01*
X016595Y053213D02*
X015479Y053213D01*
X015479Y053014D02*
X016544Y053014D01*
X015998Y054801D02*
X010417Y054801D01*
X010852Y053808D02*
X013289Y053808D01*
X013289Y053610D02*
X011074Y053610D01*
X011124Y053411D02*
X013289Y053411D01*
X013289Y053213D02*
X011082Y053213D01*
X010898Y053014D02*
X013289Y053014D01*
X014359Y053411D02*
X014409Y053411D01*
X014409Y053610D02*
X014359Y053610D01*
X014359Y053808D02*
X014409Y053808D01*
X011475Y051029D02*
X009812Y051029D01*
X009884Y051227D02*
X011276Y051227D01*
X011078Y051426D02*
X009874Y051426D01*
X009937Y050830D02*
X011673Y050830D01*
X011872Y050632D02*
X010136Y050632D01*
X010334Y050433D02*
X012070Y050433D01*
X012269Y050234D02*
X010688Y050234D01*
X010963Y050036D02*
X012468Y050036D01*
X012666Y049837D02*
X011024Y049837D01*
X010993Y049639D02*
X012865Y049639D01*
X013063Y049440D02*
X010845Y049440D01*
X010323Y049440D02*
X007074Y049440D01*
X006893Y049440D02*
X000984Y049440D01*
X000984Y049242D02*
X003058Y049242D01*
X002914Y049043D02*
X000984Y049043D01*
X000984Y048845D02*
X002914Y048845D01*
X002914Y048646D02*
X000984Y048646D01*
X000984Y048448D02*
X002914Y048448D01*
X002914Y048249D02*
X000984Y048249D01*
X000984Y048051D02*
X002914Y048051D01*
X002914Y047852D02*
X000984Y047852D01*
X000984Y047653D02*
X002914Y047653D01*
X002914Y047455D02*
X000984Y047455D01*
X000984Y047256D02*
X002914Y047256D01*
X002914Y047058D02*
X000984Y047058D01*
X000984Y049639D02*
X010175Y049639D01*
X010144Y049837D02*
X009570Y049837D01*
X009815Y050036D02*
X009968Y050036D01*
X009198Y049837D02*
X000984Y049837D01*
X000984Y050036D02*
X006619Y050036D01*
X006129Y050234D02*
X000984Y050234D01*
X000984Y050433D02*
X005977Y050433D01*
X005944Y050632D02*
X000984Y050632D01*
X000984Y050830D02*
X006002Y050830D01*
X006265Y051029D02*
X000984Y051029D01*
X000984Y051227D02*
X006587Y051227D01*
X007026Y051426D02*
X000984Y051426D01*
X000984Y051624D02*
X008679Y051624D01*
X007361Y049242D02*
X013262Y049242D01*
X013444Y049043D02*
X007424Y049043D01*
X010884Y046502D02*
X012984Y046502D01*
X013084Y046402D01*
X019259Y053411D02*
X019309Y053411D01*
X019309Y053610D02*
X019259Y053610D01*
X019259Y053808D02*
X019309Y053808D01*
X019944Y054007D02*
X018371Y054007D01*
X018569Y054205D02*
X019992Y054205D01*
X020277Y056389D02*
X023449Y056389D01*
X042259Y053808D02*
X042689Y053808D01*
X042689Y053610D02*
X042457Y053610D01*
X042656Y053411D02*
X042689Y053411D01*
X044879Y047852D02*
X045111Y047852D01*
X044879Y047653D02*
X047310Y047653D01*
X047169Y047852D02*
X045656Y047852D01*
X045797Y048051D02*
X047144Y048051D01*
X047210Y048249D02*
X045824Y048249D01*
X044884Y047402D02*
X046784Y047402D01*
X046884Y047302D01*
X046784Y043402D02*
X043984Y043402D01*
X046784Y043402D02*
X046884Y043302D01*
X048784Y043302D01*
X048984Y043502D01*
X051584Y043502D01*
X051784Y043702D01*
X051784Y043602D01*
X051984Y043402D01*
X054084Y043402D01*
X053509Y053014D02*
X053459Y053014D01*
X053459Y053213D02*
X053509Y053213D01*
X053509Y053411D02*
X053459Y053411D01*
X046984Y032302D02*
X042684Y032302D01*
X054854Y022041D02*
X057076Y022041D01*
X057076Y021843D02*
X054854Y021843D01*
X054854Y021644D02*
X057076Y021644D01*
X057076Y021446D02*
X054854Y021446D01*
X054854Y021247D02*
X057076Y021247D01*
X057076Y021049D02*
X054854Y021049D01*
X054854Y020850D02*
X057076Y020850D01*
X057076Y020652D02*
X054854Y020652D01*
X054854Y020453D02*
X057076Y020453D01*
X057076Y020254D02*
X054854Y020254D01*
X054854Y020056D02*
X057076Y020056D01*
X057076Y019857D02*
X054854Y019857D01*
X054854Y019659D02*
X057076Y019659D01*
X057076Y019460D02*
X054854Y019460D01*
X054854Y019262D02*
X057076Y019262D01*
X057076Y019063D02*
X054854Y019063D01*
X054854Y018865D02*
X057076Y018865D01*
X057076Y018666D02*
X054854Y018666D01*
X054854Y018468D02*
X057076Y018468D01*
X057076Y018269D02*
X054854Y018269D01*
X054854Y018070D02*
X057076Y018070D01*
X057076Y017872D02*
X054854Y017872D01*
X054854Y017673D02*
X057076Y017673D01*
X057076Y017475D02*
X054854Y017475D01*
X054854Y017276D02*
X057076Y017276D01*
X057076Y017078D02*
X054854Y017078D01*
X054854Y016879D02*
X057076Y016879D01*
X057076Y016681D02*
X054854Y016681D01*
X054854Y016482D02*
X057076Y016482D01*
X057076Y016284D02*
X054854Y016284D01*
X054854Y016085D02*
X057076Y016085D01*
X057076Y015886D02*
X054854Y015886D01*
X054854Y015688D02*
X057076Y015688D01*
X057076Y015489D02*
X054854Y015489D01*
X054854Y015291D02*
X057076Y015291D01*
X057076Y015092D02*
X054854Y015092D01*
X054854Y014894D02*
X057076Y014894D01*
X057076Y014695D02*
X054854Y014695D01*
X054761Y014497D02*
X057076Y014497D01*
X057076Y014298D02*
X046820Y014298D01*
X046818Y014100D02*
X057076Y014100D01*
X057076Y013901D02*
X046866Y013901D01*
X047065Y013703D02*
X057076Y013703D01*
X057076Y013504D02*
X047263Y013504D01*
X047462Y013305D02*
X057076Y013305D01*
X057076Y013107D02*
X047660Y013107D01*
X047859Y012908D02*
X057076Y012908D01*
X057076Y012710D02*
X048057Y012710D01*
X048256Y012511D02*
X057076Y012511D01*
X057076Y012313D02*
X048454Y012313D01*
X048653Y012114D02*
X057076Y012114D01*
X057076Y011916D02*
X049092Y011916D01*
X049212Y011717D02*
X057076Y011717D01*
X057076Y011519D02*
X049224Y011519D01*
X049124Y011320D02*
X057076Y011320D01*
X057076Y011121D02*
X054386Y011121D01*
X054333Y011175D02*
X054171Y011242D01*
X053996Y011242D01*
X053835Y011175D01*
X053711Y011051D01*
X053644Y010889D01*
X053644Y010714D01*
X053659Y010676D01*
X053638Y010676D01*
X053509Y010548D01*
X053509Y009656D01*
X053638Y009527D01*
X054450Y009527D01*
X054579Y009656D01*
X054579Y010548D01*
X054491Y010635D01*
X054524Y010714D01*
X054524Y010889D01*
X054457Y011051D01*
X054333Y011175D01*
X054510Y010923D02*
X057076Y010923D01*
X057076Y010724D02*
X054524Y010724D01*
X054579Y010526D02*
X057076Y010526D01*
X057076Y010327D02*
X054579Y010327D01*
X054579Y010129D02*
X057076Y010129D01*
X057076Y009930D02*
X054579Y009930D01*
X054579Y009732D02*
X057076Y009732D01*
X057076Y009533D02*
X054456Y009533D01*
X053631Y009533D02*
X053336Y009533D01*
X053459Y009732D02*
X053509Y009732D01*
X053509Y009930D02*
X053459Y009930D01*
X053459Y010129D02*
X053509Y010129D01*
X053509Y010327D02*
X053459Y010327D01*
X053459Y010526D02*
X053509Y010526D01*
X053644Y010724D02*
X052643Y010724D01*
X052444Y010923D02*
X053658Y010923D01*
X053781Y011121D02*
X048686Y011121D01*
X048443Y011320D02*
X043884Y011320D01*
X044081Y011121D02*
X043685Y011121D01*
X043487Y010923D02*
X043958Y010923D01*
X043944Y010724D02*
X043288Y010724D01*
X043759Y010526D02*
X043809Y010526D01*
X043809Y010327D02*
X043759Y010327D01*
X043759Y010129D02*
X043809Y010129D01*
X044433Y009335D02*
X046277Y009335D01*
X046244Y009533D02*
X044756Y009533D01*
X044879Y009732D02*
X046303Y009732D01*
X046569Y009930D02*
X044879Y009930D01*
X044879Y010129D02*
X046889Y010129D01*
X047479Y010129D02*
X047689Y010129D01*
X047689Y010327D02*
X044879Y010327D01*
X044879Y010526D02*
X047689Y010526D01*
X047944Y010724D02*
X044824Y010724D01*
X044810Y010923D02*
X047958Y010923D01*
X048081Y011121D02*
X044686Y011121D01*
X044281Y011717D02*
X048286Y011717D01*
X048344Y011519D02*
X044083Y011519D01*
X044480Y011916D02*
X048088Y011916D01*
X047889Y012114D02*
X044678Y012114D01*
X044877Y012313D02*
X047691Y012313D01*
X047492Y012511D02*
X045075Y012511D01*
X045274Y012710D02*
X047294Y012710D01*
X047095Y012908D02*
X045684Y012908D01*
X045879Y013107D02*
X046897Y013107D01*
X046698Y013305D02*
X045924Y013305D01*
X045876Y013504D02*
X046500Y013504D01*
X046301Y013703D02*
X045666Y013703D01*
X045302Y013703D02*
X037067Y013703D01*
X037265Y013901D02*
X046062Y013901D01*
X045091Y013504D02*
X036868Y013504D01*
X036669Y013305D02*
X045044Y013305D01*
X044907Y013107D02*
X036471Y013107D01*
X036272Y012908D02*
X044709Y012908D01*
X044510Y012710D02*
X043757Y012710D01*
X043854Y012511D02*
X044312Y012511D01*
X044113Y012313D02*
X043854Y012313D01*
X043854Y012114D02*
X043915Y012114D01*
X041604Y014100D02*
X037464Y014100D01*
X037662Y014298D02*
X041405Y014298D01*
X041207Y014497D02*
X037861Y014497D01*
X038059Y014695D02*
X041008Y014695D01*
X040810Y014894D02*
X039979Y014894D01*
X039979Y015092D02*
X040611Y015092D01*
X040413Y015291D02*
X039979Y015291D01*
X039979Y015489D02*
X040214Y015489D01*
X040016Y015688D02*
X039979Y015688D01*
X039055Y015886D02*
X035012Y015886D01*
X035024Y016085D02*
X039044Y016085D01*
X038909Y015688D02*
X038859Y015688D01*
X038859Y015489D02*
X038909Y015489D01*
X038909Y015291D02*
X038859Y015291D01*
X038859Y015092D02*
X038909Y015092D01*
X038909Y014894D02*
X038859Y014894D01*
X037789Y015291D02*
X035079Y015291D01*
X035079Y015489D02*
X037789Y015489D01*
X037789Y015688D02*
X035079Y015688D01*
X035079Y015092D02*
X037693Y015092D01*
X037494Y014894D02*
X035079Y014894D01*
X034009Y014894D02*
X033959Y014894D01*
X033959Y015092D02*
X034009Y015092D01*
X034009Y015291D02*
X033959Y015291D01*
X033959Y015489D02*
X034009Y015489D01*
X034009Y015688D02*
X033959Y015688D01*
X034155Y015886D02*
X030212Y015886D01*
X030224Y016085D02*
X034144Y016085D01*
X033159Y014695D02*
X037296Y014695D01*
X037097Y014497D02*
X032961Y014497D01*
X032762Y014298D02*
X036899Y014298D01*
X036700Y014100D02*
X032564Y014100D01*
X032365Y013901D02*
X036501Y013901D01*
X036303Y013703D02*
X032167Y013703D01*
X031968Y013504D02*
X036104Y013504D01*
X035906Y013305D02*
X034859Y013305D01*
X034509Y013305D02*
X031769Y013305D01*
X031571Y013107D02*
X034293Y013107D01*
X034244Y012908D02*
X031372Y012908D01*
X031174Y012710D02*
X034287Y012710D01*
X036074Y012710D02*
X038610Y012710D01*
X038784Y007102D02*
X043084Y007102D01*
X044984Y007102D01*
X045484Y006602D01*
X046084Y006602D01*
X046584Y007102D01*
X048084Y007102D01*
X052784Y007102D01*
X052914Y007151D02*
X046024Y007151D01*
X045998Y006952D02*
X048912Y006952D01*
X048935Y006975D02*
X048831Y006872D01*
X046430Y006872D01*
X046331Y006830D01*
X046255Y006754D01*
X044577Y005076D01*
X043938Y005076D01*
X043809Y004948D01*
X043809Y004056D01*
X043938Y003927D01*
X044750Y003927D01*
X044879Y004056D01*
X044879Y004615D01*
X045744Y005480D01*
X045744Y005414D01*
X045811Y005252D01*
X045935Y005129D01*
X046096Y005062D01*
X046271Y005062D01*
X046433Y005129D01*
X046557Y005252D01*
X046624Y005414D01*
X046624Y005560D01*
X046796Y005732D01*
X048831Y005732D01*
X048935Y005629D01*
X049096Y005562D01*
X049271Y005562D01*
X049433Y005629D01*
X049557Y005752D01*
X049624Y005914D01*
X049624Y006089D01*
X049557Y006251D01*
X049506Y006302D01*
X049557Y006352D01*
X049624Y006514D01*
X049624Y006689D01*
X049557Y006851D01*
X049433Y006975D01*
X049271Y007042D01*
X049096Y007042D01*
X048935Y006975D01*
X049456Y006952D02*
X051483Y006952D01*
X051254Y006754D02*
X049597Y006754D01*
X049624Y006555D02*
X051055Y006555D01*
X050857Y006356D02*
X049558Y006356D01*
X049595Y006158D02*
X050658Y006158D01*
X050460Y005959D02*
X049624Y005959D01*
X049560Y005761D02*
X050261Y005761D01*
X050063Y005562D02*
X049273Y005562D01*
X049095Y005562D02*
X048145Y005562D01*
X048133Y005575D02*
X047971Y005642D01*
X047796Y005642D01*
X047635Y005575D01*
X047511Y005451D01*
X047444Y005289D01*
X047444Y005114D01*
X047511Y004952D01*
X047614Y004849D01*
X047614Y004555D01*
X047614Y004448D01*
X047655Y004349D01*
X047689Y004315D01*
X047689Y004056D01*
X047818Y003927D01*
X048630Y003927D01*
X048759Y004056D01*
X048759Y004948D01*
X048630Y005076D01*
X048308Y005076D01*
X048324Y005114D01*
X048324Y005289D01*
X048257Y005451D01*
X048133Y005575D01*
X048293Y005364D02*
X049864Y005364D01*
X049666Y005165D02*
X048324Y005165D01*
X048740Y004967D02*
X048828Y004967D01*
X048809Y004768D02*
X048759Y004768D01*
X048759Y004570D02*
X048809Y004570D01*
X048809Y004371D02*
X048759Y004371D01*
X048759Y004172D02*
X048809Y004172D01*
X048890Y003974D02*
X048677Y003974D01*
X047771Y003974D02*
X044797Y003974D01*
X044879Y004172D02*
X047689Y004172D01*
X047646Y004371D02*
X044879Y004371D01*
X044879Y004570D02*
X047614Y004570D01*
X047614Y004768D02*
X045032Y004768D01*
X045231Y004967D02*
X047505Y004967D01*
X047444Y005165D02*
X046470Y005165D01*
X046603Y005364D02*
X047475Y005364D01*
X047622Y005562D02*
X046626Y005562D01*
X045898Y005165D02*
X045429Y005165D01*
X045628Y005364D02*
X045765Y005364D01*
X045261Y005761D02*
X036225Y005761D01*
X036423Y005959D02*
X045460Y005959D01*
X045658Y006158D02*
X036622Y006158D01*
X036820Y006356D02*
X045857Y006356D01*
X046055Y006555D02*
X037019Y006555D01*
X037218Y006754D02*
X045310Y006754D01*
X045169Y006952D02*
X037416Y006952D01*
X037615Y007151D02*
X045144Y007151D01*
X044954Y007349D02*
X044854Y007349D01*
X045957Y007349D02*
X047814Y007349D01*
X048354Y007349D02*
X052914Y007349D01*
X052914Y007548D02*
X048496Y007548D01*
X048524Y007746D02*
X052914Y007746D01*
X053654Y007746D02*
X057076Y007746D01*
X057076Y007548D02*
X053654Y007548D01*
X053654Y007349D02*
X057076Y007349D01*
X057076Y007151D02*
X053654Y007151D01*
X053654Y006952D02*
X057076Y006952D01*
X057076Y006754D02*
X053654Y006754D01*
X053519Y006555D02*
X057076Y006555D01*
X057076Y006356D02*
X053320Y006356D01*
X053254Y006158D02*
X057076Y006158D01*
X057076Y005959D02*
X053254Y005959D01*
X053254Y005761D02*
X057076Y005761D01*
X057076Y005562D02*
X053254Y005562D01*
X053254Y005364D02*
X057076Y005364D01*
X057076Y005165D02*
X053254Y005165D01*
X053440Y004967D02*
X053528Y004967D01*
X053509Y004948D02*
X053638Y005076D01*
X054439Y005076D01*
X054596Y005142D01*
X054771Y005142D01*
X054933Y005075D01*
X055057Y004951D01*
X055124Y004789D01*
X055124Y004614D01*
X055057Y004452D01*
X054933Y004329D01*
X054771Y004262D01*
X054610Y004262D01*
X054579Y004249D01*
X054579Y004056D01*
X054450Y003927D01*
X053638Y003927D01*
X053509Y004056D01*
X053509Y004948D01*
X053509Y004768D02*
X053459Y004768D01*
X053459Y004570D02*
X053509Y004570D01*
X053509Y004371D02*
X053459Y004371D01*
X053459Y004172D02*
X053509Y004172D01*
X053590Y003974D02*
X053377Y003974D01*
X052471Y003974D02*
X049797Y003974D01*
X049879Y004172D02*
X052389Y004172D01*
X052389Y004371D02*
X049879Y004371D01*
X049879Y004570D02*
X052389Y004570D01*
X052389Y004768D02*
X050032Y004768D01*
X050231Y004967D02*
X052408Y004967D01*
X052714Y005165D02*
X050429Y005165D01*
X050628Y005364D02*
X052714Y005364D01*
X052714Y005562D02*
X050826Y005562D01*
X051025Y005761D02*
X052714Y005761D01*
X052714Y005959D02*
X051223Y005959D01*
X051422Y006158D02*
X052714Y006158D01*
X052714Y006356D02*
X051620Y006356D01*
X052384Y008602D02*
X049484Y008602D01*
X049824Y009335D02*
X057076Y009335D01*
X057076Y009136D02*
X053620Y009136D01*
X053654Y008937D02*
X057076Y008937D01*
X057076Y008739D02*
X053654Y008739D01*
X053654Y008540D02*
X057076Y008540D01*
X057076Y008342D02*
X053654Y008342D01*
X053654Y008143D02*
X057076Y008143D01*
X057076Y007945D02*
X053654Y007945D01*
X052511Y009533D02*
X049806Y009533D01*
X049879Y009732D02*
X052389Y009732D01*
X052389Y009930D02*
X049879Y009930D01*
X049879Y010129D02*
X052389Y010129D01*
X052276Y010327D02*
X049879Y010327D01*
X049879Y010526D02*
X052078Y010526D01*
X050707Y014497D02*
X048861Y014497D01*
X049059Y014695D02*
X050508Y014695D01*
X050310Y014894D02*
X049879Y014894D01*
X049879Y015092D02*
X050111Y015092D01*
X049913Y015291D02*
X049879Y015291D01*
X047689Y009930D02*
X047607Y009930D01*
X047635Y009732D02*
X047689Y009732D01*
X046866Y008937D02*
X044830Y008937D01*
X045028Y008739D02*
X047065Y008739D01*
X047263Y008540D02*
X045227Y008540D01*
X045425Y008342D02*
X047462Y008342D01*
X047660Y008143D02*
X045624Y008143D01*
X046427Y009136D02*
X044631Y009136D01*
X045858Y006754D02*
X046254Y006754D01*
X045063Y005562D02*
X036026Y005562D01*
X035828Y005364D02*
X040011Y005364D01*
X040030Y005372D02*
X039931Y005330D01*
X039855Y005254D01*
X039677Y005076D01*
X039038Y005076D01*
X038909Y004948D01*
X038909Y004056D01*
X039038Y003927D01*
X039850Y003927D01*
X039979Y004056D01*
X039979Y004615D01*
X040196Y004832D01*
X041331Y004832D01*
X041435Y004729D01*
X041596Y004662D01*
X041771Y004662D01*
X041933Y004729D01*
X042057Y004852D01*
X042124Y005014D01*
X042124Y005189D01*
X042057Y005351D01*
X041933Y005475D01*
X041771Y005542D01*
X041596Y005542D01*
X041435Y005475D01*
X041331Y005372D01*
X040030Y005372D01*
X039766Y005165D02*
X035629Y005165D01*
X035431Y004967D02*
X037808Y004967D01*
X037789Y004768D02*
X035232Y004768D01*
X035079Y004570D02*
X037789Y004570D01*
X037789Y004371D02*
X035079Y004371D01*
X035079Y004172D02*
X037789Y004172D01*
X037871Y003974D02*
X034997Y003974D01*
X035584Y003902D02*
X038784Y007102D01*
X038840Y004967D02*
X038928Y004967D01*
X038909Y004768D02*
X038859Y004768D01*
X038859Y004570D02*
X038909Y004570D01*
X038909Y004371D02*
X038859Y004371D01*
X038859Y004172D02*
X038909Y004172D01*
X038990Y003974D02*
X038789Y003974D01*
X038824Y003775D02*
X042844Y003775D01*
X042901Y003577D02*
X038767Y003577D01*
X038001Y003577D02*
X025167Y003577D01*
X025224Y003775D02*
X030588Y003775D01*
X030635Y003729D02*
X030511Y003852D01*
X030444Y004014D01*
X030444Y004160D01*
X030372Y004232D01*
X030279Y004232D01*
X030279Y004056D01*
X030150Y003927D01*
X029338Y003927D01*
X029209Y004056D01*
X029209Y004948D01*
X029338Y005076D01*
X030150Y005076D01*
X030279Y004948D01*
X030279Y004772D01*
X030537Y004772D01*
X030637Y004730D01*
X030713Y004654D01*
X030713Y004654D01*
X030826Y004542D01*
X030971Y004542D01*
X031133Y004475D01*
X031257Y004351D01*
X031324Y004189D01*
X031324Y004014D01*
X031257Y003852D01*
X031133Y003729D01*
X030971Y003662D01*
X030796Y003662D01*
X030635Y003729D01*
X030460Y003974D02*
X030197Y003974D01*
X030279Y004172D02*
X030431Y004172D01*
X030798Y004570D02*
X032889Y004570D01*
X032889Y004768D02*
X030546Y004768D01*
X030784Y004602D02*
X030184Y005202D01*
X028884Y005202D01*
X028754Y005165D02*
X033044Y005165D01*
X033044Y005114D02*
X033059Y005076D01*
X033018Y005076D01*
X032889Y004948D01*
X032889Y004056D01*
X033018Y003927D01*
X033830Y003927D01*
X033959Y004056D01*
X033959Y004948D01*
X033885Y005021D01*
X033924Y005114D01*
X033924Y005289D01*
X033857Y005451D01*
X033733Y005575D01*
X033571Y005642D01*
X033396Y005642D01*
X033235Y005575D01*
X033111Y005451D01*
X033044Y005289D01*
X033044Y005114D01*
X032908Y004967D02*
X030260Y004967D01*
X030784Y004602D02*
X032284Y004602D01*
X032984Y003902D01*
X035584Y003902D01*
X034866Y005165D02*
X033924Y005165D01*
X033940Y004967D02*
X034028Y004967D01*
X034009Y004768D02*
X033959Y004768D01*
X033959Y004570D02*
X034009Y004570D01*
X034009Y004371D02*
X033959Y004371D01*
X033959Y004172D02*
X034009Y004172D01*
X034090Y003974D02*
X033877Y003974D01*
X032971Y003974D02*
X031307Y003974D01*
X031324Y004172D02*
X032889Y004172D01*
X032889Y004371D02*
X031237Y004371D01*
X031180Y003775D02*
X037944Y003775D01*
X039897Y003974D02*
X042771Y003974D01*
X042689Y004172D02*
X039979Y004172D01*
X039979Y004371D02*
X042689Y004371D01*
X042689Y004570D02*
X039979Y004570D01*
X040132Y004768D02*
X041395Y004768D01*
X041973Y004768D02*
X042689Y004768D01*
X042708Y004967D02*
X042104Y004967D01*
X042124Y005165D02*
X044666Y005165D01*
X044864Y005364D02*
X042044Y005364D01*
X043740Y004967D02*
X043828Y004967D01*
X043809Y004768D02*
X043759Y004768D01*
X043759Y004570D02*
X043809Y004570D01*
X043809Y004371D02*
X043759Y004371D01*
X043759Y004172D02*
X043809Y004172D01*
X043890Y003974D02*
X043689Y003974D01*
X043724Y003775D02*
X057076Y003775D01*
X057076Y003577D02*
X043667Y003577D01*
X043687Y003378D02*
X057076Y003378D01*
X057076Y003180D02*
X043724Y003180D01*
X043669Y002981D02*
X057076Y002981D01*
X057076Y002783D02*
X043422Y002783D01*
X043145Y002783D02*
X031885Y002783D01*
X032110Y002584D02*
X057076Y002584D01*
X057076Y002386D02*
X032284Y002386D01*
X032324Y002187D02*
X057076Y002187D01*
X057076Y001988D02*
X032272Y001988D01*
X030343Y003378D02*
X030224Y003378D01*
X029743Y003378D02*
X024912Y003378D01*
X024656Y003378D02*
X020289Y003378D01*
X020090Y003577D02*
X024401Y003577D01*
X024344Y003775D02*
X019892Y003775D01*
X020297Y003974D02*
X023171Y003974D01*
X023089Y004172D02*
X020379Y004172D01*
X020379Y004371D02*
X023089Y004371D01*
X023089Y004570D02*
X020379Y004570D01*
X020379Y004768D02*
X023089Y004768D01*
X023108Y004967D02*
X020360Y004967D01*
X020324Y005165D02*
X023966Y005165D01*
X024164Y005364D02*
X020293Y005364D01*
X020145Y005562D02*
X024363Y005562D01*
X024561Y005761D02*
X019425Y005761D01*
X019622Y005562D02*
X019226Y005562D01*
X019028Y005364D02*
X019475Y005364D01*
X019444Y005165D02*
X018829Y005165D01*
X019240Y004967D02*
X019328Y004967D01*
X019309Y004768D02*
X019259Y004768D01*
X019259Y004570D02*
X019309Y004570D01*
X019296Y004371D02*
X019309Y004371D01*
X024077Y003974D02*
X024290Y003974D01*
X024209Y004172D02*
X024159Y004172D01*
X024159Y004371D02*
X024209Y004371D01*
X024209Y004570D02*
X024159Y004570D01*
X024729Y005165D02*
X028214Y005165D01*
X028214Y005364D02*
X024928Y005364D01*
X025126Y005562D02*
X028214Y005562D01*
X028214Y005761D02*
X025325Y005761D01*
X025260Y004967D02*
X028108Y004967D01*
X028089Y004768D02*
X025279Y004768D01*
X025279Y004570D02*
X028089Y004570D01*
X028089Y004371D02*
X025279Y004371D01*
X025279Y004172D02*
X028089Y004172D01*
X028171Y003974D02*
X025197Y003974D01*
X028754Y005364D02*
X028991Y005364D01*
X029176Y005364D02*
X033075Y005364D01*
X033222Y005562D02*
X029461Y005562D01*
X029524Y005761D02*
X035461Y005761D01*
X035660Y005959D02*
X030260Y005959D01*
X030324Y006158D02*
X032308Y006158D01*
X032244Y006356D02*
X032158Y006356D01*
X032224Y006555D02*
X032271Y006555D01*
X032684Y006402D02*
X033984Y006402D01*
X035784Y006402D01*
X035263Y005562D02*
X033745Y005562D01*
X033893Y005364D02*
X035064Y005364D01*
X030284Y010902D02*
X028284Y010902D01*
X028184Y010802D01*
X028184Y010902D01*
X023684Y010902D01*
X023084Y010902D01*
X022884Y010702D01*
X025165Y012372D02*
X025224Y012514D01*
X025224Y012634D01*
X025230Y012632D01*
X026532Y012632D01*
X026635Y012529D01*
X026796Y012462D01*
X026971Y012462D01*
X027133Y012529D01*
X027257Y012652D01*
X027324Y012814D01*
X027324Y012989D01*
X027257Y013151D01*
X027133Y013275D01*
X026971Y013342D01*
X026796Y013342D01*
X026635Y013275D01*
X026532Y013172D01*
X025396Y013172D01*
X025337Y013230D01*
X025237Y013272D01*
X025130Y013272D01*
X024530Y013272D01*
X024431Y013230D01*
X024372Y013172D01*
X017396Y013172D01*
X017037Y013530D01*
X017034Y013532D01*
X018331Y013532D01*
X018435Y013429D01*
X018596Y013362D01*
X018771Y013362D01*
X018933Y013429D01*
X018984Y013479D01*
X019035Y013429D01*
X019196Y013362D01*
X019371Y013362D01*
X019533Y013429D01*
X019636Y013532D01*
X023172Y013532D01*
X023331Y013373D01*
X023430Y013332D01*
X023537Y013332D01*
X025037Y013332D01*
X025137Y013373D01*
X025196Y013432D01*
X027972Y013432D01*
X029032Y012372D01*
X025165Y012372D01*
X025223Y012511D02*
X026676Y012511D01*
X027091Y012511D02*
X028892Y012511D01*
X028694Y012710D02*
X027281Y012710D01*
X027324Y012908D02*
X028495Y012908D01*
X028297Y013107D02*
X027275Y013107D01*
X027059Y013305D02*
X028098Y013305D01*
X028465Y013703D02*
X031403Y013703D01*
X031601Y013901D02*
X028266Y013901D01*
X027962Y014298D02*
X031999Y014298D01*
X032197Y014497D02*
X028161Y014497D01*
X028359Y014695D02*
X032396Y014695D01*
X032594Y014894D02*
X030279Y014894D01*
X030279Y015092D02*
X032793Y015092D01*
X032889Y015291D02*
X030279Y015291D01*
X030279Y015489D02*
X032889Y015489D01*
X032889Y015688D02*
X030279Y015688D01*
X029355Y015886D02*
X027991Y015886D01*
X028089Y015688D02*
X027352Y015688D01*
X027153Y015489D02*
X028089Y015489D01*
X028089Y015291D02*
X026955Y015291D01*
X026756Y015092D02*
X027993Y015092D01*
X027794Y014894D02*
X026558Y014894D01*
X026684Y014695D02*
X026359Y014695D01*
X026488Y014497D02*
X026161Y014497D01*
X025962Y014298D02*
X026444Y014298D01*
X026491Y014100D02*
X025219Y014100D01*
X025484Y013302D02*
X023184Y013302D01*
X020484Y013302D01*
X019608Y013504D02*
X023200Y013504D01*
X026709Y013305D02*
X017262Y013305D01*
X017063Y013504D02*
X018359Y013504D01*
X022384Y017202D02*
X022384Y019802D01*
X027083Y014695D02*
X027596Y014695D01*
X027813Y014149D02*
X027813Y014149D01*
X027764Y014100D02*
X031800Y014100D01*
X031204Y013504D02*
X028663Y013504D01*
X028862Y013305D02*
X030509Y013305D01*
X030293Y013107D02*
X029060Y013107D01*
X029259Y012908D02*
X030244Y012908D01*
X030287Y012710D02*
X029457Y012710D01*
X030859Y013305D02*
X031006Y013305D01*
X029209Y014894D02*
X029159Y014894D01*
X029159Y015092D02*
X029209Y015092D01*
X029209Y015291D02*
X029159Y015291D01*
X029159Y015489D02*
X029209Y015489D01*
X029209Y015688D02*
X029159Y015688D01*
X029344Y016085D02*
X028112Y016085D01*
X029140Y004967D02*
X029228Y004967D01*
X029209Y004768D02*
X029159Y004768D01*
X029159Y004570D02*
X029209Y004570D01*
X029209Y004371D02*
X029159Y004371D01*
X029159Y004172D02*
X029209Y004172D01*
X029290Y003974D02*
X029077Y003974D01*
X011818Y002386D02*
X004851Y002386D01*
X004997Y002584D02*
X011619Y002584D01*
X011421Y002783D02*
X005004Y002783D01*
X005004Y002981D02*
X010082Y002981D01*
X009853Y003180D02*
X004966Y003180D01*
X005871Y004967D02*
X006396Y004967D01*
X006264Y005165D02*
X006004Y005165D01*
X006024Y005364D02*
X006244Y005364D01*
X006322Y005562D02*
X005945Y005562D01*
X005506Y005761D02*
X006761Y005761D01*
X006960Y005959D02*
X005308Y005959D01*
X005109Y006158D02*
X007158Y006158D01*
X007357Y006356D02*
X004874Y006356D01*
X004658Y006555D02*
X007555Y006555D01*
X007596Y006762D02*
X007771Y006762D01*
X007933Y006829D01*
X008057Y006952D01*
X008084Y006702D02*
X005584Y006702D01*
X005384Y006902D01*
X006411Y006952D02*
X006535Y006829D01*
X006696Y006762D01*
X006871Y006762D01*
X007033Y006829D01*
X007157Y006952D01*
X007224Y007114D01*
X007224Y007289D01*
X007185Y007382D01*
X007282Y007382D01*
X007244Y007289D01*
X007244Y007114D01*
X007311Y006952D01*
X007156Y006952D01*
X007311Y006952D02*
X007435Y006829D01*
X007596Y006762D01*
X007244Y007151D02*
X007224Y007151D01*
X007199Y007349D02*
X007269Y007349D01*
X008114Y010053D02*
X007937Y010230D01*
X007837Y010272D01*
X007730Y010272D01*
X007606Y010272D01*
X007624Y010314D01*
X007624Y010489D01*
X007557Y010651D01*
X007433Y010775D01*
X007271Y010842D01*
X007126Y010842D01*
X006513Y011454D01*
X006437Y011530D01*
X006337Y011572D01*
X002636Y011572D01*
X002533Y011675D01*
X002371Y011742D01*
X002196Y011742D01*
X002154Y011724D01*
X002154Y013532D01*
X006434Y013532D01*
X006431Y013530D01*
X006355Y013454D01*
X006242Y013342D01*
X006096Y013342D01*
X005935Y013275D01*
X005811Y013151D01*
X005744Y012989D01*
X005744Y012814D01*
X005761Y012772D01*
X005290Y012772D01*
X005257Y012851D01*
X005133Y012975D01*
X004971Y013042D01*
X004796Y013042D01*
X004635Y012975D01*
X004511Y012851D01*
X004444Y012689D01*
X004444Y012514D01*
X004511Y012352D01*
X004635Y012229D01*
X004796Y012162D01*
X004971Y012162D01*
X005133Y012229D01*
X005136Y012232D01*
X007972Y012232D01*
X008153Y012050D01*
X008114Y011955D01*
X008114Y011848D01*
X008114Y010053D01*
X008114Y010129D02*
X008038Y010129D01*
X008114Y010327D02*
X007624Y010327D01*
X007609Y010526D02*
X008114Y010526D01*
X008114Y010724D02*
X007483Y010724D01*
X007784Y010502D02*
X006684Y011602D01*
X005784Y011602D01*
X005284Y012102D01*
X003184Y012102D01*
X002784Y011702D01*
X002430Y011717D02*
X008114Y011717D01*
X008114Y011519D02*
X006449Y011519D01*
X006647Y011320D02*
X008114Y011320D01*
X008114Y011121D02*
X006846Y011121D01*
X007044Y010923D02*
X008114Y010923D01*
X008114Y011916D02*
X002154Y011916D01*
X002154Y012114D02*
X008089Y012114D01*
X006404Y013504D02*
X002154Y013504D01*
X002154Y013305D02*
X006009Y013305D01*
X005793Y013107D02*
X002154Y013107D01*
X002154Y012908D02*
X004568Y012908D01*
X004452Y012710D02*
X002154Y012710D01*
X002154Y012511D02*
X004445Y012511D01*
X004550Y012313D02*
X002154Y012313D01*
X005199Y012908D02*
X005744Y012908D01*
X001809Y007349D02*
X000984Y007349D01*
X000984Y007151D02*
X001669Y007151D01*
X001644Y006952D02*
X000984Y006952D01*
X000984Y006754D02*
X001710Y006754D01*
X000984Y006555D02*
X003910Y006555D01*
X003416Y006356D02*
X000984Y006356D01*
X000984Y006158D02*
X003344Y006158D01*
X003366Y005959D02*
X000984Y005959D01*
X000984Y005761D02*
X003502Y005761D01*
X000984Y003577D02*
X007986Y003577D01*
X008581Y003577D02*
X009301Y003577D01*
X009244Y003775D02*
X008708Y003775D01*
X009556Y003378D02*
X000984Y003378D01*
X009684Y003802D02*
X010184Y003302D01*
X010384Y003302D01*
X010686Y002981D02*
X011222Y002981D01*
X011024Y003180D02*
X010810Y003180D01*
X010824Y003378D02*
X010825Y003378D01*
X007033Y023233D02*
X007006Y023233D01*
X006876Y023431D02*
X007144Y023431D01*
X007202Y023630D02*
X004354Y023630D01*
X004354Y023828D02*
X007464Y023828D01*
X007601Y024027D02*
X004354Y024027D01*
X004354Y024225D02*
X006942Y024225D01*
X006781Y024424D02*
X004354Y024424D01*
X004354Y024622D02*
X006744Y024622D01*
X006798Y024821D02*
X004354Y024821D01*
X004354Y025019D02*
X007043Y025019D01*
X006884Y025102D02*
X005784Y025102D01*
X005637Y025814D02*
X008014Y025814D01*
X008213Y026012D02*
X005679Y026012D01*
X005679Y026211D02*
X008389Y026211D01*
X008389Y026409D02*
X005679Y026409D01*
X005679Y026608D02*
X008389Y026608D01*
X008448Y026806D02*
X005620Y026806D01*
X005624Y027005D02*
X009444Y027005D01*
X009400Y026806D02*
X009488Y026806D01*
X009509Y026608D02*
X009459Y026608D01*
X009459Y026409D02*
X009509Y026409D01*
X009509Y026211D02*
X009459Y026211D01*
X010324Y027005D02*
X011389Y027005D01*
X011344Y027203D02*
X010276Y027203D01*
X010067Y027402D02*
X011201Y027402D01*
X011003Y027601D02*
X003554Y027601D01*
X003554Y027799D02*
X010804Y027799D01*
X010606Y027998D02*
X009802Y027998D01*
X009916Y028196D02*
X010407Y028196D01*
X010209Y028395D02*
X009921Y028395D01*
X009165Y027998D02*
X007958Y027998D01*
X007609Y027998D02*
X003554Y027998D01*
X003554Y028196D02*
X007393Y028196D01*
X007344Y028395D02*
X005851Y028395D01*
X005516Y028395D02*
X003554Y028395D01*
X003554Y028593D02*
X005294Y028593D01*
X005244Y028792D02*
X003554Y028792D01*
X003554Y027402D02*
X004101Y027402D01*
X004467Y027402D02*
X005001Y027402D01*
X004791Y027203D02*
X004676Y027203D01*
X004724Y027005D02*
X004744Y027005D01*
X004609Y026608D02*
X004559Y026608D01*
X004559Y026409D02*
X004609Y026409D01*
X004609Y026211D02*
X004559Y026211D01*
X004559Y026012D02*
X004609Y026012D01*
X004651Y025814D02*
X004517Y025814D01*
X004354Y025615D02*
X007816Y025615D01*
X007617Y025417D02*
X004354Y025417D01*
X004354Y025218D02*
X007418Y025218D01*
X007425Y024225D02*
X007581Y024225D01*
X006291Y023431D02*
X004354Y023431D01*
X005576Y027203D02*
X009491Y027203D01*
X009701Y027402D02*
X005367Y027402D01*
X010520Y026806D02*
X011588Y026806D01*
X011979Y026806D02*
X012707Y026806D01*
X012508Y026608D02*
X010579Y026608D01*
X010579Y026409D02*
X012310Y026409D01*
X012111Y026211D02*
X010579Y026211D01*
X010579Y026012D02*
X011913Y026012D01*
X012179Y027005D02*
X012905Y027005D01*
X013104Y027203D02*
X012224Y027203D01*
X012177Y027402D02*
X013302Y027402D01*
X013501Y027601D02*
X011970Y027601D01*
X021784Y027102D02*
X022684Y027102D01*
X022884Y026902D01*
X054579Y004172D02*
X057076Y004172D01*
X057076Y003974D02*
X054497Y003974D01*
X054975Y004371D02*
X057076Y004371D01*
X057076Y004570D02*
X055105Y004570D01*
X055124Y004768D02*
X057076Y004768D01*
X057076Y004967D02*
X055041Y004967D01*
D16*
X054684Y004702D03*
X052784Y007102D03*
X052384Y008602D03*
X054084Y010802D03*
X049384Y009402D03*
X049484Y008602D03*
X048384Y009402D03*
X047184Y009802D03*
X046684Y009502D03*
X048384Y010802D03*
X048784Y011602D03*
X046384Y014202D03*
X045484Y013302D03*
X044084Y014602D03*
X043884Y016102D03*
X043284Y016002D03*
X045784Y016202D03*
X046684Y018002D03*
X046484Y018602D03*
X045684Y018402D03*
X047484Y020202D03*
X047484Y020802D03*
X047584Y021502D03*
X048384Y019802D03*
X049384Y020202D03*
X049584Y022302D03*
X052284Y022302D03*
X052984Y021602D03*
X050584Y025202D03*
X051784Y025702D03*
X052984Y027002D03*
X050284Y027402D03*
X050284Y028402D03*
X050384Y029202D03*
X050084Y031002D03*
X050784Y031402D03*
X048784Y033002D03*
X047684Y032802D03*
X046984Y032302D03*
X047684Y031102D03*
X047884Y029602D03*
X047884Y027902D03*
X049284Y027002D03*
X044984Y028402D03*
X044184Y029202D03*
X043284Y031002D03*
X042684Y032302D03*
X042384Y033302D03*
X039484Y032402D03*
X035784Y028302D03*
X034784Y028102D03*
X034584Y027002D03*
X034184Y025602D03*
X037084Y027002D03*
X039484Y027002D03*
X044384Y025602D03*
X044384Y021602D03*
X039484Y021602D03*
X034584Y021602D03*
X031184Y017002D03*
X029784Y016002D03*
X027684Y016202D03*
X027284Y016602D03*
X026884Y014302D03*
X026884Y012902D03*
X025484Y013302D03*
X024784Y014002D03*
X024384Y014502D03*
X024784Y016002D03*
X023584Y017002D03*
X022384Y017202D03*
X022184Y016602D03*
X021584Y016602D03*
X021784Y015602D03*
X021784Y014902D03*
X021184Y014902D03*
X020484Y013302D03*
X019284Y013802D03*
X018684Y013802D03*
X018784Y014602D03*
X019684Y012002D03*
X019384Y011502D03*
X021184Y010902D03*
X021984Y010402D03*
X022284Y010902D03*
X022884Y010702D03*
X023684Y010902D03*
X023684Y009402D03*
X022984Y008802D03*
X024084Y008402D03*
X024484Y007402D03*
X024784Y006202D03*
X025884Y008002D03*
X028184Y010802D03*
X029084Y009402D03*
X028984Y008502D03*
X029084Y007402D03*
X029884Y006202D03*
X029084Y005802D03*
X028884Y005202D03*
X030184Y005202D03*
X030884Y004102D03*
X030584Y003002D03*
X029984Y003002D03*
X031484Y002602D03*
X031884Y002202D03*
X033484Y005202D03*
X033984Y006402D03*
X032684Y006402D03*
X031784Y006602D03*
X033884Y008102D03*
X035784Y006402D03*
X038384Y003802D03*
X041684Y005102D03*
X043284Y003802D03*
X043284Y003202D03*
X046184Y005502D03*
X045584Y007102D03*
X044984Y007102D03*
X044484Y007602D03*
X043084Y007102D03*
X044384Y010802D03*
X042184Y012102D03*
X038384Y010802D03*
X034684Y012902D03*
X033484Y010802D03*
X030684Y012902D03*
X029484Y011702D03*
X030284Y010902D03*
X034584Y016002D03*
X039484Y016002D03*
X048284Y016002D03*
X052984Y016002D03*
X048084Y007702D03*
X048084Y007102D03*
X049184Y006602D03*
X049184Y006002D03*
X047884Y005202D03*
X028684Y021602D03*
X027984Y025702D03*
X028684Y027002D03*
X030284Y028702D03*
X031584Y028702D03*
X029284Y029702D03*
X029584Y030702D03*
X030284Y031102D03*
X029784Y032402D03*
X027184Y031202D03*
X024784Y031002D03*
X023584Y030502D03*
X022384Y031902D03*
X020484Y031802D03*
X019584Y032402D03*
X018784Y032402D03*
X018784Y031002D03*
X018484Y030502D03*
X019584Y029702D03*
X019284Y029202D03*
X019584Y028402D03*
X019984Y027102D03*
X020484Y026602D03*
X018784Y025602D03*
X017984Y027102D03*
X015884Y029702D03*
X016884Y030102D03*
X014384Y030902D03*
X013184Y031702D03*
X012284Y031202D03*
X011484Y032302D03*
X011484Y034102D03*
X011484Y034902D03*
X012084Y034902D03*
X010884Y034902D03*
X010484Y034102D03*
X009884Y034302D03*
X009384Y034702D03*
X006984Y035202D03*
X006484Y034702D03*
X005084Y035302D03*
X004984Y034202D03*
X005984Y033102D03*
X004884Y032602D03*
X003984Y032402D03*
X005684Y028802D03*
X005184Y027002D03*
X004284Y027002D03*
X005784Y025102D03*
X006884Y025102D03*
X007184Y024602D03*
X007984Y024402D03*
X007984Y023802D03*
X007584Y023402D03*
X007984Y023002D03*
X006584Y023102D03*
X005184Y020202D03*
X005784Y019402D03*
X006784Y017702D03*
X008984Y016002D03*
X009684Y017202D03*
X011084Y016202D03*
X012084Y016202D03*
X013884Y014602D03*
X014684Y014602D03*
X014484Y016402D03*
X015984Y017702D03*
X015184Y019502D03*
X014584Y019402D03*
X014984Y020202D03*
X013884Y021602D03*
X014284Y022202D03*
X012584Y022602D03*
X011984Y022602D03*
X011984Y024002D03*
X011984Y024802D03*
X010384Y023502D03*
X010384Y022202D03*
X011284Y020902D03*
X011384Y020202D03*
X011984Y020202D03*
X012584Y020202D03*
X009984Y020202D03*
X009384Y019802D03*
X006884Y014902D03*
X006184Y014502D03*
X005184Y014502D03*
X004084Y016002D03*
X003184Y014702D03*
X004884Y012602D03*
X005284Y012102D03*
X006184Y012902D03*
X006784Y012902D03*
X008684Y012502D03*
X007784Y010502D03*
X007184Y010402D03*
X006784Y009602D03*
X006184Y009502D03*
X004684Y009402D03*
X004084Y008602D03*
X003684Y009002D03*
X002884Y008002D03*
X003284Y007602D03*
X004284Y007602D03*
X004284Y006802D03*
X003784Y006102D03*
X004084Y005202D03*
X005584Y005302D03*
X006684Y005302D03*
X007484Y004702D03*
X008284Y003902D03*
X009684Y003802D03*
X010384Y003302D03*
X008684Y005902D03*
X008284Y006902D03*
X007684Y007202D03*
X008384Y007702D03*
X006784Y007202D03*
X005384Y006902D03*
X002084Y007002D03*
X002084Y008202D03*
X003684Y010902D03*
X002784Y011702D03*
X002284Y011302D03*
X010084Y009402D03*
X012084Y011102D03*
X012984Y012902D03*
X014184Y012502D03*
X014984Y010802D03*
X013784Y009002D03*
X015184Y008002D03*
X014484Y007002D03*
X014984Y005202D03*
X016284Y003002D03*
X019884Y005202D03*
X019884Y009402D03*
X023184Y013302D03*
X024784Y012602D03*
X020584Y017702D03*
X021384Y018002D03*
X022384Y019802D03*
X023684Y021602D03*
X021784Y022802D03*
X023884Y024402D03*
X024484Y023602D03*
X023684Y027002D03*
X022884Y026902D03*
X021284Y028502D03*
X020784Y033102D03*
X020684Y034602D03*
X021984Y036102D03*
X020484Y037002D03*
X020884Y038602D03*
X023684Y037702D03*
X023384Y040402D03*
X023884Y041902D03*
X022984Y042302D03*
X021984Y043902D03*
X020884Y044302D03*
X021984Y045602D03*
X021984Y046202D03*
X021884Y047002D03*
X022984Y047802D03*
X024684Y048702D03*
X025984Y048002D03*
X026284Y048602D03*
X025984Y050102D03*
X026384Y050802D03*
X028084Y050602D03*
X028984Y050102D03*
X029084Y051002D03*
X030184Y051902D03*
X028784Y052602D03*
X028184Y054102D03*
X030284Y055302D03*
X032784Y055302D03*
X032984Y054102D03*
X038684Y054102D03*
X044384Y054102D03*
X045084Y052002D03*
X045984Y050302D03*
X044584Y049002D03*
X045384Y048202D03*
X044884Y047402D03*
X045784Y046902D03*
X046884Y047302D03*
X047584Y048002D03*
X047884Y047302D03*
X048184Y046102D03*
X048784Y046102D03*
X048784Y045302D03*
X050484Y046102D03*
X050884Y045702D03*
X051684Y045202D03*
X051784Y043702D03*
X050884Y043002D03*
X050384Y041602D03*
X050984Y041002D03*
X051384Y039902D03*
X051384Y039302D03*
X049484Y038502D03*
X048684Y037702D03*
X049984Y037002D03*
X047384Y037702D03*
X045884Y039302D03*
X048084Y040602D03*
X049284Y041202D03*
X048284Y042002D03*
X048784Y043302D03*
X046884Y043302D03*
X046484Y045702D03*
X044984Y045302D03*
X043984Y043402D03*
X042584Y042702D03*
X038584Y040602D03*
X037284Y041902D03*
X037684Y042702D03*
X035784Y043702D03*
X034684Y041502D03*
X032784Y042702D03*
X030384Y042702D03*
X028084Y044102D03*
X028484Y045902D03*
X027884Y046002D03*
X025984Y046502D03*
X023784Y045402D03*
X024384Y044402D03*
X025384Y042702D03*
X025984Y042002D03*
X029184Y037602D03*
X031084Y036302D03*
X032784Y037002D03*
X034584Y032402D03*
X033484Y030702D03*
X037684Y037002D03*
X043784Y037602D03*
X038184Y046102D03*
X038584Y046502D03*
X037684Y048002D03*
X042584Y048002D03*
X047384Y052002D03*
X047384Y052602D03*
X048384Y051502D03*
X049284Y051102D03*
X049884Y051102D03*
X050184Y050602D03*
X050884Y050702D03*
X051784Y049102D03*
X052784Y049102D03*
X053484Y050302D03*
X054684Y048002D03*
X050384Y047702D03*
X049984Y048102D03*
X050384Y048502D03*
X048984Y049002D03*
X051284Y053102D03*
X049384Y054102D03*
X053484Y054002D03*
X054084Y043402D03*
X053884Y042002D03*
X052984Y042002D03*
X053784Y040302D03*
X055384Y040402D03*
X055584Y038902D03*
X055384Y038202D03*
X054084Y037702D03*
X053484Y037802D03*
X053784Y038602D03*
X053984Y036302D03*
X052684Y035702D03*
X052984Y032402D03*
X032784Y048002D03*
X029184Y048602D03*
X028084Y048602D03*
X027984Y048002D03*
X024584Y050402D03*
X023584Y052602D03*
X023184Y054102D03*
X022984Y055302D03*
X023784Y056102D03*
X025584Y054902D03*
X025784Y052602D03*
X020684Y051602D03*
X020684Y050902D03*
X019684Y052602D03*
X018984Y052602D03*
X020384Y054002D03*
X016984Y053002D03*
X016184Y054402D03*
X013884Y052702D03*
X012784Y052802D03*
X010684Y053402D03*
X009684Y054702D03*
X007784Y052902D03*
X006384Y052802D03*
X005884Y052502D03*
X006884Y050902D03*
X006384Y050602D03*
X007484Y050902D03*
X006984Y049002D03*
X008284Y047502D03*
X009284Y046802D03*
X010284Y045602D03*
X010984Y046002D03*
X012284Y045102D03*
X013084Y046402D03*
X014984Y048702D03*
X013884Y049002D03*
X010584Y049802D03*
X015684Y044502D03*
X016484Y044302D03*
X016884Y043502D03*
X017384Y045302D03*
X020384Y046602D03*
X019884Y048702D03*
X020484Y042702D03*
X015684Y038402D03*
X016284Y037802D03*
X017084Y037002D03*
X017084Y036402D03*
X017284Y034802D03*
X015984Y034002D03*
X015684Y032802D03*
X015584Y037002D03*
X015284Y040402D03*
X014784Y042002D03*
X012584Y040402D03*
X011684Y040402D03*
X009484Y041002D03*
X008384Y042602D03*
X007384Y041402D03*
X007984Y038402D03*
X005784Y037002D03*
X010684Y037002D03*
X008984Y031002D03*
X010984Y029202D03*
X009484Y028302D03*
X009884Y027002D03*
X009484Y025702D03*
X011784Y027202D03*
X013884Y027002D03*
X014984Y025202D03*
X018784Y021602D03*
X019284Y018502D03*
X019284Y017702D03*
X017984Y018502D03*
X007784Y028402D03*
X002684Y021602D03*
X003884Y020202D03*
X010584Y007002D03*
X024784Y003802D03*
X003384Y042302D03*
X002284Y046302D03*
X003784Y046702D03*
X004584Y047402D03*
X010584Y043902D03*
D17*
X007484Y043902D01*
X007184Y043602D01*
X007184Y042602D02*
X007784Y042002D01*
X010484Y042002D01*
X011784Y043302D01*
X016684Y043302D01*
X016884Y043502D01*
X016484Y044302D02*
X016584Y044402D01*
X020884Y044402D01*
X020884Y044302D01*
X020884Y044402D02*
X024384Y044402D01*
X024484Y044502D01*
X049184Y044502D01*
X049184Y045702D01*
X050884Y045702D01*
X050484Y046102D02*
X051884Y046102D01*
X049884Y044102D01*
X028084Y044102D01*
X029284Y043502D02*
X029584Y043802D01*
X035684Y043802D01*
X035784Y043702D01*
X034584Y042702D02*
X034984Y042302D01*
X037784Y042302D01*
X038884Y041202D01*
X049284Y041202D01*
X048784Y041002D02*
X049184Y040602D01*
X053484Y040602D01*
X053584Y040702D01*
X055084Y040702D01*
X055384Y040402D01*
X055784Y040602D02*
X055484Y040902D01*
X054084Y040902D01*
X052984Y042002D01*
X052924Y042702D02*
X052884Y042702D01*
X051184Y041002D01*
X050984Y041002D01*
X051184Y040302D02*
X053784Y040302D01*
X053584Y039002D02*
X055484Y039002D01*
X055584Y038902D01*
X055784Y039302D02*
X051384Y039302D01*
X051384Y039902D02*
X046484Y039902D01*
X045884Y039302D01*
X047384Y037702D02*
X045884Y036202D01*
X031184Y036202D01*
X031084Y036302D01*
X030084Y036702D02*
X032484Y036702D01*
X032784Y036402D01*
X041284Y036402D01*
X043784Y038902D01*
X053484Y038902D01*
X053584Y039002D01*
X053784Y038602D02*
X049584Y038602D01*
X049484Y038502D01*
X048684Y037702D02*
X048284Y037702D01*
X048284Y037002D01*
X048224Y037002D01*
X049344Y037002D02*
X049984Y037002D01*
X050884Y035902D02*
X052784Y037802D01*
X053484Y037802D01*
X053184Y038102D02*
X053284Y038202D01*
X055384Y038202D01*
X055784Y039302D02*
X055784Y040602D01*
X055984Y042402D02*
X055984Y033002D01*
X054584Y033002D01*
X054584Y014702D01*
X050884Y014702D01*
X049184Y016402D01*
X045584Y016402D01*
X045784Y016202D01*
X045584Y016402D02*
X045384Y016602D01*
X027284Y016602D01*
X022184Y016602D01*
X021584Y016602D02*
X021184Y017002D01*
X011884Y017002D01*
X011084Y016202D01*
X012084Y016202D02*
X014284Y016202D01*
X014484Y016402D01*
X014884Y015302D02*
X014944Y015302D01*
X014884Y015302D02*
X014884Y014602D01*
X014684Y014602D01*
X013884Y014602D02*
X013884Y015302D01*
X013824Y015302D01*
X012084Y014202D02*
X009884Y016402D01*
X008784Y016402D01*
X007284Y014902D01*
X006884Y014902D01*
X006184Y014502D02*
X009184Y014502D01*
X009984Y015302D01*
X010044Y015302D01*
X008984Y015302D02*
X008924Y015302D01*
X008984Y015302D02*
X008984Y016002D01*
X009684Y017202D02*
X009784Y017302D01*
X020184Y017302D01*
X020584Y017702D01*
X021084Y017702D01*
X021384Y018002D01*
X023584Y017002D02*
X031184Y017002D01*
X029784Y016002D02*
X029784Y015302D01*
X029744Y015302D01*
X028624Y015302D02*
X028584Y015302D01*
X027584Y014302D01*
X026884Y014302D01*
X025784Y014502D02*
X024384Y014502D01*
X022184Y014502D01*
X021784Y014902D01*
X021184Y014902D02*
X021984Y014102D01*
X024684Y014102D01*
X024784Y014002D01*
X025084Y013702D02*
X024984Y013602D01*
X023484Y013602D01*
X023284Y013802D01*
X019284Y013802D01*
X018684Y013802D02*
X001884Y013802D01*
X001884Y011102D01*
X002484Y010502D01*
X003584Y010502D01*
X003984Y010102D01*
X004024Y010102D01*
X003884Y010702D02*
X004484Y010702D01*
X005084Y010102D01*
X005144Y010102D01*
X004784Y009502D02*
X005584Y009502D01*
X006084Y010002D01*
X007784Y010002D01*
X009384Y008402D01*
X024084Y008402D01*
X028884Y008402D01*
X028984Y008502D01*
X040684Y008502D01*
X045484Y013302D01*
X046184Y014202D02*
X046384Y014202D01*
X046184Y014202D02*
X048784Y011602D01*
X048384Y010802D02*
X052184Y010802D01*
X052884Y010102D01*
X052924Y010102D01*
X054044Y010102D02*
X054084Y010102D01*
X054084Y010802D01*
X053384Y009002D02*
X047984Y009002D01*
X047184Y009802D01*
X046684Y009502D02*
X047984Y008202D01*
X053184Y008202D01*
X053184Y006902D01*
X052984Y006702D01*
X051584Y006702D01*
X049384Y004502D01*
X049344Y004502D01*
X048224Y004502D02*
X047884Y004502D01*
X047884Y005202D01*
X046684Y006002D02*
X049184Y006002D01*
X049184Y006602D02*
X046484Y006602D01*
X044384Y004502D01*
X044344Y004502D01*
X043284Y004502D02*
X043284Y003802D01*
X043284Y003202D02*
X030784Y003202D01*
X030584Y003002D01*
X029984Y003002D02*
X020284Y003002D01*
X018784Y004502D01*
X018724Y004502D01*
X019844Y004502D02*
X019884Y004502D01*
X019884Y005202D01*
X019484Y006202D02*
X024784Y006202D01*
X024584Y006602D02*
X031784Y006602D01*
X032784Y007002D02*
X014484Y007002D01*
X014784Y007302D02*
X014684Y007402D01*
X010984Y007402D01*
X010984Y006802D01*
X010784Y006602D01*
X009784Y006602D01*
X009584Y006402D01*
X007784Y006402D01*
X006684Y005302D01*
X007484Y004702D02*
X008684Y005902D01*
X009884Y006402D02*
X024384Y006402D01*
X024584Y006602D01*
X024484Y007302D02*
X024484Y007402D01*
X024484Y007302D02*
X028984Y007302D01*
X029084Y007402D01*
X029884Y006202D02*
X025384Y006202D01*
X023684Y004502D01*
X023624Y004502D01*
X024744Y004502D02*
X024784Y004502D01*
X024784Y003802D01*
X024484Y007302D02*
X014784Y007302D01*
X015184Y008002D02*
X015684Y007502D01*
X023484Y007502D01*
X023784Y007802D01*
X025684Y007802D01*
X025884Y008002D01*
X024884Y008902D02*
X024784Y008802D01*
X022984Y008802D01*
X023384Y009002D02*
X021984Y010402D01*
X021584Y010802D02*
X021584Y009002D01*
X013784Y009002D01*
X013784Y010102D02*
X013824Y010102D01*
X013784Y010102D02*
X012684Y009002D01*
X009084Y009002D01*
X008384Y009702D01*
X008384Y011902D01*
X019584Y011902D01*
X019684Y012002D01*
X019184Y012102D02*
X019684Y012602D01*
X024784Y012602D01*
X024484Y012902D02*
X024584Y013002D01*
X025184Y013002D01*
X025284Y012902D01*
X026884Y012902D01*
X028084Y013702D02*
X025084Y013702D01*
X024484Y012902D02*
X017284Y012902D01*
X016884Y013302D01*
X006584Y013302D01*
X006184Y012902D01*
X006784Y012902D02*
X012984Y012902D01*
X014184Y012502D02*
X008684Y012502D01*
X008484Y012102D02*
X019184Y012102D01*
X019384Y011502D02*
X010384Y011502D01*
X008984Y010102D01*
X008924Y010102D01*
X010044Y010102D02*
X010084Y010102D01*
X010084Y009402D01*
X010984Y008202D02*
X008984Y008202D01*
X007584Y009602D01*
X006884Y009602D01*
X006784Y009602D01*
X006884Y009602D02*
X005484Y008202D01*
X003884Y008202D01*
X003484Y008602D01*
X001684Y008602D01*
X001684Y021202D01*
X003184Y022702D01*
X006884Y022702D01*
X007584Y023402D01*
X007984Y023802D02*
X008084Y023902D01*
X011484Y023902D01*
X011784Y023602D01*
X024484Y023602D01*
X024684Y023202D02*
X010684Y023202D01*
X010384Y023502D01*
X010184Y022602D02*
X011984Y022602D01*
X012584Y022602D02*
X014884Y022602D01*
X014884Y020902D01*
X014944Y020902D01*
X014984Y020202D02*
X017584Y020202D01*
X019284Y018502D01*
X019284Y017702D02*
X015984Y017702D01*
X015184Y019502D02*
X014884Y019802D01*
X012384Y019802D01*
X011984Y020202D01*
X012584Y020202D02*
X014984Y020202D01*
X013884Y020902D02*
X013824Y020902D01*
X013884Y020902D02*
X013884Y021602D01*
X014084Y022002D02*
X013184Y022002D01*
X011384Y020202D01*
X011284Y020902D02*
X010184Y019802D01*
X009384Y019802D01*
X009984Y020202D02*
X009984Y020902D01*
X010044Y020902D01*
X008984Y020902D02*
X008984Y022202D01*
X010384Y022202D01*
X010084Y022502D02*
X010184Y022602D01*
X010084Y022502D02*
X005684Y022502D01*
X004084Y020902D01*
X004024Y020902D01*
X003884Y020202D02*
X004684Y019402D01*
X005784Y019402D01*
X014584Y019402D01*
X014084Y022002D02*
X014284Y022202D01*
X011984Y024002D02*
X025284Y024002D01*
X025284Y020502D01*
X025084Y020302D01*
X020484Y020302D01*
X019884Y020902D01*
X019844Y020902D01*
X018784Y020902D02*
X018724Y020902D01*
X018784Y020902D02*
X018784Y021602D01*
X021584Y023002D02*
X021784Y022802D01*
X021584Y023002D02*
X007984Y023002D01*
X006584Y023102D02*
X004084Y023102D01*
X004084Y026302D01*
X004024Y026302D01*
X004284Y027002D02*
X003284Y027002D01*
X003284Y037502D01*
X003784Y038002D01*
X010184Y038002D01*
X012584Y040402D01*
X011684Y040402D02*
X009684Y038402D01*
X007984Y038402D01*
X008784Y037802D02*
X008384Y037402D01*
X008384Y036402D01*
X012584Y036402D01*
X014384Y034602D01*
X014384Y030902D01*
X014944Y031702D02*
X014984Y031702D01*
X015684Y032402D01*
X018784Y032402D01*
X018784Y031702D02*
X018724Y031702D01*
X018784Y031702D02*
X018784Y031002D01*
X018484Y030502D02*
X011284Y030502D01*
X010084Y031702D01*
X010044Y031702D01*
X010784Y031902D02*
X009584Y033102D01*
X005984Y033102D01*
X005984Y033702D02*
X010684Y033702D01*
X010884Y033902D01*
X010884Y034902D01*
X011484Y034902D02*
X011884Y034502D01*
X012284Y034502D01*
X012484Y034702D01*
X012484Y036202D01*
X007184Y036202D01*
X005784Y037602D01*
X003684Y037602D01*
X003484Y037402D01*
X003484Y029202D01*
X010984Y029202D01*
X010184Y028802D02*
X005684Y028802D01*
X004584Y029702D02*
X015884Y029702D01*
X016884Y030102D02*
X006784Y030102D01*
X005184Y031702D01*
X005144Y031702D01*
X004584Y032102D02*
X004584Y029702D01*
X004024Y031702D02*
X003984Y031702D01*
X003984Y032402D01*
X004084Y032802D02*
X004184Y032802D01*
X004484Y032502D01*
X004484Y032202D01*
X004584Y032102D01*
X004884Y032602D02*
X005984Y033702D01*
X006084Y034302D02*
X009884Y034302D01*
X010284Y033902D02*
X010484Y034102D01*
X010284Y033902D02*
X005284Y033902D01*
X004984Y034202D01*
X005084Y035302D02*
X006084Y034302D01*
X006984Y035202D02*
X007084Y035302D01*
X011684Y035302D01*
X012084Y034902D01*
X011484Y034102D02*
X011484Y032302D01*
X011584Y031902D02*
X010784Y031902D01*
X011584Y031902D02*
X012284Y031202D01*
X013184Y031702D02*
X013824Y031702D01*
X015684Y032802D02*
X015684Y033602D01*
X011684Y037602D01*
X009584Y037602D01*
X008984Y037002D01*
X008924Y037002D01*
X008784Y037802D02*
X015084Y037802D01*
X015684Y038402D01*
X016284Y037802D02*
X016484Y037602D01*
X020484Y037602D01*
X021984Y036102D01*
X023624Y037002D02*
X023684Y037002D01*
X023684Y037702D01*
X024744Y037002D02*
X024784Y037002D01*
X025884Y035902D01*
X050884Y035902D01*
X052684Y035702D02*
X018184Y035702D01*
X017284Y034802D01*
X015984Y034902D02*
X015984Y034002D01*
X015984Y034902D02*
X013884Y037002D01*
X013824Y037002D01*
X014944Y037002D02*
X015584Y037002D01*
X016484Y037602D02*
X017084Y037002D01*
X017084Y036402D02*
X018084Y036402D01*
X018684Y037002D01*
X018724Y037002D01*
X019844Y037002D02*
X020484Y037002D01*
X020884Y038602D02*
X017084Y038602D01*
X015284Y040402D01*
X013884Y041502D02*
X034684Y041502D01*
X034584Y042702D02*
X034544Y042702D01*
X033424Y042702D02*
X032784Y042702D01*
X030384Y042702D02*
X029744Y042702D01*
X029284Y043502D02*
X019584Y043502D01*
X018784Y042702D01*
X018724Y042702D01*
X019844Y042702D02*
X020484Y042702D01*
X021984Y043902D02*
X011484Y043902D01*
X010184Y042602D01*
X010144Y042602D01*
X009024Y042602D02*
X008384Y042602D01*
X007184Y044602D02*
X007484Y044902D01*
X012284Y044902D01*
X012284Y045102D01*
X012284Y044902D02*
X016984Y044902D01*
X017384Y045302D01*
X015884Y045702D02*
X021884Y045702D01*
X021984Y045602D01*
X021984Y046202D02*
X015684Y046202D01*
X013884Y048002D01*
X013824Y048002D01*
X014284Y048602D02*
X014784Y049102D01*
X016684Y049102D01*
X019184Y046602D01*
X020384Y046602D01*
X019784Y047002D02*
X021884Y047002D01*
X022784Y047402D02*
X025384Y047402D01*
X025984Y048002D01*
X026284Y048602D02*
X025784Y049102D01*
X022484Y049102D01*
X020684Y050902D01*
X020684Y051602D02*
X021484Y050802D01*
X026384Y050802D01*
X026184Y049302D02*
X025684Y049302D01*
X024584Y050402D01*
X024684Y048702D02*
X024684Y048002D01*
X024744Y048002D01*
X023624Y048002D02*
X023584Y048002D01*
X023384Y047802D01*
X022984Y047802D01*
X022784Y047402D02*
X021084Y049102D01*
X017084Y049102D01*
X014184Y052002D01*
X010384Y052002D01*
X008984Y053402D01*
X008924Y053402D01*
X010044Y053402D02*
X010684Y053402D01*
X011084Y051802D02*
X013884Y049002D01*
X014284Y048602D02*
X005784Y048602D01*
X005184Y048002D01*
X005144Y048002D01*
X004584Y047402D02*
X003984Y048002D01*
X004024Y048002D01*
X003184Y049002D02*
X003184Y046302D01*
X002284Y046302D01*
X003184Y049002D02*
X006984Y049002D01*
X006684Y050302D02*
X009384Y050302D01*
X009584Y050802D02*
X010584Y049802D01*
X009584Y050802D02*
X007584Y050802D01*
X007484Y050902D01*
X007284Y051302D02*
X009384Y051302D01*
X008884Y051802D02*
X011084Y051802D01*
X008884Y051802D02*
X007784Y052902D01*
X006384Y052802D02*
X005784Y053402D01*
X005144Y053402D01*
X004084Y053402D02*
X004024Y053402D01*
X004084Y053402D02*
X004084Y056202D01*
X023784Y056102D01*
X023184Y054102D02*
X023184Y053402D01*
X023624Y053402D01*
X024744Y053402D02*
X024784Y053402D01*
X025884Y054502D01*
X028484Y054502D01*
X029184Y053802D01*
X029184Y051402D01*
X028884Y051402D01*
X028084Y050602D01*
X029084Y051002D02*
X029684Y051002D01*
X029684Y053402D01*
X029744Y053402D01*
X028624Y053402D02*
X028184Y053402D01*
X028184Y054102D01*
X025584Y054902D02*
X018884Y054902D01*
X016984Y053002D01*
X016184Y054402D02*
X015184Y053402D01*
X014944Y053402D01*
X014684Y052602D02*
X018984Y052602D01*
X019584Y052602D02*
X018784Y053402D01*
X018724Y053402D01*
X019584Y052602D02*
X019684Y052602D01*
X019784Y053402D02*
X019844Y053402D01*
X019784Y053402D02*
X020384Y054002D01*
X019884Y048702D02*
X019884Y048002D01*
X019844Y048002D01*
X019784Y047002D02*
X018784Y048002D01*
X018724Y048002D01*
X015884Y045702D02*
X014784Y046802D01*
X011284Y046802D01*
X010084Y048002D01*
X010044Y048002D01*
X008924Y048002D02*
X008784Y048002D01*
X008284Y047502D01*
X009284Y046802D02*
X009284Y046602D01*
X010384Y046602D01*
X010984Y046002D01*
X010284Y045602D02*
X007184Y045602D01*
X007184Y046602D02*
X009284Y046602D01*
X006684Y050302D02*
X006384Y050602D01*
X006884Y050902D02*
X007284Y051302D01*
X013824Y053402D02*
X013884Y053402D01*
X014684Y052602D01*
X014984Y048702D02*
X014984Y048002D01*
X014944Y048002D01*
X015884Y044702D02*
X015684Y044502D01*
X015884Y044702D02*
X023084Y044702D01*
X023784Y045402D01*
X023884Y045502D01*
X044784Y045502D01*
X044984Y045302D01*
X045584Y045702D02*
X045984Y045302D01*
X048784Y045302D01*
X049184Y045702D02*
X046484Y045702D01*
X045584Y045702D02*
X028684Y045702D01*
X028484Y045902D01*
X028184Y046302D02*
X035384Y046302D01*
X038584Y049502D01*
X052684Y049502D01*
X053484Y050302D01*
X052784Y049102D02*
X053484Y048402D01*
X053484Y046102D01*
X052284Y046102D01*
X055984Y042402D01*
X054044Y042702D02*
X053884Y042702D01*
X053884Y042002D01*
X050884Y043002D02*
X049684Y043002D01*
X049384Y042702D01*
X049344Y042702D01*
X048284Y042702D02*
X048284Y042002D01*
X048284Y042702D02*
X048224Y042702D01*
X048784Y041002D02*
X038184Y041002D01*
X038184Y040602D01*
X034584Y037002D01*
X034544Y037002D01*
X033424Y037002D02*
X032784Y037002D01*
X030084Y036702D02*
X029784Y037002D01*
X029744Y037002D01*
X029184Y037602D02*
X028584Y037002D01*
X028624Y037002D01*
X028784Y032802D02*
X047684Y032802D01*
X048784Y033002D02*
X054584Y033002D01*
X054044Y031702D02*
X053984Y031702D01*
X053384Y031102D01*
X051084Y031102D01*
X050784Y031402D01*
X050084Y031002D02*
X049384Y031702D01*
X049344Y031702D01*
X048784Y031302D02*
X048784Y033002D01*
X048284Y031702D02*
X048224Y031702D01*
X048284Y031702D02*
X047684Y031102D01*
X047884Y030702D02*
X048184Y030702D01*
X048784Y031302D01*
X047884Y030702D02*
X047884Y029602D01*
X046884Y029202D02*
X050384Y029202D01*
X050284Y028402D02*
X044984Y028402D01*
X044184Y029202D02*
X040884Y029202D01*
X038384Y031702D01*
X038324Y031702D01*
X039444Y031702D02*
X039484Y031702D01*
X039484Y032402D01*
X041084Y034602D02*
X020684Y034602D01*
X020784Y033102D02*
X024584Y033102D01*
X026884Y030802D01*
X029484Y030802D01*
X029584Y030702D01*
X029284Y031102D02*
X030284Y031102D01*
X029784Y031702D02*
X029744Y031702D01*
X029784Y031702D02*
X029784Y032402D01*
X028784Y032802D02*
X027184Y031202D01*
X028624Y031702D02*
X028684Y031702D01*
X029284Y031102D01*
X029284Y029702D02*
X019584Y029702D01*
X019384Y030102D02*
X018884Y029602D01*
X018884Y028802D01*
X019784Y028802D01*
X020084Y029102D01*
X034384Y029102D01*
X035584Y027902D01*
X047884Y027902D01*
X046884Y029202D02*
X044384Y031702D01*
X044344Y031702D01*
X043284Y031702D02*
X043284Y031002D01*
X043284Y031702D02*
X043224Y031702D01*
X042384Y033302D02*
X041084Y034602D01*
X039484Y037002D02*
X039444Y037002D01*
X039484Y037002D02*
X042684Y040202D01*
X051084Y040202D01*
X051184Y040302D01*
X050384Y041602D02*
X045484Y041602D01*
X044384Y042702D01*
X044344Y042702D01*
X043224Y042702D02*
X042584Y042702D01*
X040684Y043902D02*
X050384Y043902D01*
X051684Y045202D01*
X051884Y046102D02*
X052284Y046102D01*
X052584Y047702D02*
X050384Y047702D01*
X049984Y048102D02*
X049484Y048102D01*
X049384Y048002D01*
X049344Y048002D01*
X050284Y048602D02*
X050384Y048502D01*
X050284Y048602D02*
X040084Y048602D01*
X039484Y048002D01*
X039444Y048002D01*
X038324Y048002D02*
X037684Y048002D01*
X038584Y046502D02*
X048384Y046502D01*
X048784Y046102D01*
X048184Y046102D02*
X038184Y046102D01*
X040684Y043902D02*
X039484Y042702D01*
X039444Y042702D01*
X038324Y042702D02*
X037684Y042702D01*
X037284Y041902D02*
X029484Y041902D01*
X028684Y042702D01*
X028624Y042702D01*
X025984Y042002D02*
X024384Y042002D01*
X023684Y042702D01*
X023624Y042702D01*
X024744Y042702D02*
X025384Y042702D01*
X023384Y040402D02*
X023084Y040402D01*
X022684Y040802D01*
X011484Y040802D01*
X011284Y040602D01*
X005184Y040602D01*
X005184Y042702D01*
X005144Y042702D01*
X004024Y042702D02*
X003784Y042702D01*
X003384Y042302D01*
X004024Y037002D02*
X004084Y037002D01*
X004084Y032802D01*
X005144Y037002D02*
X005784Y037002D01*
X010044Y037002D02*
X010684Y037002D01*
X013884Y041502D02*
X013884Y042702D01*
X013824Y042702D01*
X014784Y042702D02*
X014784Y042002D01*
X014784Y042702D02*
X014944Y042702D01*
X023884Y045502D02*
X025284Y046902D01*
X026684Y046902D01*
X026684Y048802D01*
X026184Y049302D01*
X028084Y048602D02*
X028484Y049002D01*
X030084Y049002D01*
X034484Y053402D01*
X034544Y053402D01*
X033424Y053402D02*
X032984Y053402D01*
X032984Y054102D01*
X032784Y054502D02*
X041184Y054502D01*
X044584Y051102D01*
X049284Y051102D01*
X049884Y051102D02*
X050584Y051102D01*
X052884Y053402D01*
X052924Y053402D01*
X053484Y054002D02*
X054084Y053402D01*
X054044Y053402D01*
X050884Y050702D02*
X050084Y049902D01*
X036484Y049902D01*
X034584Y048002D01*
X034544Y048002D01*
X034584Y048602D02*
X029184Y048602D01*
X029684Y048002D02*
X029744Y048002D01*
X029684Y048002D02*
X028184Y046502D01*
X025984Y046502D01*
X027884Y046002D02*
X028184Y046302D01*
X027984Y048002D02*
X028624Y048002D01*
X032784Y048002D02*
X033424Y048002D01*
X034584Y048602D02*
X039384Y053402D01*
X039444Y053402D01*
X038684Y053402D02*
X038684Y054102D01*
X038684Y053402D02*
X038324Y053402D01*
X043224Y053402D02*
X043284Y053402D01*
X044684Y052002D01*
X044684Y051502D01*
X048384Y051502D01*
X047384Y052602D02*
X048184Y053402D01*
X048224Y053402D01*
X049344Y053402D02*
X049384Y053402D01*
X049384Y054102D01*
X050184Y050602D02*
X046284Y050602D01*
X045984Y050302D01*
X045384Y048202D02*
X044584Y048202D01*
X044384Y048002D01*
X044344Y048002D01*
X043224Y048002D02*
X042584Y048002D01*
X045784Y046902D02*
X047484Y046902D01*
X047884Y047302D01*
X047584Y048002D02*
X048224Y048002D01*
X052584Y047702D02*
X052884Y048002D01*
X052924Y048002D01*
X054044Y048002D02*
X054684Y048002D01*
X048084Y040602D02*
X038584Y040602D01*
X038324Y037002D02*
X037684Y037002D01*
X034584Y032402D02*
X034584Y031702D01*
X034544Y031702D01*
X033484Y031702D02*
X033484Y030702D01*
X034084Y030302D02*
X023784Y030302D01*
X023584Y030502D01*
X023584Y031702D02*
X023624Y031702D01*
X023584Y031702D02*
X021984Y030102D01*
X019384Y030102D01*
X019384Y029302D02*
X019284Y029202D01*
X019384Y029302D02*
X034784Y029302D01*
X035784Y028302D01*
X035584Y028802D02*
X034084Y030302D01*
X033484Y031702D02*
X033424Y031702D01*
X035584Y028802D02*
X051184Y028802D01*
X051184Y026802D01*
X050084Y025702D01*
X048884Y025702D01*
X048284Y026302D01*
X048224Y026302D01*
X049284Y026302D02*
X049344Y026302D01*
X049284Y026302D02*
X049284Y027002D01*
X050284Y027402D02*
X035484Y027402D01*
X034784Y028102D01*
X034584Y027002D02*
X034584Y026302D01*
X034544Y026302D01*
X034184Y025602D02*
X034584Y025202D01*
X050584Y025202D01*
X051784Y025702D02*
X053384Y025702D01*
X053984Y026302D01*
X054044Y026302D01*
X052984Y026302D02*
X052924Y026302D01*
X052984Y026302D02*
X052984Y027002D01*
X052984Y031702D02*
X052924Y031702D01*
X052984Y031702D02*
X052984Y032402D01*
X053684Y036302D02*
X053984Y036302D01*
X053684Y036302D02*
X052984Y037002D01*
X052924Y037002D01*
X054044Y037002D02*
X054084Y037002D01*
X054084Y037702D01*
X053184Y038102D02*
X043284Y038102D01*
X043284Y037002D01*
X043224Y037002D01*
X043784Y037602D02*
X044384Y037002D01*
X044344Y037002D01*
X039484Y027002D02*
X039484Y026302D01*
X039444Y026302D01*
X038324Y026302D02*
X038284Y026302D01*
X037584Y027002D01*
X037084Y027002D01*
X036484Y025702D02*
X033484Y028702D01*
X031584Y028702D01*
X030984Y028702D02*
X030284Y028702D01*
X029684Y028902D02*
X020184Y028902D01*
X019684Y028402D01*
X019584Y028402D01*
X021284Y028502D02*
X024684Y028502D01*
X024684Y026302D01*
X024744Y026302D01*
X023684Y026302D02*
X023624Y026302D01*
X023684Y026302D02*
X023684Y027002D01*
X023884Y024402D02*
X007984Y024402D01*
X007184Y024602D02*
X008884Y026302D01*
X008924Y026302D01*
X009484Y025702D02*
X011984Y025702D01*
X013684Y027402D01*
X016384Y027402D01*
X018784Y025002D01*
X033284Y025002D01*
X039884Y018402D01*
X045684Y018402D01*
X046484Y018602D02*
X053984Y018602D01*
X053984Y015302D01*
X054044Y015302D01*
X052984Y015302D02*
X052924Y015302D01*
X052984Y015302D02*
X052984Y016002D01*
X049344Y015302D02*
X049284Y015302D01*
X048584Y014602D01*
X044084Y014602D01*
X044284Y015302D02*
X044344Y015302D01*
X044284Y015302D02*
X044284Y016102D01*
X043884Y016102D01*
X043284Y016002D02*
X043284Y015302D01*
X043224Y015302D01*
X041884Y014202D02*
X039684Y016402D01*
X027684Y016402D01*
X027584Y016302D01*
X027684Y016202D01*
X027584Y016302D02*
X025784Y014502D01*
X024784Y015302D02*
X024784Y016002D01*
X024784Y015302D02*
X024744Y015302D01*
X023624Y015302D02*
X023584Y015302D01*
X023284Y015602D01*
X021784Y015602D01*
X019844Y015302D02*
X019784Y015302D01*
X019784Y014202D01*
X012084Y014202D01*
X012184Y011202D02*
X012084Y011102D01*
X012184Y011202D02*
X019084Y011202D01*
X019184Y011102D01*
X020784Y011102D01*
X021784Y012102D01*
X042184Y012102D01*
X043384Y011702D02*
X043584Y011902D01*
X043584Y012502D01*
X038784Y012502D01*
X038584Y012302D01*
X029484Y012302D01*
X028084Y013702D01*
X029484Y011702D02*
X029284Y011502D01*
X022284Y011502D01*
X021584Y010802D01*
X021184Y010902D02*
X019584Y010902D01*
X018784Y010102D01*
X018724Y010102D01*
X019844Y010102D02*
X019884Y010102D01*
X019884Y009402D01*
X022284Y010902D02*
X022684Y011302D01*
X030684Y011302D01*
X030684Y010702D01*
X030484Y010502D01*
X030184Y010502D01*
X029784Y010102D01*
X029744Y010102D01*
X029084Y010102D02*
X029084Y009402D01*
X029084Y010102D02*
X028624Y010102D01*
X030684Y012902D02*
X030984Y012902D01*
X033384Y015302D01*
X033424Y015302D01*
X034544Y015302D02*
X034584Y015302D01*
X034584Y016002D01*
X036384Y018002D02*
X046684Y018002D01*
X048384Y019802D02*
X039484Y019802D01*
X038384Y020902D01*
X038324Y020902D01*
X039444Y020902D02*
X039484Y020902D01*
X039484Y021602D01*
X043224Y020902D02*
X043284Y020902D01*
X043984Y020202D01*
X047484Y020202D01*
X047484Y020802D02*
X048084Y020802D01*
X048184Y020902D01*
X048224Y020902D01*
X047584Y021502D02*
X049684Y021502D01*
X050884Y020302D01*
X053384Y020302D01*
X053984Y020902D01*
X054044Y020902D01*
X052984Y020902D02*
X052924Y020902D01*
X052984Y020902D02*
X052984Y021602D01*
X049384Y020902D02*
X049384Y020202D01*
X049384Y020902D02*
X049344Y020902D01*
X044384Y020902D02*
X044344Y020902D01*
X044384Y020902D02*
X044384Y021602D01*
X044384Y025602D02*
X044384Y026302D01*
X044344Y026302D01*
X043224Y026302D02*
X043184Y026302D01*
X042584Y025702D01*
X036484Y025702D01*
X033424Y026302D02*
X033384Y026302D01*
X030984Y028702D01*
X029684Y028902D02*
X029684Y026302D01*
X029744Y026302D01*
X028684Y026302D02*
X028624Y026302D01*
X028684Y026302D02*
X028684Y027002D01*
X029684Y024802D02*
X011984Y024802D01*
X013824Y026302D02*
X013884Y026302D01*
X013884Y027002D01*
X014944Y026302D02*
X014984Y026302D01*
X014984Y025202D01*
X011784Y027202D02*
X010184Y028802D01*
X009484Y028302D02*
X007884Y028302D01*
X007784Y028402D01*
X009884Y027002D02*
X009884Y026302D01*
X010044Y026302D01*
X008984Y031002D02*
X008984Y031702D01*
X008924Y031702D01*
X005184Y027002D02*
X005184Y026302D01*
X005144Y026302D01*
X003184Y021602D02*
X002684Y021602D01*
X003184Y021602D02*
X003184Y014702D01*
X004024Y015302D02*
X004084Y015302D01*
X004084Y016002D01*
X005144Y015302D02*
X005184Y015302D01*
X005184Y014502D01*
X004884Y012602D02*
X004984Y012502D01*
X008084Y012502D01*
X008484Y012102D01*
X007184Y010402D02*
X006284Y011302D01*
X002284Y011302D01*
X003684Y010902D02*
X003884Y010702D01*
X004084Y009402D02*
X004684Y009402D01*
X004784Y009502D01*
X004484Y009002D02*
X005684Y009002D01*
X006184Y009502D01*
X005684Y008102D02*
X005584Y008002D01*
X002884Y008002D01*
X002084Y008202D02*
X003084Y007202D01*
X004484Y007202D01*
X004584Y007302D01*
X006684Y007302D01*
X006784Y007202D01*
X007684Y007202D02*
X007784Y007302D01*
X008584Y007302D01*
X008784Y007502D01*
X008784Y008102D01*
X005684Y008102D01*
X004484Y009002D02*
X004084Y008602D01*
X003684Y009002D02*
X004084Y009402D01*
X004084Y007002D02*
X002084Y007002D01*
X003784Y006102D02*
X004784Y006102D01*
X005584Y005302D01*
X005184Y004502D02*
X005144Y004502D01*
X005184Y004502D02*
X005384Y004302D01*
X007784Y004302D01*
X009884Y006402D01*
X010984Y007402D02*
X010984Y008202D01*
X014944Y010102D02*
X014984Y010102D01*
X014984Y010802D01*
X018784Y014602D02*
X018784Y015302D01*
X018724Y015302D01*
X017984Y018502D02*
X007584Y018502D01*
X006784Y017702D01*
X005184Y020202D02*
X005184Y020902D01*
X005144Y020902D01*
X008924Y020902D02*
X008984Y020902D01*
X018784Y025602D02*
X018784Y026302D01*
X018724Y026302D01*
X019844Y026302D02*
X019884Y026302D01*
X020184Y026602D01*
X020484Y026602D01*
X024684Y023202D02*
X024684Y020902D01*
X024744Y020902D01*
X023684Y020902D02*
X023624Y020902D01*
X023684Y020902D02*
X023684Y021602D01*
X028624Y020902D02*
X028684Y020902D01*
X028684Y021602D01*
X029684Y020902D02*
X029744Y020902D01*
X029684Y020902D02*
X029684Y024802D01*
X033424Y020902D02*
X033484Y020902D01*
X036384Y018002D01*
X038284Y015302D02*
X038324Y015302D01*
X038284Y015302D02*
X035884Y012902D01*
X034684Y012902D01*
X036184Y011702D02*
X043384Y011702D01*
X044384Y010802D02*
X044384Y010102D01*
X044344Y010102D01*
X043284Y010102D02*
X043224Y010102D01*
X043284Y010102D02*
X045684Y007702D01*
X048084Y007702D01*
X048284Y009402D02*
X048384Y009402D01*
X048284Y009402D02*
X048284Y010102D01*
X048224Y010102D01*
X049344Y010102D02*
X049384Y010102D01*
X049384Y009402D01*
X046684Y006002D02*
X046184Y005502D01*
X045584Y007102D02*
X044184Y008502D01*
X040684Y008502D01*
X039444Y010102D02*
X039384Y010102D01*
X038184Y008902D01*
X024884Y008902D01*
X024684Y009002D02*
X023384Y009002D01*
X023684Y009402D02*
X023684Y010102D01*
X023624Y010102D01*
X024684Y010102D02*
X024684Y009002D01*
X024684Y010102D02*
X024744Y010102D01*
X028484Y005802D02*
X029084Y005802D01*
X028484Y005802D02*
X028484Y005002D01*
X028584Y004902D01*
X028584Y004502D01*
X028624Y004502D01*
X029744Y004502D02*
X030484Y004502D01*
X030884Y004102D01*
X031484Y002602D02*
X015784Y002602D01*
X013884Y004502D01*
X013824Y004502D01*
X014944Y004502D02*
X014984Y004502D01*
X014984Y005202D01*
X016284Y003002D02*
X019484Y006202D01*
X012384Y002202D02*
X031884Y002202D01*
X033424Y004502D02*
X033484Y004502D01*
X033484Y005202D01*
X034544Y004502D02*
X034584Y004502D01*
X037684Y007602D01*
X044484Y007602D01*
X041684Y005102D02*
X040084Y005102D01*
X039484Y004502D01*
X039444Y004502D01*
X038384Y004502D02*
X038384Y003802D01*
X038384Y004502D02*
X038324Y004502D01*
X043224Y004502D02*
X043284Y004502D01*
X038384Y010102D02*
X038324Y010102D01*
X038384Y010102D02*
X038384Y010802D01*
X036184Y011702D02*
X034584Y010102D01*
X034544Y010102D01*
X033484Y010102D02*
X033424Y010102D01*
X033484Y010102D02*
X033484Y010802D01*
X033884Y008102D02*
X032784Y007002D01*
X039444Y015302D02*
X039484Y015302D01*
X039484Y016002D01*
X041884Y014202D02*
X046184Y014202D01*
X048224Y015302D02*
X048284Y015302D01*
X048284Y016002D01*
X053384Y009002D02*
X053384Y006802D01*
X053084Y006502D01*
X052984Y006502D01*
X052984Y004502D01*
X052924Y004502D01*
X054044Y004502D02*
X054484Y004502D01*
X054684Y004702D01*
X034584Y020902D02*
X034544Y020902D01*
X034584Y020902D02*
X034584Y021602D01*
X024784Y031002D02*
X024784Y031702D01*
X024744Y031702D01*
X020484Y031802D02*
X019984Y031802D01*
X019884Y031702D01*
X019844Y031702D01*
X030184Y051902D02*
X032784Y054502D01*
X044384Y054102D02*
X044384Y053402D01*
X044344Y053402D01*
X004084Y007002D02*
X004284Y006802D01*
X004084Y005202D02*
X004084Y004502D01*
X004024Y004502D01*
X008284Y003902D02*
X008884Y004502D01*
X008924Y004502D01*
X010044Y004502D02*
X010084Y004502D01*
X012384Y002202D01*
M02*
