G75*
G70*
%OFA0B0*%
%FSLAX24Y24*%
%IPPOS*%
%LPD*%
%AMOC8*
5,1,8,0,0,1.08239X$1,22.5*
%
%ADD10C,0.0060*%
%ADD11C,0.0080*%
%ADD12C,0.0010*%
%ADD13R,0.0200X0.0200*%
%ADD14C,0.0020*%
%ADD15R,0.0230X0.0160*%
%ADD16C,0.0160*%
%ADD17C,0.0050*%
%ADD18C,0.0100*%
%ADD19C,0.0040*%
%ADD20R,0.0300X0.0340*%
D10*
X003566Y004265D02*
X003802Y004265D01*
X003802Y004738D02*
X003566Y004738D01*
X004484Y006682D02*
X004484Y007922D01*
X004486Y007945D01*
X004491Y007968D01*
X004500Y007990D01*
X004513Y008010D01*
X004528Y008028D01*
X004546Y008043D01*
X004566Y008056D01*
X004588Y008065D01*
X004611Y008070D01*
X004634Y008072D01*
X004484Y006682D02*
X004486Y006659D01*
X004491Y006636D01*
X004500Y006614D01*
X004513Y006594D01*
X004528Y006576D01*
X004546Y006561D01*
X004566Y006548D01*
X004588Y006539D01*
X004611Y006534D01*
X004634Y006532D01*
X003302Y009865D02*
X003066Y009865D01*
X003066Y010338D02*
X003302Y010338D01*
X004484Y011882D02*
X004484Y013122D01*
X004486Y013145D01*
X004491Y013168D01*
X004500Y013190D01*
X004513Y013210D01*
X004528Y013228D01*
X004546Y013243D01*
X004566Y013256D01*
X004588Y013265D01*
X004611Y013270D01*
X004634Y013272D01*
X004484Y011882D02*
X004486Y011859D01*
X004491Y011836D01*
X004500Y011814D01*
X004513Y011794D01*
X004528Y011776D01*
X004546Y011761D01*
X004566Y011748D01*
X004588Y011739D01*
X004611Y011734D01*
X004634Y011732D01*
X003802Y015065D02*
X003566Y015065D01*
X003566Y015538D02*
X003802Y015538D01*
X008466Y015538D02*
X008702Y015538D01*
X008702Y015065D02*
X008466Y015065D01*
X008484Y013122D02*
X008484Y012702D01*
X008484Y012302D01*
X008484Y011882D01*
X008482Y011859D01*
X008477Y011836D01*
X008468Y011814D01*
X008455Y011794D01*
X008440Y011776D01*
X008422Y011761D01*
X008402Y011748D01*
X008380Y011739D01*
X008357Y011734D01*
X008334Y011732D01*
X008484Y012302D02*
X008457Y012304D01*
X008430Y012309D01*
X008404Y012319D01*
X008380Y012331D01*
X008358Y012347D01*
X008338Y012365D01*
X008321Y012387D01*
X008306Y012410D01*
X008296Y012435D01*
X008288Y012461D01*
X008284Y012488D01*
X008284Y012516D01*
X008288Y012543D01*
X008296Y012569D01*
X008306Y012594D01*
X008321Y012617D01*
X008338Y012639D01*
X008358Y012657D01*
X008380Y012673D01*
X008404Y012685D01*
X008430Y012695D01*
X008457Y012700D01*
X008484Y012702D01*
X008484Y013122D02*
X008482Y013145D01*
X008477Y013168D01*
X008468Y013190D01*
X008455Y013210D01*
X008440Y013228D01*
X008422Y013243D01*
X008402Y013256D01*
X008380Y013265D01*
X008357Y013270D01*
X008334Y013272D01*
X008748Y010820D02*
X008748Y010583D01*
X009220Y010583D02*
X009220Y010820D01*
X010266Y010338D02*
X010502Y010338D01*
X010502Y009865D02*
X010266Y009865D01*
X008484Y007922D02*
X008484Y007502D01*
X008484Y007102D01*
X008484Y006682D01*
X008482Y006659D01*
X008477Y006636D01*
X008468Y006614D01*
X008455Y006594D01*
X008440Y006576D01*
X008422Y006561D01*
X008402Y006548D01*
X008380Y006539D01*
X008357Y006534D01*
X008334Y006532D01*
X008748Y007183D02*
X008748Y007420D01*
X008484Y007502D02*
X008457Y007500D01*
X008430Y007495D01*
X008404Y007485D01*
X008380Y007473D01*
X008358Y007457D01*
X008338Y007439D01*
X008321Y007417D01*
X008306Y007394D01*
X008296Y007369D01*
X008288Y007343D01*
X008284Y007316D01*
X008284Y007288D01*
X008288Y007261D01*
X008296Y007235D01*
X008306Y007210D01*
X008321Y007187D01*
X008338Y007165D01*
X008358Y007147D01*
X008380Y007131D01*
X008404Y007119D01*
X008430Y007109D01*
X008457Y007104D01*
X008484Y007102D01*
X009220Y007183D02*
X009220Y007420D01*
X008484Y007922D02*
X008482Y007945D01*
X008477Y007968D01*
X008468Y007990D01*
X008455Y008010D01*
X008440Y008028D01*
X008422Y008043D01*
X008402Y008056D01*
X008380Y008065D01*
X008357Y008070D01*
X008334Y008072D01*
X008466Y004738D02*
X008702Y004738D01*
X008702Y004265D02*
X008466Y004265D01*
X015166Y004265D02*
X015402Y004265D01*
X015402Y004738D02*
X015166Y004738D01*
X020066Y004738D02*
X020302Y004738D01*
X020302Y004265D02*
X020066Y004265D01*
X024966Y004265D02*
X025202Y004265D01*
X025202Y004738D02*
X024966Y004738D01*
X027948Y004820D02*
X027948Y004583D01*
X028420Y004583D02*
X028420Y004820D01*
X028864Y005502D02*
X029284Y005502D01*
X029684Y005502D01*
X030104Y005502D01*
X030127Y005504D01*
X030150Y005509D01*
X030172Y005518D01*
X030192Y005531D01*
X030210Y005546D01*
X030225Y005564D01*
X030238Y005584D01*
X030247Y005606D01*
X030252Y005629D01*
X030254Y005652D01*
X029684Y005502D02*
X029682Y005529D01*
X029677Y005556D01*
X029667Y005582D01*
X029655Y005606D01*
X029639Y005628D01*
X029621Y005648D01*
X029599Y005665D01*
X029576Y005680D01*
X029551Y005690D01*
X029525Y005698D01*
X029498Y005702D01*
X029470Y005702D01*
X029443Y005698D01*
X029417Y005690D01*
X029392Y005680D01*
X029369Y005665D01*
X029347Y005648D01*
X029329Y005628D01*
X029313Y005606D01*
X029301Y005582D01*
X029291Y005556D01*
X029286Y005529D01*
X029284Y005502D01*
X028864Y005502D02*
X028841Y005504D01*
X028818Y005509D01*
X028796Y005518D01*
X028776Y005531D01*
X028758Y005546D01*
X028743Y005564D01*
X028730Y005584D01*
X028721Y005606D01*
X028716Y005629D01*
X028714Y005652D01*
X029966Y004738D02*
X030202Y004738D01*
X030202Y004265D02*
X029966Y004265D01*
X032966Y004265D02*
X033202Y004265D01*
X033202Y004738D02*
X032966Y004738D01*
X037866Y004738D02*
X038102Y004738D01*
X038102Y004265D02*
X037866Y004265D01*
X042766Y004265D02*
X043002Y004265D01*
X043002Y004738D02*
X042766Y004738D01*
X044284Y006882D02*
X044284Y008122D01*
X044286Y008145D01*
X044291Y008168D01*
X044300Y008190D01*
X044313Y008210D01*
X044328Y008228D01*
X044346Y008243D01*
X044366Y008256D01*
X044388Y008265D01*
X044411Y008270D01*
X044434Y008272D01*
X044284Y006882D02*
X044286Y006859D01*
X044291Y006836D01*
X044300Y006814D01*
X044313Y006794D01*
X044328Y006776D01*
X044346Y006761D01*
X044366Y006748D01*
X044388Y006739D01*
X044411Y006734D01*
X044434Y006732D01*
X047366Y004738D02*
X047602Y004738D01*
X047602Y004265D02*
X047366Y004265D01*
X047002Y003538D02*
X046766Y003538D01*
X046766Y003065D02*
X047002Y003065D01*
X047002Y002938D02*
X046766Y002938D01*
X046766Y002465D02*
X047002Y002465D01*
X048134Y006732D02*
X048157Y006734D01*
X048180Y006739D01*
X048202Y006748D01*
X048222Y006761D01*
X048240Y006776D01*
X048255Y006794D01*
X048268Y006814D01*
X048277Y006836D01*
X048282Y006859D01*
X048284Y006882D01*
X048284Y007302D01*
X048284Y007702D01*
X048284Y008122D01*
X048282Y008145D01*
X048277Y008168D01*
X048268Y008190D01*
X048255Y008210D01*
X048240Y008228D01*
X048222Y008243D01*
X048202Y008256D01*
X048180Y008265D01*
X048157Y008270D01*
X048134Y008272D01*
X048548Y007620D02*
X048548Y007383D01*
X048284Y007302D02*
X048257Y007304D01*
X048230Y007309D01*
X048204Y007319D01*
X048180Y007331D01*
X048158Y007347D01*
X048138Y007365D01*
X048121Y007387D01*
X048106Y007410D01*
X048096Y007435D01*
X048088Y007461D01*
X048084Y007488D01*
X048084Y007516D01*
X048088Y007543D01*
X048096Y007569D01*
X048106Y007594D01*
X048121Y007617D01*
X048138Y007639D01*
X048158Y007657D01*
X048180Y007673D01*
X048204Y007685D01*
X048230Y007695D01*
X048257Y007700D01*
X048284Y007702D01*
X049020Y007620D02*
X049020Y007383D01*
X049566Y009865D02*
X049802Y009865D01*
X049802Y010338D02*
X049566Y010338D01*
X054266Y010338D02*
X054502Y010338D01*
X054502Y009865D02*
X054266Y009865D01*
X055048Y005220D02*
X055048Y004983D01*
X055520Y004983D02*
X055520Y005220D01*
X052702Y015065D02*
X052466Y015065D01*
X052466Y015538D02*
X052702Y015538D01*
X048920Y018083D02*
X048920Y018320D01*
X048448Y018320D02*
X048448Y018083D01*
X048184Y018002D02*
X048184Y018402D01*
X048184Y018822D01*
X048182Y018845D01*
X048177Y018868D01*
X048168Y018890D01*
X048155Y018910D01*
X048140Y018928D01*
X048122Y018943D01*
X048102Y018956D01*
X048080Y018965D01*
X048057Y018970D01*
X048034Y018972D01*
X048184Y018402D02*
X048157Y018400D01*
X048130Y018395D01*
X048104Y018385D01*
X048080Y018373D01*
X048058Y018357D01*
X048038Y018339D01*
X048021Y018317D01*
X048006Y018294D01*
X047996Y018269D01*
X047988Y018243D01*
X047984Y018216D01*
X047984Y018188D01*
X047988Y018161D01*
X047996Y018135D01*
X048006Y018110D01*
X048021Y018087D01*
X048038Y018065D01*
X048058Y018047D01*
X048080Y018031D01*
X048104Y018019D01*
X048130Y018009D01*
X048157Y018004D01*
X048184Y018002D01*
X048184Y017582D01*
X048182Y017559D01*
X048177Y017536D01*
X048168Y017514D01*
X048155Y017494D01*
X048140Y017476D01*
X048122Y017461D01*
X048102Y017448D01*
X048080Y017439D01*
X048057Y017434D01*
X048034Y017432D01*
X048002Y015538D02*
X047766Y015538D01*
X047766Y015065D02*
X048002Y015065D01*
X044334Y017432D02*
X044311Y017434D01*
X044288Y017439D01*
X044266Y017448D01*
X044246Y017461D01*
X044228Y017476D01*
X044213Y017494D01*
X044200Y017514D01*
X044191Y017536D01*
X044186Y017559D01*
X044184Y017582D01*
X044184Y018822D01*
X044186Y018845D01*
X044191Y018868D01*
X044200Y018890D01*
X044213Y018910D01*
X044228Y018928D01*
X044246Y018943D01*
X044266Y018956D01*
X044288Y018965D01*
X044311Y018970D01*
X044334Y018972D01*
X044566Y020665D02*
X044802Y020665D01*
X044802Y021138D02*
X044566Y021138D01*
X039902Y021138D02*
X039666Y021138D01*
X039666Y020665D02*
X039902Y020665D01*
X039902Y015538D02*
X039666Y015538D01*
X039666Y015065D02*
X039902Y015065D01*
X042766Y015065D02*
X043002Y015065D01*
X043002Y015538D02*
X042766Y015538D01*
X044566Y010338D02*
X044802Y010338D01*
X044802Y009865D02*
X044566Y009865D01*
X038102Y009865D02*
X037866Y009865D01*
X037866Y010338D02*
X038102Y010338D01*
X033202Y010338D02*
X032966Y010338D01*
X032966Y009865D02*
X033202Y009865D01*
X030104Y009502D02*
X028864Y009502D01*
X028841Y009500D01*
X028818Y009495D01*
X028796Y009486D01*
X028776Y009473D01*
X028758Y009458D01*
X028743Y009440D01*
X028730Y009420D01*
X028721Y009398D01*
X028716Y009375D01*
X028714Y009352D01*
X028402Y009865D02*
X028166Y009865D01*
X028166Y010338D02*
X028402Y010338D01*
X030104Y009502D02*
X030127Y009500D01*
X030150Y009495D01*
X030172Y009486D01*
X030192Y009473D01*
X030210Y009458D01*
X030225Y009440D01*
X030238Y009420D01*
X030247Y009398D01*
X030252Y009375D01*
X030254Y009352D01*
X030202Y015065D02*
X029966Y015065D01*
X029966Y015538D02*
X030202Y015538D01*
X034766Y015538D02*
X035002Y015538D01*
X035002Y015065D02*
X034766Y015065D01*
X034766Y020665D02*
X035002Y020665D01*
X035002Y021138D02*
X034766Y021138D01*
X034766Y026065D02*
X035002Y026065D01*
X035002Y026538D02*
X034766Y026538D01*
X039666Y026538D02*
X039902Y026538D01*
X039902Y026065D02*
X039666Y026065D01*
X044566Y026065D02*
X044802Y026065D01*
X044802Y026538D02*
X044566Y026538D01*
X048448Y026520D02*
X048448Y026283D01*
X048920Y026283D02*
X048920Y026520D01*
X049566Y026538D02*
X049802Y026538D01*
X049802Y026065D02*
X049566Y026065D01*
X049684Y027202D02*
X050084Y027202D01*
X050504Y027202D01*
X050527Y027204D01*
X050550Y027209D01*
X050572Y027218D01*
X050592Y027231D01*
X050610Y027246D01*
X050625Y027264D01*
X050638Y027284D01*
X050647Y027306D01*
X050652Y027329D01*
X050654Y027352D01*
X050084Y027202D02*
X050082Y027229D01*
X050077Y027256D01*
X050067Y027282D01*
X050055Y027306D01*
X050039Y027328D01*
X050021Y027348D01*
X049999Y027365D01*
X049976Y027380D01*
X049951Y027390D01*
X049925Y027398D01*
X049898Y027402D01*
X049870Y027402D01*
X049843Y027398D01*
X049817Y027390D01*
X049792Y027380D01*
X049769Y027365D01*
X049747Y027348D01*
X049729Y027328D01*
X049713Y027306D01*
X049701Y027282D01*
X049691Y027256D01*
X049686Y027229D01*
X049684Y027202D01*
X049264Y027202D01*
X049241Y027204D01*
X049218Y027209D01*
X049196Y027218D01*
X049176Y027231D01*
X049158Y027246D01*
X049143Y027264D01*
X049130Y027284D01*
X049121Y027306D01*
X049116Y027329D01*
X049114Y027352D01*
X052466Y026538D02*
X052702Y026538D01*
X052702Y026065D02*
X052466Y026065D01*
X050654Y031052D02*
X050652Y031075D01*
X050647Y031098D01*
X050638Y031120D01*
X050625Y031140D01*
X050610Y031158D01*
X050592Y031173D01*
X050572Y031186D01*
X050550Y031195D01*
X050527Y031200D01*
X050504Y031202D01*
X049264Y031202D01*
X049241Y031200D01*
X049218Y031195D01*
X049196Y031186D01*
X049176Y031173D01*
X049158Y031158D01*
X049143Y031140D01*
X049130Y031120D01*
X049121Y031098D01*
X049116Y031075D01*
X049114Y031052D01*
X048002Y031465D02*
X047766Y031465D01*
X047766Y031938D02*
X048002Y031938D01*
X052466Y031938D02*
X052702Y031938D01*
X052702Y031465D02*
X052466Y031465D01*
X053566Y036765D02*
X053802Y036765D01*
X053802Y037238D02*
X053566Y037238D01*
X053584Y038002D02*
X054004Y038002D01*
X054027Y038004D01*
X054050Y038009D01*
X054072Y038018D01*
X054092Y038031D01*
X054110Y038046D01*
X054125Y038064D01*
X054138Y038084D01*
X054147Y038106D01*
X054152Y038129D01*
X054154Y038152D01*
X053584Y038002D02*
X053184Y038002D01*
X052764Y038002D01*
X052741Y038004D01*
X052718Y038009D01*
X052696Y038018D01*
X052676Y038031D01*
X052658Y038046D01*
X052643Y038064D01*
X052630Y038084D01*
X052621Y038106D01*
X052616Y038129D01*
X052614Y038152D01*
X053184Y038002D02*
X053186Y038029D01*
X053191Y038056D01*
X053201Y038082D01*
X053213Y038106D01*
X053229Y038128D01*
X053247Y038148D01*
X053269Y038165D01*
X053292Y038180D01*
X053317Y038190D01*
X053343Y038198D01*
X053370Y038202D01*
X053398Y038202D01*
X053425Y038198D01*
X053451Y038190D01*
X053476Y038180D01*
X053499Y038165D01*
X053521Y038148D01*
X053539Y038128D01*
X053555Y038106D01*
X053567Y038082D01*
X053577Y038056D01*
X053582Y038029D01*
X053584Y038002D01*
X052420Y037320D02*
X052420Y037083D01*
X051948Y037083D02*
X051948Y037320D01*
X049102Y037238D02*
X048866Y037238D01*
X048866Y036765D02*
X049102Y036765D01*
X044102Y036765D02*
X043866Y036765D01*
X043866Y037238D02*
X044102Y037238D01*
X043702Y042465D02*
X043466Y042465D01*
X043466Y042938D02*
X043702Y042938D01*
X047348Y045583D02*
X047348Y045820D01*
X047820Y045820D02*
X047820Y045583D01*
X048184Y045502D02*
X048184Y045082D01*
X048186Y045059D01*
X048191Y045036D01*
X048200Y045014D01*
X048213Y044994D01*
X048228Y044976D01*
X048246Y044961D01*
X048266Y044948D01*
X048288Y044939D01*
X048311Y044934D01*
X048334Y044932D01*
X048184Y045502D02*
X048184Y045902D01*
X048184Y046322D01*
X048186Y046345D01*
X048191Y046368D01*
X048200Y046390D01*
X048213Y046410D01*
X048228Y046428D01*
X048246Y046443D01*
X048266Y046456D01*
X048288Y046465D01*
X048311Y046470D01*
X048334Y046472D01*
X048184Y045902D02*
X048211Y045900D01*
X048238Y045895D01*
X048264Y045885D01*
X048288Y045873D01*
X048310Y045857D01*
X048330Y045839D01*
X048347Y045817D01*
X048362Y045794D01*
X048372Y045769D01*
X048380Y045743D01*
X048384Y045716D01*
X048384Y045688D01*
X048380Y045661D01*
X048372Y045635D01*
X048362Y045610D01*
X048347Y045587D01*
X048330Y045565D01*
X048310Y045547D01*
X048288Y045531D01*
X048264Y045519D01*
X048238Y045509D01*
X048211Y045504D01*
X048184Y045502D01*
X048466Y047765D02*
X048702Y047765D01*
X048702Y048238D02*
X048466Y048238D01*
X048334Y050332D02*
X048311Y050334D01*
X048288Y050339D01*
X048266Y050348D01*
X048246Y050361D01*
X048228Y050376D01*
X048213Y050394D01*
X048200Y050414D01*
X048191Y050436D01*
X048186Y050459D01*
X048184Y050482D01*
X048184Y050902D01*
X048184Y051302D01*
X048184Y051722D01*
X048186Y051745D01*
X048191Y051768D01*
X048200Y051790D01*
X048213Y051810D01*
X048228Y051828D01*
X048246Y051843D01*
X048266Y051856D01*
X048288Y051865D01*
X048311Y051870D01*
X048334Y051872D01*
X047820Y051220D02*
X047820Y050983D01*
X048184Y050902D02*
X048211Y050904D01*
X048238Y050909D01*
X048264Y050919D01*
X048288Y050931D01*
X048310Y050947D01*
X048330Y050965D01*
X048347Y050987D01*
X048362Y051010D01*
X048372Y051035D01*
X048380Y051061D01*
X048384Y051088D01*
X048384Y051116D01*
X048380Y051143D01*
X048372Y051169D01*
X048362Y051194D01*
X048347Y051217D01*
X048330Y051239D01*
X048310Y051257D01*
X048288Y051273D01*
X048264Y051285D01*
X048238Y051295D01*
X048211Y051300D01*
X048184Y051302D01*
X047348Y051220D02*
X047348Y050983D01*
X043802Y048238D02*
X043566Y048238D01*
X043566Y047765D02*
X043802Y047765D01*
X038802Y047765D02*
X038566Y047765D01*
X038566Y048238D02*
X038802Y048238D01*
X033902Y048238D02*
X033666Y048238D01*
X033666Y047765D02*
X033902Y047765D01*
X029484Y049982D02*
X029484Y051222D01*
X029482Y051245D01*
X029477Y051268D01*
X029468Y051290D01*
X029455Y051310D01*
X029440Y051328D01*
X029422Y051343D01*
X029402Y051356D01*
X029380Y051365D01*
X029357Y051370D01*
X029334Y051372D01*
X029484Y049982D02*
X029482Y049959D01*
X029477Y049936D01*
X029468Y049914D01*
X029455Y049894D01*
X029440Y049876D01*
X029422Y049861D01*
X029402Y049848D01*
X029380Y049839D01*
X029357Y049834D01*
X029334Y049832D01*
X029102Y048238D02*
X028866Y048238D01*
X028866Y047765D02*
X029102Y047765D01*
X025720Y047883D02*
X025720Y048120D01*
X025248Y048120D02*
X025248Y047883D01*
X024502Y047765D02*
X024266Y047765D01*
X024266Y048238D02*
X024502Y048238D01*
X024604Y047202D02*
X024184Y047202D01*
X023784Y047202D01*
X023364Y047202D01*
X023341Y047200D01*
X023318Y047195D01*
X023296Y047186D01*
X023276Y047173D01*
X023258Y047158D01*
X023243Y047140D01*
X023230Y047120D01*
X023221Y047098D01*
X023216Y047075D01*
X023214Y047052D01*
X023784Y047202D02*
X023786Y047175D01*
X023791Y047148D01*
X023801Y047122D01*
X023813Y047098D01*
X023829Y047076D01*
X023847Y047056D01*
X023869Y047039D01*
X023892Y047024D01*
X023917Y047014D01*
X023943Y047006D01*
X023970Y047002D01*
X023998Y047002D01*
X024025Y047006D01*
X024051Y047014D01*
X024076Y047024D01*
X024099Y047039D01*
X024121Y047056D01*
X024139Y047076D01*
X024155Y047098D01*
X024167Y047122D01*
X024177Y047148D01*
X024182Y047175D01*
X024184Y047202D01*
X024604Y047202D02*
X024627Y047200D01*
X024650Y047195D01*
X024672Y047186D01*
X024692Y047173D01*
X024710Y047158D01*
X024725Y047140D01*
X024738Y047120D01*
X024747Y047098D01*
X024752Y047075D01*
X024754Y047052D01*
X025484Y049982D02*
X025484Y050402D01*
X025484Y050802D01*
X025484Y051222D01*
X025486Y051245D01*
X025491Y051268D01*
X025500Y051290D01*
X025513Y051310D01*
X025528Y051328D01*
X025546Y051343D01*
X025566Y051356D01*
X025588Y051365D01*
X025611Y051370D01*
X025634Y051372D01*
X025420Y050720D02*
X025420Y050483D01*
X025484Y050402D02*
X025511Y050404D01*
X025538Y050409D01*
X025564Y050419D01*
X025588Y050431D01*
X025610Y050447D01*
X025630Y050465D01*
X025647Y050487D01*
X025662Y050510D01*
X025672Y050535D01*
X025680Y050561D01*
X025684Y050588D01*
X025684Y050616D01*
X025680Y050643D01*
X025672Y050669D01*
X025662Y050694D01*
X025647Y050717D01*
X025630Y050739D01*
X025610Y050757D01*
X025588Y050773D01*
X025564Y050785D01*
X025538Y050795D01*
X025511Y050800D01*
X025484Y050802D01*
X024948Y050720D02*
X024948Y050483D01*
X025484Y049982D02*
X025486Y049959D01*
X025491Y049936D01*
X025500Y049914D01*
X025513Y049894D01*
X025528Y049876D01*
X025546Y049861D01*
X025566Y049848D01*
X025588Y049839D01*
X025611Y049834D01*
X025634Y049832D01*
X020902Y053165D02*
X020666Y053165D01*
X020666Y053638D02*
X020902Y053638D01*
X023348Y054783D02*
X023348Y055020D01*
X023820Y055020D02*
X023820Y054783D01*
X028348Y054783D02*
X028348Y055020D01*
X028820Y055020D02*
X028820Y054783D01*
X033148Y054783D02*
X033148Y055020D01*
X033620Y055020D02*
X033620Y054783D01*
X038048Y054783D02*
X038048Y055020D01*
X038520Y055020D02*
X038520Y054783D01*
X044148Y054883D02*
X044148Y055120D01*
X044620Y055120D02*
X044620Y054883D01*
X049148Y054883D02*
X049148Y055120D01*
X049620Y055120D02*
X049620Y054883D01*
X052966Y054838D02*
X053202Y054838D01*
X053202Y054365D02*
X052966Y054365D01*
X052184Y051722D02*
X052184Y050482D01*
X052182Y050459D01*
X052177Y050436D01*
X052168Y050414D01*
X052155Y050394D01*
X052140Y050376D01*
X052122Y050361D01*
X052102Y050348D01*
X052080Y050339D01*
X052057Y050334D01*
X052034Y050332D01*
X052184Y051722D02*
X052182Y051745D01*
X052177Y051768D01*
X052168Y051790D01*
X052155Y051810D01*
X052140Y051828D01*
X052122Y051843D01*
X052102Y051856D01*
X052080Y051865D01*
X052057Y051870D01*
X052034Y051872D01*
X053566Y048238D02*
X053802Y048238D01*
X053802Y047765D02*
X053566Y047765D01*
X052184Y046322D02*
X052184Y045082D01*
X052182Y045059D01*
X052177Y045036D01*
X052168Y045014D01*
X052155Y044994D01*
X052140Y044976D01*
X052122Y044961D01*
X052102Y044948D01*
X052080Y044939D01*
X052057Y044934D01*
X052034Y044932D01*
X052184Y046322D02*
X052182Y046345D01*
X052177Y046368D01*
X052168Y046390D01*
X052155Y046410D01*
X052140Y046428D01*
X052122Y046443D01*
X052102Y046456D01*
X052080Y046465D01*
X052057Y046470D01*
X052034Y046472D01*
X053566Y042938D02*
X053802Y042938D01*
X053802Y042465D02*
X053566Y042465D01*
X054004Y042002D02*
X052764Y042002D01*
X052741Y042000D01*
X052718Y041995D01*
X052696Y041986D01*
X052676Y041973D01*
X052658Y041958D01*
X052643Y041940D01*
X052630Y041920D01*
X052621Y041898D01*
X052616Y041875D01*
X052614Y041852D01*
X054004Y042002D02*
X054027Y042000D01*
X054050Y041995D01*
X054072Y041986D01*
X054092Y041973D01*
X054110Y041958D01*
X054125Y041940D01*
X054138Y041920D01*
X054147Y041898D01*
X054152Y041875D01*
X054154Y041852D01*
X048702Y042465D02*
X048466Y042465D01*
X048466Y042938D02*
X048702Y042938D01*
X038802Y042938D02*
X038566Y042938D01*
X038566Y042465D02*
X038802Y042465D01*
X033902Y042465D02*
X033666Y042465D01*
X033666Y042938D02*
X033902Y042938D01*
X029502Y042938D02*
X029266Y042938D01*
X029266Y042465D02*
X029502Y042465D01*
X024604Y043202D02*
X023364Y043202D01*
X023341Y043204D01*
X023318Y043209D01*
X023296Y043218D01*
X023276Y043231D01*
X023258Y043246D01*
X023243Y043264D01*
X023230Y043284D01*
X023221Y043306D01*
X023216Y043329D01*
X023214Y043352D01*
X024266Y042938D02*
X024502Y042938D01*
X024604Y043202D02*
X024627Y043204D01*
X024650Y043209D01*
X024672Y043218D01*
X024692Y043231D01*
X024710Y043246D01*
X024725Y043264D01*
X024738Y043284D01*
X024747Y043306D01*
X024752Y043329D01*
X024754Y043352D01*
X024502Y042465D02*
X024266Y042465D01*
X022334Y040952D02*
X022334Y040552D01*
X022334Y040952D02*
X022332Y040969D01*
X022328Y040986D01*
X022321Y041002D01*
X022311Y041016D01*
X022298Y041029D01*
X022284Y041039D01*
X022268Y041046D01*
X022251Y041050D01*
X022234Y041052D01*
X017934Y041052D01*
X017917Y041050D01*
X017900Y041046D01*
X017884Y041039D01*
X017870Y041029D01*
X017857Y041016D01*
X017847Y041002D01*
X017840Y040986D01*
X017836Y040969D01*
X017834Y040952D01*
X017834Y040552D01*
X017834Y039652D02*
X017834Y039252D01*
X017836Y039235D01*
X017840Y039218D01*
X017847Y039202D01*
X017857Y039188D01*
X017870Y039175D01*
X017884Y039165D01*
X017900Y039158D01*
X017917Y039154D01*
X017934Y039152D01*
X022234Y039152D01*
X022251Y039154D01*
X022268Y039158D01*
X022284Y039165D01*
X022298Y039175D01*
X022311Y039188D01*
X022321Y039202D01*
X022328Y039218D01*
X022332Y039235D01*
X022334Y039252D01*
X022334Y039652D01*
X020334Y039852D02*
X020334Y040102D01*
X020334Y040352D01*
X020184Y040352D02*
X020184Y039852D01*
X019984Y039852D01*
X019984Y040352D01*
X020184Y040352D01*
X019834Y040352D02*
X019834Y040102D01*
X019834Y039852D01*
X019602Y042465D02*
X019366Y042465D01*
X019366Y042938D02*
X019602Y042938D01*
X016602Y045865D02*
X016366Y045865D01*
X016366Y046338D02*
X016602Y046338D01*
X015402Y047765D02*
X015166Y047765D01*
X015166Y048238D02*
X015402Y048238D01*
X014764Y046881D02*
X014764Y044122D01*
X012144Y044122D01*
X012004Y044261D01*
X012004Y046881D01*
X014764Y046881D01*
X012163Y044422D02*
X012165Y044445D01*
X012171Y044468D01*
X012180Y044489D01*
X012193Y044509D01*
X012209Y044526D01*
X012227Y044540D01*
X012247Y044551D01*
X012269Y044559D01*
X012292Y044563D01*
X012316Y044563D01*
X012339Y044559D01*
X012361Y044551D01*
X012381Y044540D01*
X012399Y044526D01*
X012415Y044509D01*
X012428Y044489D01*
X012437Y044468D01*
X012443Y044445D01*
X012445Y044422D01*
X012443Y044399D01*
X012437Y044376D01*
X012428Y044355D01*
X012415Y044335D01*
X012399Y044318D01*
X012381Y044304D01*
X012361Y044293D01*
X012339Y044285D01*
X012316Y044281D01*
X012292Y044281D01*
X012269Y044285D01*
X012247Y044293D01*
X012227Y044304D01*
X012209Y044318D01*
X012193Y044335D01*
X012180Y044355D01*
X012171Y044376D01*
X012165Y044399D01*
X012163Y044422D01*
X014266Y042838D02*
X014502Y042838D01*
X014502Y042365D02*
X014266Y042365D01*
X010420Y041720D02*
X010420Y041483D01*
X009948Y041483D02*
X009948Y041720D01*
X009502Y042365D02*
X009266Y042365D01*
X009266Y042838D02*
X009502Y042838D01*
X007684Y042852D02*
X007684Y042352D01*
X007434Y042102D01*
X005934Y042102D01*
X005684Y042352D01*
X005684Y042852D01*
X005934Y043102D01*
X007434Y043102D01*
X007684Y043352D01*
X007684Y043852D01*
X007434Y044102D01*
X005934Y044102D01*
X005684Y044352D01*
X005684Y044852D01*
X005934Y045102D01*
X007434Y045102D01*
X007684Y045352D01*
X007684Y045852D01*
X007434Y046102D01*
X007684Y046352D01*
X007684Y046852D01*
X007434Y047102D01*
X005934Y047102D01*
X005684Y046852D01*
X005684Y046352D01*
X005934Y046102D01*
X007434Y046102D01*
X007434Y045102D02*
X007684Y044852D01*
X007684Y044352D01*
X007434Y044102D01*
X007434Y043102D02*
X007684Y042852D01*
X006602Y042038D02*
X006366Y042038D01*
X006366Y041565D02*
X006602Y041565D01*
X005934Y043102D02*
X005684Y043352D01*
X005684Y043852D01*
X005934Y044102D01*
X005934Y045102D02*
X005684Y045352D01*
X005684Y045852D01*
X005934Y046102D01*
X006002Y048165D02*
X005766Y048165D01*
X005766Y048638D02*
X006002Y048638D01*
X006054Y050092D02*
X006054Y051511D01*
X005966Y053165D02*
X006202Y053165D01*
X006202Y053638D02*
X005966Y053638D01*
X005966Y053965D02*
X006202Y053965D01*
X006202Y054438D02*
X005966Y054438D01*
X007914Y051511D02*
X007914Y050092D01*
X008048Y050683D02*
X008048Y050920D01*
X008520Y050920D02*
X008520Y050683D01*
X010034Y050252D02*
X010184Y050252D01*
X010184Y051352D01*
X010184Y051402D01*
X013184Y051402D01*
X013201Y051400D01*
X013218Y051396D01*
X013234Y051389D01*
X013248Y051379D01*
X013261Y051366D01*
X013271Y051352D01*
X013278Y051336D01*
X013282Y051319D01*
X013284Y051302D01*
X013284Y050302D01*
X013282Y050285D01*
X013278Y050268D01*
X013271Y050252D01*
X013261Y050238D01*
X013248Y050225D01*
X013234Y050215D01*
X013218Y050208D01*
X013201Y050204D01*
X013184Y050202D01*
X010184Y050202D01*
X010184Y050252D01*
X010034Y050252D02*
X010034Y051352D01*
X010184Y051352D01*
X011084Y050802D02*
X011284Y050802D01*
X011284Y050502D01*
X011434Y050502D02*
X011584Y050502D01*
X011584Y051102D01*
X011434Y051102D01*
X011434Y050502D01*
X011734Y050502D02*
X011734Y050802D01*
X011934Y050802D01*
X011734Y050802D02*
X011734Y051102D01*
X011284Y051102D02*
X011284Y050802D01*
X010320Y053683D02*
X010320Y053920D01*
X009848Y053920D02*
X009848Y053683D01*
X011666Y054965D02*
X011902Y054965D01*
X011902Y055438D02*
X011666Y055438D01*
X012748Y053820D02*
X012748Y053583D01*
X013220Y053583D02*
X013220Y053820D01*
X015966Y054765D02*
X016202Y054765D01*
X016202Y055238D02*
X015966Y055238D01*
X017448Y055020D02*
X017448Y054783D01*
X017920Y054783D02*
X017920Y055020D01*
X019366Y048238D02*
X019602Y048238D01*
X019602Y047765D02*
X019366Y047765D01*
X019366Y037238D02*
X019602Y037238D01*
X019602Y036765D02*
X019366Y036765D01*
X019734Y035172D02*
X019757Y035170D01*
X019780Y035165D01*
X019802Y035156D01*
X019822Y035143D01*
X019840Y035128D01*
X019855Y035110D01*
X019868Y035090D01*
X019877Y035068D01*
X019882Y035045D01*
X019884Y035022D01*
X019884Y033782D01*
X019882Y033759D01*
X019877Y033736D01*
X019868Y033714D01*
X019855Y033694D01*
X019840Y033676D01*
X019822Y033661D01*
X019802Y033648D01*
X019780Y033639D01*
X019757Y033634D01*
X019734Y033632D01*
X018502Y031938D02*
X018266Y031938D01*
X018266Y031465D02*
X018502Y031465D01*
X020964Y031302D02*
X021384Y031302D01*
X021784Y031302D01*
X022204Y031302D01*
X022227Y031300D01*
X022250Y031295D01*
X022272Y031286D01*
X022292Y031273D01*
X022310Y031258D01*
X022325Y031240D01*
X022338Y031220D01*
X022347Y031198D01*
X022352Y031175D01*
X022354Y031152D01*
X021784Y031302D02*
X021782Y031275D01*
X021777Y031248D01*
X021767Y031222D01*
X021755Y031198D01*
X021739Y031176D01*
X021721Y031156D01*
X021699Y031139D01*
X021676Y031124D01*
X021651Y031114D01*
X021625Y031106D01*
X021598Y031102D01*
X021570Y031102D01*
X021543Y031106D01*
X021517Y031114D01*
X021492Y031124D01*
X021469Y031139D01*
X021447Y031156D01*
X021429Y031176D01*
X021413Y031198D01*
X021401Y031222D01*
X021391Y031248D01*
X021386Y031275D01*
X021384Y031302D01*
X020964Y031302D02*
X020941Y031300D01*
X020918Y031295D01*
X020896Y031286D01*
X020876Y031273D01*
X020858Y031258D01*
X020843Y031240D01*
X020830Y031220D01*
X020821Y031198D01*
X020816Y031175D01*
X020814Y031152D01*
X023448Y031283D02*
X023448Y031520D01*
X023920Y031520D02*
X023920Y031283D01*
X024966Y031465D02*
X025202Y031465D01*
X025202Y031938D02*
X024966Y031938D01*
X024102Y036765D02*
X023866Y036765D01*
X023866Y037238D02*
X024102Y037238D01*
X028866Y037238D02*
X029102Y037238D01*
X029102Y036765D02*
X028866Y036765D01*
X029966Y031938D02*
X030202Y031938D01*
X030202Y031465D02*
X029966Y031465D01*
X028402Y026538D02*
X028166Y026538D01*
X028166Y026065D02*
X028402Y026065D01*
X028402Y021138D02*
X028166Y021138D01*
X028166Y020665D02*
X028402Y020665D01*
X025202Y015538D02*
X024966Y015538D01*
X024966Y015065D02*
X025202Y015065D01*
X023884Y013522D02*
X023884Y012282D01*
X023882Y012259D01*
X023877Y012236D01*
X023868Y012214D01*
X023855Y012194D01*
X023840Y012176D01*
X023822Y012161D01*
X023802Y012148D01*
X023780Y012139D01*
X023757Y012134D01*
X023734Y012132D01*
X023884Y013522D02*
X023882Y013545D01*
X023877Y013568D01*
X023868Y013590D01*
X023855Y013610D01*
X023840Y013628D01*
X023822Y013643D01*
X023802Y013656D01*
X023780Y013665D01*
X023757Y013670D01*
X023734Y013672D01*
X023220Y016883D02*
X023220Y017120D01*
X022748Y017120D02*
X022748Y016883D01*
X022802Y017765D02*
X022566Y017765D01*
X022566Y018238D02*
X022802Y018238D01*
X022802Y018465D02*
X022566Y018465D01*
X022566Y018938D02*
X022802Y018938D01*
X022748Y019583D02*
X022748Y019820D01*
X023220Y019820D02*
X023220Y019583D01*
X023166Y020665D02*
X023402Y020665D01*
X023402Y021138D02*
X023166Y021138D01*
X021084Y018872D02*
X017884Y018872D01*
X017861Y018870D01*
X017838Y018865D01*
X017816Y018856D01*
X017796Y018843D01*
X017778Y018828D01*
X017763Y018810D01*
X017750Y018790D01*
X017741Y018768D01*
X017736Y018745D01*
X017734Y018722D01*
X017734Y018302D01*
X017734Y017902D01*
X017734Y017482D01*
X017734Y017472D02*
X021234Y017472D01*
X021234Y017482D02*
X021234Y018722D01*
X021232Y018745D01*
X021227Y018768D01*
X021218Y018790D01*
X021205Y018810D01*
X021190Y018828D01*
X021172Y018843D01*
X021152Y018856D01*
X021130Y018865D01*
X021107Y018870D01*
X021084Y018872D01*
X021234Y017482D02*
X021232Y017459D01*
X021227Y017436D01*
X021218Y017414D01*
X021205Y017394D01*
X021190Y017376D01*
X021172Y017361D01*
X021152Y017348D01*
X021130Y017339D01*
X021107Y017334D01*
X021084Y017332D01*
X017884Y017332D01*
X017861Y017334D01*
X017838Y017339D01*
X017816Y017348D01*
X017796Y017361D01*
X017778Y017376D01*
X017763Y017394D01*
X017750Y017414D01*
X017741Y017436D01*
X017736Y017459D01*
X017734Y017482D01*
X017520Y017983D02*
X017520Y018220D01*
X017734Y018302D02*
X017761Y018300D01*
X017788Y018295D01*
X017814Y018285D01*
X017838Y018273D01*
X017860Y018257D01*
X017880Y018239D01*
X017897Y018217D01*
X017912Y018194D01*
X017922Y018169D01*
X017930Y018143D01*
X017934Y018116D01*
X017934Y018088D01*
X017930Y018061D01*
X017922Y018035D01*
X017912Y018010D01*
X017897Y017987D01*
X017880Y017965D01*
X017860Y017947D01*
X017838Y017931D01*
X017814Y017919D01*
X017788Y017909D01*
X017761Y017904D01*
X017734Y017902D01*
X017048Y017983D02*
X017048Y018220D01*
X016120Y016720D02*
X016120Y016483D01*
X015648Y016483D02*
X015648Y016720D01*
X014334Y017572D02*
X010834Y017572D01*
X010834Y017582D02*
X010834Y018002D01*
X010834Y018402D01*
X010834Y018822D01*
X010836Y018845D01*
X010841Y018868D01*
X010850Y018890D01*
X010863Y018910D01*
X010878Y018928D01*
X010896Y018943D01*
X010916Y018956D01*
X010938Y018965D01*
X010961Y018970D01*
X010984Y018972D01*
X014184Y018972D01*
X014207Y018970D01*
X014230Y018965D01*
X014252Y018956D01*
X014272Y018943D01*
X014290Y018928D01*
X014305Y018910D01*
X014318Y018890D01*
X014327Y018868D01*
X014332Y018845D01*
X014334Y018822D01*
X014334Y017582D01*
X014332Y017559D01*
X014327Y017536D01*
X014318Y017514D01*
X014305Y017494D01*
X014290Y017476D01*
X014272Y017461D01*
X014252Y017448D01*
X014230Y017439D01*
X014207Y017434D01*
X014184Y017432D01*
X010984Y017432D01*
X010961Y017434D01*
X010938Y017439D01*
X010916Y017448D01*
X010896Y017461D01*
X010878Y017476D01*
X010863Y017494D01*
X010850Y017514D01*
X010841Y017536D01*
X010836Y017559D01*
X010834Y017582D01*
X010620Y018083D02*
X010620Y018320D01*
X010834Y018402D02*
X010861Y018400D01*
X010888Y018395D01*
X010914Y018385D01*
X010938Y018373D01*
X010960Y018357D01*
X010980Y018339D01*
X010997Y018317D01*
X011012Y018294D01*
X011022Y018269D01*
X011030Y018243D01*
X011034Y018216D01*
X011034Y018188D01*
X011030Y018161D01*
X011022Y018135D01*
X011012Y018110D01*
X010997Y018087D01*
X010980Y018065D01*
X010960Y018047D01*
X010938Y018031D01*
X010914Y018019D01*
X010888Y018009D01*
X010861Y018004D01*
X010834Y018002D01*
X010148Y018083D02*
X010148Y018320D01*
X010266Y020665D02*
X010502Y020665D01*
X010502Y021138D02*
X010266Y021138D01*
X010184Y021702D02*
X009784Y021702D01*
X009364Y021702D01*
X009341Y021704D01*
X009318Y021709D01*
X009296Y021718D01*
X009276Y021731D01*
X009258Y021746D01*
X009243Y021764D01*
X009230Y021784D01*
X009221Y021806D01*
X009216Y021829D01*
X009214Y021852D01*
X009784Y021702D02*
X009786Y021729D01*
X009791Y021756D01*
X009801Y021782D01*
X009813Y021806D01*
X009829Y021828D01*
X009847Y021848D01*
X009869Y021865D01*
X009892Y021880D01*
X009917Y021890D01*
X009943Y021898D01*
X009970Y021902D01*
X009998Y021902D01*
X010025Y021898D01*
X010051Y021890D01*
X010076Y021880D01*
X010099Y021865D01*
X010121Y021848D01*
X010139Y021828D01*
X010155Y021806D01*
X010167Y021782D01*
X010177Y021756D01*
X010182Y021729D01*
X010184Y021702D01*
X010604Y021702D01*
X010627Y021704D01*
X010650Y021709D01*
X010672Y021718D01*
X010692Y021731D01*
X010710Y021746D01*
X010725Y021764D01*
X010738Y021784D01*
X010747Y021806D01*
X010752Y021829D01*
X010754Y021852D01*
X013366Y021138D02*
X013602Y021138D01*
X013602Y020665D02*
X013366Y020665D01*
X015548Y019920D02*
X015548Y019683D01*
X016020Y019683D02*
X016020Y019920D01*
X018266Y020665D02*
X018502Y020665D01*
X018502Y021138D02*
X018266Y021138D01*
X018266Y026065D02*
X018502Y026065D01*
X018502Y026538D02*
X018266Y026538D01*
X020964Y027302D02*
X022204Y027302D01*
X022227Y027304D01*
X022250Y027309D01*
X022272Y027318D01*
X022292Y027331D01*
X022310Y027346D01*
X022325Y027364D01*
X022338Y027384D01*
X022347Y027406D01*
X022352Y027429D01*
X022354Y027452D01*
X023166Y026538D02*
X023402Y026538D01*
X023402Y026065D02*
X023166Y026065D01*
X020964Y027302D02*
X020941Y027304D01*
X020918Y027309D01*
X020896Y027318D01*
X020876Y027331D01*
X020858Y027346D01*
X020843Y027364D01*
X020830Y027384D01*
X020821Y027406D01*
X020816Y027429D01*
X020814Y027452D01*
X016034Y033632D02*
X016011Y033634D01*
X015988Y033639D01*
X015966Y033648D01*
X015946Y033661D01*
X015928Y033676D01*
X015913Y033694D01*
X015900Y033714D01*
X015891Y033736D01*
X015886Y033759D01*
X015884Y033782D01*
X015884Y034202D01*
X015884Y034602D01*
X015884Y035022D01*
X015886Y035045D01*
X015891Y035068D01*
X015900Y035090D01*
X015913Y035110D01*
X015928Y035128D01*
X015946Y035143D01*
X015966Y035156D01*
X015988Y035165D01*
X016011Y035170D01*
X016034Y035172D01*
X015620Y034520D02*
X015620Y034283D01*
X015884Y034202D02*
X015911Y034204D01*
X015938Y034209D01*
X015964Y034219D01*
X015988Y034231D01*
X016010Y034247D01*
X016030Y034265D01*
X016047Y034287D01*
X016062Y034310D01*
X016072Y034335D01*
X016080Y034361D01*
X016084Y034388D01*
X016084Y034416D01*
X016080Y034443D01*
X016072Y034469D01*
X016062Y034494D01*
X016047Y034517D01*
X016030Y034539D01*
X016010Y034557D01*
X015988Y034573D01*
X015964Y034585D01*
X015938Y034595D01*
X015911Y034600D01*
X015884Y034602D01*
X015148Y034520D02*
X015148Y034283D01*
X014020Y034283D02*
X014020Y034520D01*
X013548Y034520D02*
X013548Y034283D01*
X013234Y034302D02*
X013234Y033882D01*
X013232Y033859D01*
X013227Y033836D01*
X013218Y033814D01*
X013205Y033794D01*
X013190Y033776D01*
X013172Y033761D01*
X013152Y033748D01*
X013130Y033739D01*
X013107Y033734D01*
X013084Y033732D01*
X009884Y033732D01*
X009861Y033734D01*
X009838Y033739D01*
X009816Y033748D01*
X009796Y033761D01*
X009778Y033776D01*
X009763Y033794D01*
X009750Y033814D01*
X009741Y033836D01*
X009736Y033859D01*
X009734Y033882D01*
X009734Y035122D01*
X009734Y035132D02*
X013234Y035132D01*
X013234Y035122D02*
X013234Y034702D01*
X013234Y034302D01*
X013207Y034304D01*
X013180Y034309D01*
X013154Y034319D01*
X013130Y034331D01*
X013108Y034347D01*
X013088Y034365D01*
X013071Y034387D01*
X013056Y034410D01*
X013046Y034435D01*
X013038Y034461D01*
X013034Y034488D01*
X013034Y034516D01*
X013038Y034543D01*
X013046Y034569D01*
X013056Y034594D01*
X013071Y034617D01*
X013088Y034639D01*
X013108Y034657D01*
X013130Y034673D01*
X013154Y034685D01*
X013180Y034695D01*
X013207Y034700D01*
X013234Y034702D01*
X013234Y035122D02*
X013232Y035145D01*
X013227Y035168D01*
X013218Y035190D01*
X013205Y035210D01*
X013190Y035228D01*
X013172Y035243D01*
X013152Y035256D01*
X013130Y035265D01*
X013107Y035270D01*
X013084Y035272D01*
X009884Y035272D01*
X009861Y035270D01*
X009838Y035265D01*
X009816Y035256D01*
X009796Y035243D01*
X009778Y035228D01*
X009763Y035210D01*
X009750Y035190D01*
X009741Y035168D01*
X009736Y035145D01*
X009734Y035122D01*
X009802Y036765D02*
X009566Y036765D01*
X009566Y037238D02*
X009802Y037238D01*
X006202Y036138D02*
X005966Y036138D01*
X005966Y035665D02*
X006202Y035665D01*
X004702Y035665D02*
X004466Y035665D01*
X004466Y036138D02*
X004702Y036138D01*
X004666Y036765D02*
X004902Y036765D01*
X004902Y037238D02*
X004666Y037238D01*
X003902Y041465D02*
X003666Y041465D01*
X003666Y041938D02*
X003902Y041938D01*
X008048Y048283D02*
X008048Y048520D01*
X008520Y048520D02*
X008520Y048283D01*
X014466Y037238D02*
X014702Y037238D01*
X014702Y036765D02*
X014466Y036765D01*
X014302Y031938D02*
X014066Y031938D01*
X014066Y031465D02*
X014302Y031465D01*
X013084Y029972D02*
X009884Y029972D01*
X009861Y029970D01*
X009838Y029965D01*
X009816Y029956D01*
X009796Y029943D01*
X009778Y029928D01*
X009763Y029910D01*
X009750Y029890D01*
X009741Y029868D01*
X009736Y029845D01*
X009734Y029822D01*
X009734Y029402D01*
X009734Y029002D01*
X009734Y028582D01*
X009734Y028572D02*
X013234Y028572D01*
X013234Y028582D02*
X013234Y029822D01*
X013232Y029845D01*
X013227Y029868D01*
X013218Y029890D01*
X013205Y029910D01*
X013190Y029928D01*
X013172Y029943D01*
X013152Y029956D01*
X013130Y029965D01*
X013107Y029970D01*
X013084Y029972D01*
X013234Y028582D02*
X013232Y028559D01*
X013227Y028536D01*
X013218Y028514D01*
X013205Y028494D01*
X013190Y028476D01*
X013172Y028461D01*
X013152Y028448D01*
X013130Y028439D01*
X013107Y028434D01*
X013084Y028432D01*
X009884Y028432D01*
X009861Y028434D01*
X009838Y028439D01*
X009816Y028448D01*
X009796Y028461D01*
X009778Y028476D01*
X009763Y028494D01*
X009750Y028514D01*
X009741Y028536D01*
X009736Y028559D01*
X009734Y028582D01*
X009420Y029083D02*
X009420Y029320D01*
X009734Y029402D02*
X009761Y029400D01*
X009788Y029395D01*
X009814Y029385D01*
X009838Y029373D01*
X009860Y029357D01*
X009880Y029339D01*
X009897Y029317D01*
X009912Y029294D01*
X009922Y029269D01*
X009930Y029243D01*
X009934Y029216D01*
X009934Y029188D01*
X009930Y029161D01*
X009922Y029135D01*
X009912Y029110D01*
X009897Y029087D01*
X009880Y029065D01*
X009860Y029047D01*
X009838Y029031D01*
X009814Y029019D01*
X009788Y029009D01*
X009761Y029004D01*
X009734Y029002D01*
X008948Y029083D02*
X008948Y029320D01*
X010666Y027238D02*
X010902Y027238D01*
X010902Y026765D02*
X010666Y026765D01*
X010502Y026538D02*
X010266Y026538D01*
X010266Y026065D02*
X010502Y026065D01*
X010604Y025702D02*
X009364Y025702D01*
X009341Y025700D01*
X009318Y025695D01*
X009296Y025686D01*
X009276Y025673D01*
X009258Y025658D01*
X009243Y025640D01*
X009230Y025620D01*
X009221Y025598D01*
X009216Y025575D01*
X009214Y025552D01*
X010604Y025702D02*
X010627Y025700D01*
X010650Y025695D01*
X010672Y025686D01*
X010692Y025673D01*
X010710Y025658D01*
X010725Y025640D01*
X010738Y025620D01*
X010747Y025598D01*
X010752Y025575D01*
X010754Y025552D01*
X013366Y026065D02*
X013602Y026065D01*
X013602Y026538D02*
X013366Y026538D01*
X011502Y031165D02*
X011266Y031165D01*
X011266Y031638D02*
X011502Y031638D01*
X009402Y031465D02*
X009166Y031465D01*
X009166Y031938D02*
X009402Y031938D01*
X006202Y030738D02*
X005966Y030738D01*
X005966Y030265D02*
X006202Y030265D01*
X004702Y030265D02*
X004466Y030265D01*
X004466Y030738D02*
X004702Y030738D01*
X004502Y031465D02*
X004266Y031465D01*
X004266Y031938D02*
X004502Y031938D01*
X005366Y026538D02*
X005602Y026538D01*
X005602Y026065D02*
X005366Y026065D01*
X004902Y022238D02*
X004666Y022238D01*
X004666Y021765D02*
X004902Y021765D01*
X005366Y021138D02*
X005602Y021138D01*
X005602Y020665D02*
X005366Y020665D01*
X013366Y015538D02*
X013602Y015538D01*
X013602Y015065D02*
X013366Y015065D01*
X018266Y015065D02*
X018502Y015065D01*
X018502Y015538D02*
X018266Y015538D01*
X019884Y013522D02*
X019884Y013102D01*
X019884Y012702D01*
X019884Y012282D01*
X019886Y012259D01*
X019891Y012236D01*
X019900Y012214D01*
X019913Y012194D01*
X019928Y012176D01*
X019946Y012161D01*
X019966Y012148D01*
X019988Y012139D01*
X020011Y012134D01*
X020034Y012132D01*
X019620Y012783D02*
X019620Y013020D01*
X019884Y013102D02*
X019911Y013100D01*
X019938Y013095D01*
X019964Y013085D01*
X019988Y013073D01*
X020010Y013057D01*
X020030Y013039D01*
X020047Y013017D01*
X020062Y012994D01*
X020072Y012969D01*
X020080Y012943D01*
X020084Y012916D01*
X020084Y012888D01*
X020080Y012861D01*
X020072Y012835D01*
X020062Y012810D01*
X020047Y012787D01*
X020030Y012765D01*
X020010Y012747D01*
X019988Y012731D01*
X019964Y012719D01*
X019938Y012709D01*
X019911Y012704D01*
X019884Y012702D01*
X019148Y012783D02*
X019148Y013020D01*
X019884Y013522D02*
X019886Y013545D01*
X019891Y013568D01*
X019900Y013590D01*
X019913Y013610D01*
X019928Y013628D01*
X019946Y013643D01*
X019966Y013656D01*
X019988Y013665D01*
X020011Y013670D01*
X020034Y013672D01*
X020066Y010338D02*
X020302Y010338D01*
X020302Y009865D02*
X020066Y009865D01*
X023166Y009865D02*
X023402Y009865D01*
X023402Y010338D02*
X023166Y010338D01*
X015402Y010338D02*
X015166Y010338D01*
X015166Y009865D02*
X015402Y009865D01*
X034766Y031465D02*
X035002Y031465D01*
X035002Y031938D02*
X034766Y031938D01*
X039666Y031938D02*
X039902Y031938D01*
X039902Y031465D02*
X039666Y031465D01*
X042766Y031465D02*
X043002Y031465D01*
X043002Y031938D02*
X042766Y031938D01*
X038802Y036765D02*
X038566Y036765D01*
X038566Y037238D02*
X038802Y037238D01*
X033902Y037238D02*
X033666Y037238D01*
X033666Y036765D02*
X033902Y036765D01*
X049566Y021138D02*
X049802Y021138D01*
X049802Y020665D02*
X049566Y020665D01*
X052466Y020665D02*
X052702Y020665D01*
X052702Y021138D02*
X052466Y021138D01*
D11*
X051668Y012974D02*
X051077Y012974D01*
X051668Y012974D02*
X051668Y012029D01*
X051077Y012029D01*
X050290Y012029D02*
X049857Y012029D01*
X049700Y012187D01*
X049700Y012817D01*
X049857Y012974D01*
X050290Y012974D01*
X050874Y005892D02*
X053234Y005892D01*
X053234Y003311D01*
X050874Y003312D01*
X007934Y042352D02*
X007934Y042852D01*
X006217Y050412D02*
X006219Y050427D01*
X006225Y050440D01*
X006234Y050452D01*
X006245Y050461D01*
X006259Y050467D01*
X006274Y050469D01*
X006289Y050467D01*
X006302Y050461D01*
X006314Y050452D01*
X006323Y050441D01*
X006329Y050427D01*
X006331Y050412D01*
X006329Y050397D01*
X006323Y050384D01*
X006314Y050372D01*
X006303Y050363D01*
X006289Y050357D01*
X006274Y050355D01*
X006259Y050357D01*
X006246Y050363D01*
X006234Y050372D01*
X006225Y050383D01*
X006219Y050397D01*
X006217Y050412D01*
X004817Y054020D02*
X004817Y054202D01*
X004939Y054324D01*
X004939Y054076D01*
X004813Y054202D01*
X004817Y054202D02*
X004817Y054383D01*
X005584Y055052D02*
X005834Y054802D01*
X006334Y054802D01*
X006584Y055052D01*
X006834Y054802D01*
X007334Y054802D01*
X007584Y055052D01*
X007834Y054802D01*
X008334Y054802D01*
X008584Y055052D01*
X008834Y054802D01*
X009334Y054802D01*
X009584Y055052D01*
X009834Y054802D01*
X010334Y054802D01*
X010584Y055052D01*
X010584Y055552D01*
X010334Y055802D01*
X009834Y055802D01*
X009584Y055552D01*
X009334Y055802D01*
X008834Y055802D01*
X008584Y055552D01*
X008334Y055802D01*
X007834Y055802D01*
X007584Y055552D01*
X007334Y055802D01*
X006834Y055802D01*
X006584Y055552D01*
X006334Y055802D01*
X005834Y055802D01*
X005584Y055552D01*
X005584Y055052D01*
D12*
X011229Y044454D02*
X011379Y044454D01*
X011379Y044404D02*
X011379Y044504D01*
X011279Y044404D02*
X011229Y044454D01*
X011229Y044357D02*
X011354Y044357D01*
X011379Y044332D01*
X011379Y044282D01*
X011354Y044257D01*
X011229Y044257D01*
D13*
X007184Y044602D03*
D14*
X015884Y033772D02*
X019884Y033772D01*
X020954Y031302D02*
X020954Y027302D01*
X010614Y025702D02*
X010614Y021702D01*
X008484Y013132D02*
X004484Y013132D01*
X004484Y007932D02*
X008484Y007932D01*
X019884Y012272D02*
X023884Y012272D01*
X030114Y009502D02*
X030114Y005502D01*
X044284Y008132D02*
X048284Y008132D01*
X048184Y018832D02*
X044184Y018832D01*
X050514Y027202D02*
X050514Y031202D01*
X054014Y038002D02*
X054014Y042002D01*
X052184Y045072D02*
X048184Y045072D01*
X048184Y050472D02*
X052184Y050472D01*
X029484Y049972D02*
X025484Y049972D01*
X023354Y047202D02*
X023354Y043202D01*
X021434Y040902D02*
X018734Y040902D01*
X018734Y040602D02*
X021434Y040602D01*
X021652Y039652D02*
X021618Y039637D01*
X021582Y039624D01*
X021546Y039615D01*
X021509Y039608D01*
X021472Y039603D01*
X021434Y039602D01*
X018734Y039602D01*
X018734Y039302D02*
X021434Y039302D01*
X021652Y040552D02*
X021618Y040567D01*
X021582Y040580D01*
X021546Y040589D01*
X021509Y040596D01*
X021472Y040601D01*
X021434Y040602D01*
X021434Y040902D02*
X021490Y040900D01*
X021545Y040894D01*
X021600Y040885D01*
X021654Y040871D01*
X021707Y040854D01*
X021758Y040833D01*
X021808Y040809D01*
X021856Y040781D01*
X021903Y040750D01*
X021946Y040716D01*
X021988Y040679D01*
X022027Y040639D01*
X022063Y040597D01*
X022095Y040552D01*
X022095Y039652D02*
X022063Y039607D01*
X022027Y039565D01*
X021988Y039525D01*
X021947Y039488D01*
X021903Y039454D01*
X021856Y039423D01*
X021808Y039395D01*
X021758Y039371D01*
X021707Y039350D01*
X021654Y039333D01*
X021600Y039319D01*
X021545Y039310D01*
X021490Y039304D01*
X021434Y039302D01*
X020484Y040102D02*
X020334Y040102D01*
X019834Y040102D02*
X019684Y040102D01*
X018734Y040902D02*
X018678Y040900D01*
X018623Y040894D01*
X018568Y040885D01*
X018514Y040871D01*
X018461Y040854D01*
X018410Y040833D01*
X018360Y040809D01*
X018312Y040781D01*
X018265Y040750D01*
X018221Y040716D01*
X018180Y040679D01*
X018141Y040639D01*
X018105Y040597D01*
X018073Y040552D01*
X018516Y039652D02*
X018550Y039637D01*
X018586Y039624D01*
X018622Y039615D01*
X018659Y039608D01*
X018696Y039603D01*
X018734Y039602D01*
X018516Y040552D02*
X018550Y040567D01*
X018586Y040580D01*
X018622Y040589D01*
X018659Y040596D01*
X018696Y040601D01*
X018734Y040602D01*
X018073Y039652D02*
X018105Y039607D01*
X018141Y039565D01*
X018180Y039525D01*
X018222Y039488D01*
X018265Y039454D01*
X018312Y039423D01*
X018360Y039395D01*
X018410Y039371D01*
X018461Y039350D01*
X018514Y039333D01*
X018568Y039319D01*
X018623Y039310D01*
X018678Y039304D01*
X018734Y039302D01*
D15*
X009899Y050602D03*
X009899Y051002D03*
D16*
X009784Y051002D02*
X009684Y051002D01*
X009664Y051022D01*
X009684Y050602D02*
X009834Y050602D01*
X009684Y050602D02*
X009664Y050582D01*
D17*
X004784Y049402D02*
X003584Y048202D01*
X000584Y048202D01*
X000536Y048223D01*
X000490Y048247D01*
X000446Y048274D01*
X000404Y048305D01*
X000364Y048339D01*
X000327Y048375D01*
X000293Y048414D01*
X000262Y048456D01*
X000234Y048500D01*
X000209Y048546D01*
X000188Y048593D01*
X000170Y048642D01*
X000157Y048692D01*
X000146Y048744D01*
X000140Y048795D01*
X000138Y048847D01*
X000140Y048899D01*
X000145Y048951D01*
X000154Y049002D01*
X000168Y049053D01*
X000184Y049102D01*
X000253Y049175D01*
X000320Y049252D01*
X000382Y049331D01*
X000441Y049413D01*
X000495Y049498D01*
X000546Y049586D01*
X000592Y049675D01*
X000634Y049767D01*
X000671Y049861D01*
X000704Y049956D01*
X000733Y050053D01*
X000757Y050151D01*
X000776Y050250D01*
X000790Y050350D01*
X000800Y050451D01*
X000804Y050552D01*
X000804Y050652D01*
X000800Y050753D01*
X000790Y050854D01*
X000776Y050954D01*
X000757Y051053D01*
X000733Y051151D01*
X000704Y051248D01*
X000671Y051343D01*
X000634Y051437D01*
X000592Y051529D01*
X000546Y051618D01*
X000495Y051706D01*
X000441Y051791D01*
X000382Y051873D01*
X000320Y051952D01*
X000253Y052029D01*
X000184Y052102D01*
X000168Y052151D01*
X000154Y052202D01*
X000145Y052253D01*
X000140Y052305D01*
X000138Y052357D01*
X000140Y052409D01*
X000146Y052460D01*
X000157Y052512D01*
X000170Y052562D01*
X000188Y052611D01*
X000209Y052658D01*
X000234Y052704D01*
X000262Y052748D01*
X000293Y052790D01*
X000327Y052829D01*
X000364Y052865D01*
X000404Y052899D01*
X000446Y052930D01*
X000490Y052957D01*
X000536Y052981D01*
X000584Y053002D01*
X003584Y053002D01*
X004784Y051802D01*
X004784Y049402D01*
X050534Y012902D02*
X050534Y012102D01*
D18*
X009230Y018187D02*
X009230Y019348D01*
X008856Y019348D01*
X007911Y019348D02*
X007537Y019348D01*
X007537Y018187D01*
X008010Y017655D02*
X008758Y017655D01*
X005830Y018087D02*
X005830Y019248D01*
X005456Y019248D01*
X004511Y019248D02*
X004137Y019248D01*
X004137Y018087D01*
X004610Y017555D02*
X005358Y017555D01*
X005456Y027955D02*
X005830Y027955D01*
X005830Y029117D01*
X005358Y029648D02*
X004610Y029648D01*
X004137Y029117D02*
X004137Y027955D01*
X004511Y027955D01*
X004511Y033355D02*
X004137Y033355D01*
X004137Y034517D01*
X004610Y035048D02*
X005358Y035048D01*
X005830Y034517D02*
X005830Y033355D01*
X005456Y033355D01*
D19*
X004767Y033867D02*
X005318Y034418D01*
X005181Y034556D02*
X004629Y034005D01*
X004551Y034202D02*
X004553Y034243D01*
X004559Y034284D01*
X004569Y034324D01*
X004582Y034363D01*
X004599Y034400D01*
X004620Y034436D01*
X004644Y034470D01*
X004671Y034501D01*
X004700Y034529D01*
X004733Y034555D01*
X004767Y034577D01*
X004804Y034596D01*
X004842Y034611D01*
X004882Y034623D01*
X004922Y034631D01*
X004963Y034635D01*
X005005Y034635D01*
X005046Y034631D01*
X005086Y034623D01*
X005126Y034611D01*
X005164Y034596D01*
X005200Y034577D01*
X005235Y034555D01*
X005268Y034529D01*
X005297Y034501D01*
X005324Y034470D01*
X005348Y034436D01*
X005369Y034400D01*
X005386Y034363D01*
X005399Y034324D01*
X005409Y034284D01*
X005415Y034243D01*
X005417Y034202D01*
X005415Y034161D01*
X005409Y034120D01*
X005399Y034080D01*
X005386Y034041D01*
X005369Y034004D01*
X005348Y033968D01*
X005324Y033934D01*
X005297Y033903D01*
X005268Y033875D01*
X005235Y033849D01*
X005201Y033827D01*
X005164Y033808D01*
X005126Y033793D01*
X005086Y033781D01*
X005046Y033773D01*
X005005Y033769D01*
X004963Y033769D01*
X004922Y033773D01*
X004882Y033781D01*
X004842Y033793D01*
X004804Y033808D01*
X004768Y033827D01*
X004733Y033849D01*
X004700Y033875D01*
X004671Y033903D01*
X004644Y033934D01*
X004620Y033968D01*
X004599Y034004D01*
X004582Y034041D01*
X004569Y034080D01*
X004559Y034120D01*
X004553Y034161D01*
X004551Y034202D01*
X005181Y029156D02*
X004629Y028605D01*
X004767Y028467D02*
X005318Y029018D01*
X004551Y028802D02*
X004553Y028843D01*
X004559Y028884D01*
X004569Y028924D01*
X004582Y028963D01*
X004599Y029000D01*
X004620Y029036D01*
X004644Y029070D01*
X004671Y029101D01*
X004700Y029129D01*
X004733Y029155D01*
X004767Y029177D01*
X004804Y029196D01*
X004842Y029211D01*
X004882Y029223D01*
X004922Y029231D01*
X004963Y029235D01*
X005005Y029235D01*
X005046Y029231D01*
X005086Y029223D01*
X005126Y029211D01*
X005164Y029196D01*
X005200Y029177D01*
X005235Y029155D01*
X005268Y029129D01*
X005297Y029101D01*
X005324Y029070D01*
X005348Y029036D01*
X005369Y029000D01*
X005386Y028963D01*
X005399Y028924D01*
X005409Y028884D01*
X005415Y028843D01*
X005417Y028802D01*
X005415Y028761D01*
X005409Y028720D01*
X005399Y028680D01*
X005386Y028641D01*
X005369Y028604D01*
X005348Y028568D01*
X005324Y028534D01*
X005297Y028503D01*
X005268Y028475D01*
X005235Y028449D01*
X005201Y028427D01*
X005164Y028408D01*
X005126Y028393D01*
X005086Y028381D01*
X005046Y028373D01*
X005005Y028369D01*
X004963Y028369D01*
X004922Y028373D01*
X004882Y028381D01*
X004842Y028393D01*
X004804Y028408D01*
X004768Y028427D01*
X004733Y028449D01*
X004700Y028475D01*
X004671Y028503D01*
X004644Y028534D01*
X004620Y028568D01*
X004599Y028604D01*
X004582Y028641D01*
X004569Y028680D01*
X004559Y028720D01*
X004553Y028761D01*
X004551Y028802D01*
X005200Y018736D02*
X004649Y018185D01*
X004787Y018047D02*
X005338Y018598D01*
X004551Y018402D02*
X004553Y018443D01*
X004559Y018484D01*
X004569Y018524D01*
X004582Y018563D01*
X004599Y018600D01*
X004620Y018636D01*
X004644Y018670D01*
X004671Y018701D01*
X004700Y018729D01*
X004733Y018755D01*
X004767Y018777D01*
X004804Y018796D01*
X004842Y018811D01*
X004882Y018823D01*
X004922Y018831D01*
X004963Y018835D01*
X005005Y018835D01*
X005046Y018831D01*
X005086Y018823D01*
X005126Y018811D01*
X005164Y018796D01*
X005200Y018777D01*
X005235Y018755D01*
X005268Y018729D01*
X005297Y018701D01*
X005324Y018670D01*
X005348Y018636D01*
X005369Y018600D01*
X005386Y018563D01*
X005399Y018524D01*
X005409Y018484D01*
X005415Y018443D01*
X005417Y018402D01*
X005415Y018361D01*
X005409Y018320D01*
X005399Y018280D01*
X005386Y018241D01*
X005369Y018204D01*
X005348Y018168D01*
X005324Y018134D01*
X005297Y018103D01*
X005268Y018075D01*
X005235Y018049D01*
X005201Y018027D01*
X005164Y018008D01*
X005126Y017993D01*
X005086Y017981D01*
X005046Y017973D01*
X005005Y017969D01*
X004963Y017969D01*
X004922Y017973D01*
X004882Y017981D01*
X004842Y017993D01*
X004804Y018008D01*
X004768Y018027D01*
X004733Y018049D01*
X004700Y018075D01*
X004671Y018103D01*
X004644Y018134D01*
X004620Y018168D01*
X004599Y018204D01*
X004582Y018241D01*
X004569Y018280D01*
X004559Y018320D01*
X004553Y018361D01*
X004551Y018402D01*
X008049Y018285D02*
X008600Y018836D01*
X008738Y018698D02*
X008187Y018147D01*
X007951Y018502D02*
X007953Y018543D01*
X007959Y018584D01*
X007969Y018624D01*
X007982Y018663D01*
X007999Y018700D01*
X008020Y018736D01*
X008044Y018770D01*
X008071Y018801D01*
X008100Y018829D01*
X008133Y018855D01*
X008167Y018877D01*
X008204Y018896D01*
X008242Y018911D01*
X008282Y018923D01*
X008322Y018931D01*
X008363Y018935D01*
X008405Y018935D01*
X008446Y018931D01*
X008486Y018923D01*
X008526Y018911D01*
X008564Y018896D01*
X008600Y018877D01*
X008635Y018855D01*
X008668Y018829D01*
X008697Y018801D01*
X008724Y018770D01*
X008748Y018736D01*
X008769Y018700D01*
X008786Y018663D01*
X008799Y018624D01*
X008809Y018584D01*
X008815Y018543D01*
X008817Y018502D01*
X008815Y018461D01*
X008809Y018420D01*
X008799Y018380D01*
X008786Y018341D01*
X008769Y018304D01*
X008748Y018268D01*
X008724Y018234D01*
X008697Y018203D01*
X008668Y018175D01*
X008635Y018149D01*
X008601Y018127D01*
X008564Y018108D01*
X008526Y018093D01*
X008486Y018081D01*
X008446Y018073D01*
X008405Y018069D01*
X008363Y018069D01*
X008322Y018073D01*
X008282Y018081D01*
X008242Y018093D01*
X008204Y018108D01*
X008168Y018127D01*
X008133Y018149D01*
X008100Y018175D01*
X008071Y018203D01*
X008044Y018234D01*
X008020Y018268D01*
X007999Y018304D01*
X007982Y018341D01*
X007969Y018380D01*
X007959Y018420D01*
X007953Y018461D01*
X007951Y018502D01*
X053057Y008628D02*
X053057Y008136D01*
X053057Y008628D02*
X054277Y008628D01*
X054711Y008195D01*
X054573Y007467D02*
X054547Y007419D01*
X054518Y007372D01*
X054485Y007327D01*
X054449Y007285D01*
X054410Y007246D01*
X054369Y007209D01*
X054325Y007176D01*
X054279Y007145D01*
X054230Y007119D01*
X054180Y007096D01*
X054128Y007076D01*
X054075Y007060D01*
X054021Y007048D01*
X053967Y007040D01*
X053912Y007036D01*
X053856Y007036D01*
X053801Y007040D01*
X053747Y007048D01*
X053693Y007060D01*
X053640Y007076D01*
X053588Y007096D01*
X053538Y007119D01*
X053489Y007145D01*
X053443Y007176D01*
X053399Y007209D01*
X053358Y007246D01*
X053319Y007285D01*
X053283Y007327D01*
X053250Y007372D01*
X053221Y007419D01*
X053195Y007467D01*
X053057Y007467D02*
X053057Y006975D01*
X054277Y006975D01*
X054711Y007408D01*
X054573Y008137D02*
X054547Y008185D01*
X054518Y008232D01*
X054485Y008277D01*
X054449Y008319D01*
X054410Y008358D01*
X054369Y008395D01*
X054325Y008428D01*
X054279Y008459D01*
X054230Y008485D01*
X054180Y008508D01*
X054128Y008528D01*
X054075Y008544D01*
X054021Y008556D01*
X053967Y008564D01*
X053912Y008568D01*
X053856Y008568D01*
X053801Y008564D01*
X053747Y008556D01*
X053693Y008544D01*
X053640Y008528D01*
X053588Y008508D01*
X053538Y008485D01*
X053489Y008459D01*
X053443Y008428D01*
X053399Y008395D01*
X053358Y008358D01*
X053319Y008319D01*
X053283Y008277D01*
X053250Y008232D01*
X053221Y008185D01*
X053195Y008137D01*
D20*
X053424Y004602D03*
M02*
