G75*
G70*
%OFA0B0*%
%FSLAX24Y24*%
%IPPOS*%
%LPD*%
%AMOC8*
5,1,8,0,0,1.08239X$1,22.5*
%
%ADD10R,0.0315X0.0472*%
%ADD11R,0.0315X0.0315*%
%ADD12R,0.0181X0.0500*%
%ADD13R,0.0500X0.0181*%
%ADD14R,0.0472X0.0315*%
%ADD15R,0.0240X0.0870*%
%ADD16R,0.2100X0.0760*%
%ADD17R,0.1560X0.1560*%
%ADD18R,0.1250X0.1250*%
%ADD19R,0.0260X0.0800*%
%ADD20R,0.0512X0.0787*%
%ADD21R,0.0787X0.0787*%
%ADD22R,0.0800X0.0260*%
%ADD23R,0.0866X0.0551*%
%ADD24R,0.1000X0.2000*%
%ADD25R,0.0500X0.1000*%
%ADD26R,0.2441X0.2126*%
%ADD27R,0.0630X0.0394*%
%ADD28R,0.1000X0.0500*%
%ADD29R,0.0551X0.0630*%
D10*
X003329Y004502D03*
X004038Y004502D03*
X008229Y004502D03*
X008938Y004502D03*
X010029Y010102D03*
X010738Y010102D03*
X014929Y010102D03*
X015638Y010102D03*
X019829Y010102D03*
X020538Y010102D03*
X022929Y010102D03*
X023638Y010102D03*
X027929Y010102D03*
X028638Y010102D03*
X032729Y010102D03*
X033438Y010102D03*
X037629Y010102D03*
X038338Y010102D03*
X039429Y015302D03*
X040138Y015302D03*
X042529Y015302D03*
X043238Y015302D03*
X047529Y015302D03*
X048238Y015302D03*
X052229Y015302D03*
X052938Y015302D03*
X054029Y010102D03*
X054738Y010102D03*
X050038Y010102D03*
X049329Y010102D03*
X045038Y010102D03*
X044329Y010102D03*
X043238Y004502D03*
X042529Y004502D03*
X046529Y003302D03*
X046529Y002702D03*
X047238Y002702D03*
X047238Y003302D03*
X047129Y004502D03*
X047838Y004502D03*
X038338Y004502D03*
X037629Y004502D03*
X033438Y004502D03*
X032729Y004502D03*
X030438Y004502D03*
X029729Y004502D03*
X025438Y004502D03*
X024729Y004502D03*
X020538Y004502D03*
X019829Y004502D03*
X015638Y004502D03*
X014929Y004502D03*
X013838Y015302D03*
X013129Y015302D03*
X008938Y015302D03*
X008229Y015302D03*
X004038Y015302D03*
X003329Y015302D03*
X003538Y010102D03*
X002829Y010102D03*
X005129Y020902D03*
X005838Y020902D03*
X005138Y022002D03*
X004429Y022002D03*
X005129Y026302D03*
X005838Y026302D03*
X010029Y026302D03*
X010738Y026302D03*
X010429Y027002D03*
X011138Y027002D03*
X013129Y026302D03*
X013838Y026302D03*
X018029Y026302D03*
X018738Y026302D03*
X022929Y026302D03*
X023638Y026302D03*
X027929Y026302D03*
X028638Y026302D03*
X028638Y020902D03*
X027929Y020902D03*
X023638Y020902D03*
X022929Y020902D03*
X023038Y018702D03*
X023038Y018002D03*
X022329Y018002D03*
X022329Y018702D03*
X024729Y015302D03*
X025438Y015302D03*
X029729Y015302D03*
X030438Y015302D03*
X034529Y015302D03*
X035238Y015302D03*
X035238Y020902D03*
X034529Y020902D03*
X039429Y020902D03*
X040138Y020902D03*
X044329Y020902D03*
X045038Y020902D03*
X049329Y020902D03*
X050038Y020902D03*
X052229Y020902D03*
X052938Y020902D03*
X052938Y026302D03*
X052229Y026302D03*
X050038Y026302D03*
X049329Y026302D03*
X045038Y026302D03*
X044329Y026302D03*
X040138Y026302D03*
X039429Y026302D03*
X035238Y026302D03*
X034529Y026302D03*
X034529Y031702D03*
X035238Y031702D03*
X039429Y031702D03*
X040138Y031702D03*
X042529Y031702D03*
X043238Y031702D03*
X047529Y031702D03*
X048238Y031702D03*
X052229Y031702D03*
X052938Y031702D03*
X053329Y037002D03*
X054038Y037002D03*
X049338Y037002D03*
X048629Y037002D03*
X044338Y037002D03*
X043629Y037002D03*
X039038Y037002D03*
X038329Y037002D03*
X034138Y037002D03*
X033429Y037002D03*
X029338Y037002D03*
X028629Y037002D03*
X024338Y037002D03*
X023629Y037002D03*
X019838Y037002D03*
X019129Y037002D03*
X014938Y037002D03*
X014229Y037002D03*
X010038Y037002D03*
X009329Y037002D03*
X006438Y035902D03*
X005729Y035902D03*
X004938Y035902D03*
X004229Y035902D03*
X004429Y037002D03*
X005138Y037002D03*
X004138Y041702D03*
X003429Y041702D03*
X006129Y041802D03*
X006838Y041802D03*
X009029Y042602D03*
X009738Y042602D03*
X014029Y042602D03*
X014738Y042602D03*
X016129Y046102D03*
X016838Y046102D03*
X015638Y048002D03*
X014929Y048002D03*
X019129Y048002D03*
X019838Y048002D03*
X024029Y048002D03*
X024738Y048002D03*
X028629Y048002D03*
X029338Y048002D03*
X033429Y048002D03*
X034138Y048002D03*
X038329Y048002D03*
X039038Y048002D03*
X043329Y048002D03*
X044038Y048002D03*
X048229Y048002D03*
X048938Y048002D03*
X053329Y048002D03*
X054038Y048002D03*
X054038Y042702D03*
X053329Y042702D03*
X048938Y042702D03*
X048229Y042702D03*
X043938Y042702D03*
X043229Y042702D03*
X039038Y042702D03*
X038329Y042702D03*
X034138Y042702D03*
X033429Y042702D03*
X029738Y042702D03*
X029029Y042702D03*
X024738Y042702D03*
X024029Y042702D03*
X019838Y042702D03*
X019129Y042702D03*
X020429Y053402D03*
X021138Y053402D03*
X016438Y055002D03*
X015729Y055002D03*
X012138Y055202D03*
X011429Y055202D03*
X006438Y054202D03*
X005729Y054202D03*
X005729Y053402D03*
X006438Y053402D03*
X006238Y048402D03*
X005529Y048402D03*
X004738Y031702D03*
X004029Y031702D03*
X004229Y030502D03*
X004938Y030502D03*
X005729Y030502D03*
X006438Y030502D03*
X008929Y031702D03*
X009638Y031702D03*
X011029Y031402D03*
X011738Y031402D03*
X013829Y031702D03*
X014538Y031702D03*
X018029Y031702D03*
X018738Y031702D03*
X024729Y031702D03*
X025438Y031702D03*
X029729Y031702D03*
X030438Y031702D03*
X018738Y020902D03*
X018029Y020902D03*
X013838Y020902D03*
X013129Y020902D03*
X010738Y020902D03*
X010029Y020902D03*
X018029Y015302D03*
X018738Y015302D03*
X052729Y054602D03*
X053438Y054602D03*
D11*
X005179Y054202D03*
X004589Y054202D03*
D12*
X012281Y047192D03*
X012596Y047192D03*
X012911Y047192D03*
X013226Y047192D03*
X013541Y047192D03*
X013856Y047192D03*
X014171Y047192D03*
X014486Y047192D03*
X014486Y043812D03*
X014171Y043812D03*
X013856Y043812D03*
X013541Y043812D03*
X013226Y043812D03*
X012911Y043812D03*
X012596Y043812D03*
X012281Y043812D03*
D13*
X011694Y044399D03*
X011694Y044714D03*
X011694Y045029D03*
X011694Y045344D03*
X011694Y045659D03*
X011694Y045974D03*
X011694Y046289D03*
X011694Y046604D03*
X015074Y046604D03*
X015074Y046289D03*
X015074Y045974D03*
X015074Y045659D03*
X015074Y045344D03*
X015074Y045029D03*
X015074Y044714D03*
X015074Y044399D03*
D14*
X010184Y041956D03*
X010184Y041247D03*
X013784Y034756D03*
X013784Y034047D03*
X015384Y034047D03*
X015384Y034756D03*
X009184Y029556D03*
X009184Y028847D03*
X015784Y020156D03*
X015784Y019447D03*
X017284Y018456D03*
X017284Y017747D03*
X015884Y016956D03*
X015884Y016247D03*
X019384Y013256D03*
X019384Y012547D03*
X022984Y016647D03*
X022984Y017356D03*
X022984Y019347D03*
X022984Y020056D03*
X023684Y031047D03*
X023684Y031756D03*
X010384Y018556D03*
X010384Y017847D03*
X008984Y011056D03*
X008984Y010347D03*
X008984Y007656D03*
X008984Y006947D03*
X028184Y005056D03*
X028184Y004347D03*
X048784Y007147D03*
X048784Y007856D03*
X055284Y005456D03*
X055284Y004747D03*
X048684Y017847D03*
X048684Y018556D03*
X048684Y026047D03*
X048684Y026756D03*
X052184Y036847D03*
X052184Y037556D03*
X047584Y045347D03*
X047584Y046056D03*
X047584Y050747D03*
X047584Y051456D03*
X049384Y054647D03*
X049384Y055356D03*
X044384Y055356D03*
X044384Y054647D03*
X038284Y054547D03*
X038284Y055256D03*
X033384Y055256D03*
X033384Y054547D03*
X028584Y054547D03*
X028584Y055256D03*
X025184Y050956D03*
X025184Y050247D03*
X025484Y048356D03*
X025484Y047647D03*
X023584Y054547D03*
X023584Y055256D03*
X017684Y055256D03*
X017684Y054547D03*
X012984Y054056D03*
X012984Y053347D03*
X010084Y053447D03*
X010084Y054156D03*
X008284Y051156D03*
X008284Y050447D03*
X008284Y048756D03*
X008284Y048047D03*
D15*
X007734Y049772D03*
X007234Y049772D03*
X006734Y049772D03*
X006234Y049772D03*
X006234Y051832D03*
X006734Y051832D03*
X007234Y051832D03*
X007734Y051832D03*
D16*
X018184Y040102D03*
X021984Y040102D03*
D17*
X002284Y050602D03*
D18*
X002284Y047502D03*
X002284Y053702D03*
D19*
X009984Y035712D03*
X010484Y035712D03*
X010984Y035712D03*
X011484Y035712D03*
X011984Y035712D03*
X012484Y035712D03*
X012984Y035712D03*
X012984Y033292D03*
X012484Y033292D03*
X011984Y033292D03*
X011484Y033292D03*
X010984Y033292D03*
X010484Y033292D03*
X009984Y033292D03*
X009984Y030412D03*
X010484Y030412D03*
X010984Y030412D03*
X011484Y030412D03*
X011984Y030412D03*
X012484Y030412D03*
X012984Y030412D03*
X012984Y027992D03*
X012484Y027992D03*
X011984Y027992D03*
X011484Y027992D03*
X010984Y027992D03*
X010484Y027992D03*
X009984Y027992D03*
X016134Y033192D03*
X016634Y033192D03*
X017134Y033192D03*
X017634Y033192D03*
X018134Y033192D03*
X018634Y033192D03*
X019134Y033192D03*
X019634Y033192D03*
X019634Y035612D03*
X019134Y035612D03*
X018634Y035612D03*
X018134Y035612D03*
X017634Y035612D03*
X017134Y035612D03*
X016634Y035612D03*
X016134Y035612D03*
X025734Y049392D03*
X026234Y049392D03*
X026734Y049392D03*
X027234Y049392D03*
X027734Y049392D03*
X028234Y049392D03*
X028734Y049392D03*
X029234Y049392D03*
X029234Y051812D03*
X028734Y051812D03*
X028234Y051812D03*
X027734Y051812D03*
X027234Y051812D03*
X026734Y051812D03*
X026234Y051812D03*
X025734Y051812D03*
X048434Y052312D03*
X048934Y052312D03*
X049434Y052312D03*
X049934Y052312D03*
X050434Y052312D03*
X050934Y052312D03*
X051434Y052312D03*
X051934Y052312D03*
X051934Y049892D03*
X051434Y049892D03*
X050934Y049892D03*
X050434Y049892D03*
X049934Y049892D03*
X049434Y049892D03*
X048934Y049892D03*
X048434Y049892D03*
X048434Y046912D03*
X048934Y046912D03*
X049434Y046912D03*
X049934Y046912D03*
X050434Y046912D03*
X050934Y046912D03*
X051434Y046912D03*
X051934Y046912D03*
X051934Y044492D03*
X051434Y044492D03*
X050934Y044492D03*
X050434Y044492D03*
X049934Y044492D03*
X049434Y044492D03*
X048934Y044492D03*
X048434Y044492D03*
X047934Y019412D03*
X047434Y019412D03*
X046934Y019412D03*
X046434Y019412D03*
X045934Y019412D03*
X045434Y019412D03*
X044934Y019412D03*
X044434Y019412D03*
X044434Y016992D03*
X044934Y016992D03*
X045434Y016992D03*
X045934Y016992D03*
X046434Y016992D03*
X046934Y016992D03*
X047434Y016992D03*
X047934Y016992D03*
X048034Y008712D03*
X047534Y008712D03*
X047034Y008712D03*
X046534Y008712D03*
X046034Y008712D03*
X045534Y008712D03*
X045034Y008712D03*
X044534Y008712D03*
X044534Y006292D03*
X045034Y006292D03*
X045534Y006292D03*
X046034Y006292D03*
X046534Y006292D03*
X047034Y006292D03*
X047534Y006292D03*
X048034Y006292D03*
X023634Y011692D03*
X023134Y011692D03*
X022634Y011692D03*
X022134Y011692D03*
X021634Y011692D03*
X021134Y011692D03*
X020634Y011692D03*
X020134Y011692D03*
X020134Y014112D03*
X020634Y014112D03*
X021134Y014112D03*
X021634Y014112D03*
X022134Y014112D03*
X022634Y014112D03*
X023134Y014112D03*
X023634Y014112D03*
X020984Y016892D03*
X020484Y016892D03*
X019984Y016892D03*
X019484Y016892D03*
X018984Y016892D03*
X018484Y016892D03*
X017984Y016892D03*
X017984Y019312D03*
X018484Y019312D03*
X018984Y019312D03*
X019484Y019312D03*
X019984Y019312D03*
X020484Y019312D03*
X020984Y019312D03*
X014084Y019412D03*
X013584Y019412D03*
X013084Y019412D03*
X012584Y019412D03*
X012084Y019412D03*
X011584Y019412D03*
X011084Y019412D03*
X011084Y016992D03*
X011584Y016992D03*
X012084Y016992D03*
X012584Y016992D03*
X013084Y016992D03*
X013584Y016992D03*
X014084Y016992D03*
X008234Y013712D03*
X007734Y013712D03*
X007234Y013712D03*
X006734Y013712D03*
X006234Y013712D03*
X005734Y013712D03*
X005234Y013712D03*
X004734Y013712D03*
X004734Y011292D03*
X005234Y011292D03*
X005734Y011292D03*
X006234Y011292D03*
X006734Y011292D03*
X007234Y011292D03*
X007734Y011292D03*
X008234Y011292D03*
X008234Y008512D03*
X007734Y008512D03*
X007234Y008512D03*
X006734Y008512D03*
X006234Y008512D03*
X005734Y008512D03*
X005234Y008512D03*
X004734Y008512D03*
X004734Y006092D03*
X005234Y006092D03*
X005734Y006092D03*
X006234Y006092D03*
X006734Y006092D03*
X007234Y006092D03*
X007734Y006092D03*
X008234Y006092D03*
D20*
X007675Y017714D03*
X009092Y017714D03*
X005692Y017614D03*
X004275Y017614D03*
X004275Y029589D03*
X005692Y029589D03*
X005692Y034989D03*
X004275Y034989D03*
D21*
X004984Y033414D03*
X004984Y028014D03*
X004984Y019189D03*
X008384Y019289D03*
D22*
X008774Y021952D03*
X008774Y022452D03*
X008774Y022952D03*
X008774Y023452D03*
X008774Y023952D03*
X008774Y024452D03*
X008774Y024952D03*
X008774Y025452D03*
X011194Y025452D03*
X011194Y024952D03*
X011194Y024452D03*
X011194Y023952D03*
X011194Y023452D03*
X011194Y022952D03*
X011194Y022452D03*
X011194Y021952D03*
X020374Y027552D03*
X020374Y028052D03*
X020374Y028552D03*
X020374Y029052D03*
X020374Y029552D03*
X020374Y030052D03*
X020374Y030552D03*
X020374Y031052D03*
X022794Y031052D03*
X022794Y030552D03*
X022794Y030052D03*
X022794Y029552D03*
X022794Y029052D03*
X022794Y028552D03*
X022794Y028052D03*
X022794Y027552D03*
X022774Y043452D03*
X022774Y043952D03*
X022774Y044452D03*
X022774Y044952D03*
X022774Y045452D03*
X022774Y045952D03*
X022774Y046452D03*
X022774Y046952D03*
X025194Y046952D03*
X025194Y046452D03*
X025194Y045952D03*
X025194Y045452D03*
X025194Y044952D03*
X025194Y044452D03*
X025194Y043952D03*
X025194Y043452D03*
X048674Y030952D03*
X048674Y030452D03*
X048674Y029952D03*
X048674Y029452D03*
X048674Y028952D03*
X048674Y028452D03*
X048674Y027952D03*
X048674Y027452D03*
X051094Y027452D03*
X051094Y027952D03*
X051094Y028452D03*
X051094Y028952D03*
X051094Y029452D03*
X051094Y029952D03*
X051094Y030452D03*
X051094Y030952D03*
X052174Y038252D03*
X052174Y038752D03*
X052174Y039252D03*
X052174Y039752D03*
X052174Y040252D03*
X052174Y040752D03*
X052174Y041252D03*
X052174Y041752D03*
X054594Y041752D03*
X054594Y041252D03*
X054594Y040752D03*
X054594Y040252D03*
X054594Y039752D03*
X054594Y039252D03*
X054594Y038752D03*
X054594Y038252D03*
X030694Y009252D03*
X030694Y008752D03*
X030694Y008252D03*
X030694Y007752D03*
X030694Y007252D03*
X030694Y006752D03*
X030694Y006252D03*
X030694Y005752D03*
X028274Y005752D03*
X028274Y006252D03*
X028274Y006752D03*
X028274Y007252D03*
X028274Y007752D03*
X028274Y008252D03*
X028274Y008752D03*
X028274Y009252D03*
D23*
X053254Y007802D03*
X054514Y007802D03*
D24*
X048284Y002602D03*
X045284Y002602D03*
D25*
X010984Y002902D03*
X009284Y002802D03*
X008384Y002802D03*
X007484Y002802D03*
X006584Y002802D03*
X012984Y055202D03*
X014384Y055202D03*
D26*
X051400Y004602D03*
D27*
X054274Y005499D03*
X054274Y003704D03*
D28*
X003084Y018502D03*
X003084Y022302D03*
X003084Y023402D03*
X003084Y024402D03*
X002684Y028702D03*
X002684Y030602D03*
X002684Y032502D03*
X002684Y034402D03*
X002784Y044602D03*
X002784Y045502D03*
D29*
X050133Y012502D03*
X051235Y012502D03*
M02*
